<?xml version="1.0" standalone="no"?>
<!DOCTYPE svg PUBLIC "-//W3C//DTD SVG 1.1//EN" "http://www.w3.org/Graphics/SVG/1.1/DTD/svg11.dtd" >
<svg xmlns="http://www.w3.org/2000/svg" xmlns:xlink="http://www.w3.org/1999/xlink" version="1.1">
<metadata>
Created by FontForge 20150824 at Thu Jul 21 01:25:24 2016
 By Everything Fonts
Copyright (c) 2013 by Mariya Pigoulevskaya. All rights reserved.
</metadata>
<defs>
<font id="AcromMedium" horiz-adv-x="653" >
  <font-face 
    font-family="AcromMedium"
    font-weight="500"
    font-stretch="normal"
    units-per-em="1000"
    panose-1="0 0 6 0 0 0 0 0 0 0"
    ascent="750"
    descent="-250"
    x-height="500"
    cap-height="700"
    bbox="0 -381 1231 1023"
    underline-thickness="50"
    underline-position="-150"
    unicode-range="U+0020-25CA"
  />
<missing-glyph horiz-adv-x="500" 
d="M0 0v700h500v-700h-500zM250 395l170 255h-340zM280 350l170 -255v510zM80 50h340l-170 255zM50 605v-510l170 255z" />
    <glyph glyph-name=".notdef" horiz-adv-x="500" 
d="M0 0v700h500v-700h-500zM250 395l170 255h-340zM280 350l170 -255v510zM80 50h340l-170 255zM50 605v-510l170 255z" />
    <glyph glyph-name=".null" horiz-adv-x="0" 
 />
    <glyph glyph-name="nonmarkingreturn" horiz-adv-x="333" 
 />
    <glyph glyph-name="space" unicode=" " horiz-adv-x="328" 
 />
    <glyph glyph-name="exclam" unicode="!" horiz-adv-x="241" 
d="M175 700v-285l-10 -237h-88l-10 237v285h108zM121 104q26 0 43.5 -16t17.5 -40q0 -23 -17.5 -39t-43.5 -16t-44 16t-18 39q0 24 18 40t44 16z" />
    <glyph glyph-name="quotedbl" unicode="&#x22;" horiz-adv-x="303" 
d="M121 527h-54l-8 173h70zM236 527h-54l-8 173h70z" />
    <glyph glyph-name="numbersign" unicode="#" horiz-adv-x="691" 
d="M458 273h131l-12 -58h-131l-46 -215h-65l46 215h-129l-46 -215h-65l46 215h-128l12 58h129l30 144h-128l12 58h129l47 225h65l-48 -225h129l48 225h65l-48 -225h131l-12 -58h-132zM294 417l-30 -144h129l30 144h-129z" />
    <glyph glyph-name="dollar" unicode="$" horiz-adv-x="678" 
d="M619 204q0 -92 -71 -149t-181 -62v-45h-64v47q-84 9 -147 48.5t-97 96.5l70 65q22 -40 67 -69.5t107 -38.5v222q-227 27 -227 183q0 87 64.5 142t162.5 62v44h64v-45q65 -6 125 -36.5t104 -77.5l-70 -65q-64 62 -159 78v-191l16 -2q114 -14 175 -62t61 -145zM184 505
q0 -36 29.5 -55t89.5 -29v184q-49 -6 -84 -31t-35 -69zM367 311v-217q65 4 104.5 33t39.5 77q0 50 -36 74t-106 33h-2z" />
    <glyph glyph-name="percent" unicode="%" horiz-adv-x="823" 
d="M231 707q72 0 121.5 -48.5t49.5 -117.5t-49.5 -117.5t-121.5 -48.5t-122 48.5t-50 117.5t50 117.5t122 48.5zM640 700l-392 -700h-66l391 700h67zM231 641q-43 0 -71 -27.5t-28 -72.5q0 -44 28 -72t71 -28t71 28t28 72q0 45 -28 72.5t-71 27.5zM593 325q72 0 121.5 -48.5
t49.5 -117.5t-49.5 -117.5t-121.5 -48.5t-122 48.5t-50 117.5t50 117.5t122 48.5zM593 259q-43 0 -71 -28t-28 -72q0 -45 28 -72.5t71 -27.5t71 27.5t28 72.5q0 44 -28 72t-71 28z" />
    <glyph glyph-name="ampersand" unicode="&#x26;" horiz-adv-x="688" 
d="M523 0l-50 52q-60 -55 -168 -55h-6q-113 1 -176.5 56.5t-63.5 145.5q0 61 32 104.5t86 64.5l-32 33q-54 59 -54 128q0 73 56 121.5t149 48.5h10q90 0 149 -52.5t59 -133.5v-12h-103q0 49 -32 74.5t-80 25.5q-44 0 -76 -23.5t-32 -69.5q0 -42 31 -74l242 -254q15 28 15 66
h76q0 -75 -31 -133l105 -113h-106zM307 96q64 0 97 33l-178 185q-64 -26 -64 -94q0 -58 40 -91t105 -33z" />
    <glyph glyph-name="quotesingle" unicode="'" horiz-adv-x="188" 
d="M121 527h-54l-8 173h70z" />
    <glyph glyph-name="parenleft" unicode="(" horiz-adv-x="381" 
d="M322 744v-102q-69 -58 -111 -148.5t-44 -182.5v-14q0 -92 42.5 -183.5t112.5 -151.5v-102q-119 66 -191 186t-72 251v14q1 130 73 250t190 183z" />
    <glyph glyph-name="parenright" unicode=")" horiz-adv-x="381" 
d="M59 642v102q118 -63 189.5 -183t73.5 -250v-14q0 -131 -72 -251t-191 -186v102q70 60 112 151t42 184v14q-1 92 -43 182.5t-111 148.5z" />
    <glyph glyph-name="asterisk" unicode="*" horiz-adv-x="467" 
d="M369 416l-46 -37l-90 126l-90 -126l-46 37l101 115l-139 34l16 56l135 -46l-6 142h58l-6 -143l136 47l16 -56l-140 -34z" />
    <glyph glyph-name="plus" unicode="+" horiz-adv-x="532" 
d="M301 314h172v-64h-172v-175h-70v175h-172v64h172v175h70v-175z" />
    <glyph glyph-name="comma" unicode="," horiz-adv-x="298" 
d="M239 104l-107 -235h-73l72 235h108z" />
    <glyph glyph-name="hyphen" unicode="-" horiz-adv-x="366" 
d="M307 256h-248v64h248v-64z" />
    <glyph glyph-name="period" unicode="." horiz-adv-x="241" 
d="M121 104q26 0 43.5 -16t17.5 -40q0 -23 -17.5 -39t-43.5 -16t-44 16t-18 39q0 24 18 40t44 16z" />
    <glyph glyph-name="slash" unicode="/" horiz-adv-x="441" 
d="M382 700l-258 -700h-65l259 700h64z" />
    <glyph glyph-name="zero" unicode="0" horiz-adv-x="827" 
d="M413 693q145 0 247.5 -102.5t102.5 -247.5t-102.5 -247.5t-247.5 -102.5t-247.5 102.5t-102.5 247.5t102.5 247.5t247.5 102.5zM413 591q-102 0 -171.5 -70.5t-69.5 -177.5q0 -108 69.5 -178t171.5 -70t172 70t70 178q0 107 -70 177.5t-172 70.5z" />
    <glyph glyph-name="one" unicode="1" horiz-adv-x="412" 
d="M302 0h-108v492l-80 -96l-70 54l196 235h62v-685z" />
    <glyph glyph-name="two" unicode="2" horiz-adv-x="634" 
d="M579 0h-525v63l298 254q56 48 81 81.5t25 73.5q0 55 -39.5 86.5t-97.5 32.5h-8q-92 0 -175 -86l-70 65q109 123 254 123h9q106 -1 170 -59t64 -141q0 -69 -42.5 -128t-137.5 -136l-146 -128h340v-101z" />
    <glyph glyph-name="three" unicode="3" horiz-adv-x="646" 
d="M564 623l-229 -211q23 5 63 5q93 -9 143 -63t50 -134q0 -98 -65.5 -162t-186.5 -65h-8q-178 1 -277 137l70 65q89 -100 207 -100h6q67 1 109.5 40t42.5 100q0 124 -156 124q-51 0 -107 -27l-53 40l230 212h-287v101h448v-62z" />
    <glyph glyph-name="four" unicode="4" horiz-adv-x="629" 
d="M510 124v-124h-108v124h-358v62l404 499h62v-460h74v-101h-74zM403 506l-230 -281h230v281z" />
    <glyph glyph-name="five" unicode="5" horiz-adv-x="643" 
d="M524 584h-322v-179q57 43 159 43q108 0 167.5 -61.5t59.5 -162.5q0 -95 -67 -162.5t-187 -68.5h-9q-172 1 -271 137l70 65q47 -53 94.5 -76.5t108.5 -23.5h6q65 1 109 38t44 99q0 66 -41.5 101t-117.5 35q-49 0 -95.5 -18t-73.5 -40l-52 40v335h418v-101z" />
    <glyph glyph-name="six" unicode="6" horiz-adv-x="622" 
d="M333 693h6q131 -1 210 -95l-70 -65q-64 58 -141 58h-5q-81 0 -124 -63t-50 -157q23 43 69 68.5t106 25.5q99 0 166 -63.5t67 -167.5q0 -98 -68 -169.5t-182 -71.5q-116 0 -189.5 80t-73.5 203v49q0 102 29.5 183.5t94 133t155.5 51.5zM311 373q-64 0 -106 -38.5
t-42 -93.5q0 -62 40 -104t108 -42q64 0 106 39.5t42 99.5t-42 99.5t-106 39.5z" />
    <glyph glyph-name="seven" unicode="7" horiz-adv-x="553" 
d="M508 623l-347 -623h-116l326 584h-327v101h464v-62z" />
    <glyph glyph-name="eight" unicode="8" horiz-adv-x="605" 
d="M420 365q59 -18 94.5 -62.5t35.5 -106.5q0 -91 -65.5 -146.5t-178.5 -56.5h-6q-114 0 -180 56t-66 147q0 62 35 106.5t94 62.5q-105 44 -105 152q0 73 60 124.5t160 51.5h10q100 0 158.5 -51.5t58.5 -124.5q0 -109 -105 -152zM182 498q0 -49 34.5 -74.5t86.5 -25.5
t86.5 25.5t34.5 74.5t-34.5 74.5t-86.5 25.5t-86.5 -25.5t-34.5 -74.5zM303 93q64 0 104.5 32.5t40.5 88.5q0 55 -39.5 87t-105.5 33q-24 0 -47.5 -6t-46 -19t-37 -37.5t-14.5 -57.5q0 -56 40.5 -88.5t104.5 -32.5z" />
    <glyph glyph-name="nine" unicode="9" horiz-adv-x="622" 
d="M288 -7h-6q-132 1 -210 95l70 64q64 -57 141 -57h5q81 0 124 63t51 157q-24 -43 -70 -68.5t-106 -25.5q-99 0 -166 63.5t-67 167.5q0 98 68 169.5t182 71.5q116 0 189.5 -80t73.5 -203v-49q0 -102 -29.5 -183.5t-94 -133t-155.5 -51.5zM311 312q64 0 106 38.5t42 94.5
q0 62 -40 104t-108 42q-64 0 -106 -39.5t-42 -99.5t42 -100t106 -40z" />
    <glyph glyph-name="colon" unicode=":" horiz-adv-x="241" 
d="M121 418q26 0 43.5 -16t17.5 -40q0 -23 -17.5 -39t-43.5 -16t-44 16t-18 39q0 24 18 40t44 16zM121 104q26 0 43.5 -16t17.5 -39t-18 -39.5t-43 -16.5q-26 0 -44 16.5t-18 39.5t18 39t44 16z" />
    <glyph glyph-name="semicolon" unicode=";" horiz-adv-x="311" 
d="M191 418q26 0 43.5 -16t17.5 -40q0 -23 -17.5 -39t-43.5 -16t-44 16t-18 39q0 24 18 40t44 16zM239 104l-107 -235h-73l72 235h108z" />
    <glyph glyph-name="less" unicode="&#x3c;" horiz-adv-x="471" 
d="M412 454l-193 -113l193 -112v-90l-353 203l353 202v-90z" />
    <glyph glyph-name="equal" unicode="=" horiz-adv-x="532" 
d="M473 311h-414v64h414v-64zM473 168h-414v64h414v-64z" />
    <glyph glyph-name="greater" unicode="&#x3e;" horiz-adv-x="471" 
d="M412 342l-353 -203v90l193 112l-193 113v90z" />
    <glyph glyph-name="question" unicode="?" horiz-adv-x="655" 
d="M336 707h9q120 -2 185.5 -64.5t65.5 -155.5q0 -91 -61 -146t-161 -65v-85h-108v146q228 -10 228 135q0 58 -42.5 95t-109.5 38h-6q-114 0 -207 -100l-70 65q47 62 117.5 99t159.5 38zM320 104q26 0 43.5 -16t17.5 -40q0 -23 -17.5 -39t-43.5 -16t-44 16t-18 39
q0 24 18 40t44 16z" />
    <glyph glyph-name="at" unicode="@" horiz-adv-x="929" 
d="M464 662q177 0 291.5 -115t114.5 -283v-87q0 -72 -35.5 -112.5t-96.5 -41.5q-83 2 -103 65l-3 34q-27 -47 -74 -74t-105 -27q-95 0 -158.5 66.5t-63.5 162.5t63.5 163t158.5 67q54 0 98.5 -25t70.5 -67l4 86h58v-321q0 -65 55 -65q27 0 42 18.5t15 69.5v85
q0 149 -95 241.5t-237 92.5q-134 0 -232.5 -95.5t-98.5 -244.5q0 -150 98.5 -244t232.5 -94q95 0 174 50l49 -49q-101 -68 -223 -68q-168 0 -286.5 118.5t-118.5 286.5q0 169 118.5 288t286.5 119zM460 401q-60 0 -103.5 -43t-43.5 -108t43 -107.5t104 -42.5
q60 0 103.5 42.5t43.5 107.5t-43.5 108t-103.5 43z" />
    <glyph glyph-name="A" unicode="A" horiz-adv-x="727" 
d="M227 157l-64 -157h-119l289 700h63l286 -700h-119l-63 157h-273zM364 503l-99 -244h198z" />
    <glyph glyph-name="B" unicode="B" horiz-adv-x="692" 
d="M109 700h262q57 0 101 -12t68.5 -30.5t40 -44t20.5 -48.5t5 -48q0 -115 -100 -151q62 -13 97 -58t35 -111q0 -197 -252 -197h-277v700zM217 598v-190h165q121 0 121 95t-121 95h-165zM217 315v-213h191q127 0 127 106q0 48 -31.5 77.5t-95.5 29.5h-191z" />
    <glyph glyph-name="C" unicode="C" horiz-adv-x="738" 
d="M419 707q156 0 264 -116l-70 -65q-79 79 -194 79q-105 0 -176.5 -72.5t-71.5 -182.5q0 -111 71.5 -183t176.5 -72q117 0 194 79l70 -65q-108 -116 -264 -116q-148 0 -252 104.5t-104 252.5t104 252.5t252 104.5z" />
    <glyph glyph-name="D" unicode="D" horiz-adv-x="760" 
d="M109 700h232q150 0 253 -99t103 -251t-103 -251t-253 -99h-232v700zM217 102h124q107 0 177.5 66.5t70.5 181.5q0 114 -70.5 181t-177.5 67h-124v-496z" />
    <glyph glyph-name="E" unicode="E" horiz-adv-x="618" 
d="M217 404h323v-102h-323v-200h347v-102h-455v700h455v-102h-347v-194z" />
    <glyph glyph-name="F" unicode="F" horiz-adv-x="618" 
d="M217 404h323v-102h-323v-302h-108v700h455v-102h-347v-194z" />
    <glyph glyph-name="G" unicode="G" horiz-adv-x="783" 
d="M419 706q156 0 264 -116l-70 -65q-78 80 -194 80q-105 0 -176.5 -72.5t-71.5 -183.5q0 -110 71.5 -182.5t176.5 -72.5q90 0 156 55v145h-160v83h268v-269q-108 -116 -264 -116q-148 0 -252 104.5t-104 252.5t104 252.5t252 104.5z" />
    <glyph glyph-name="H" unicode="H" horiz-adv-x="756" 
d="M647 0h-108v302h-322v-302h-108v700h108v-296h322v296h108v-700z" />
    <glyph glyph-name="I" unicode="I" horiz-adv-x="492" 
d="M300 102h83v-102h-274v102h83v496h-83v102h274v-102h-83v-496z" />
    <glyph glyph-name="J" unicode="J" horiz-adv-x="603" 
d="M539 700v-453q0 -124 -66 -189t-172 -65q-107 0 -172.5 65t-65.5 189v34h108v-48q0 -64 35.5 -101t94.5 -37t94.5 37t35.5 101v365h-223v102h331z" />
    <glyph glyph-name="K" unicode="K" horiz-adv-x="732" 
d="M565 0l-144 223q-31 48 -51.5 64t-63.5 16h-89v-303h-108v700h108v-293h81q42 0 63 16t53 64l136 213h123l-159 -247q-54 -77 -88 -95q23 -8 43.5 -29.5t51.5 -70.5l166 -258h-122z" />
    <glyph glyph-name="L" unicode="L" horiz-adv-x="598" 
d="M554 0h-445v700h108v-598h337v-102z" />
    <glyph glyph-name="M" unicode="M" horiz-adv-x="895" 
d="M786 0h-108v498l-235 -296l-236 296v-498h-108v700h63l281 -355l281 355h62v-700z" />
    <glyph glyph-name="N" unicode="N" horiz-adv-x="739" 
d="M640 0h-63l-370 494v-494h-108v700h63l370 -494v494h108v-700z" />
    <glyph glyph-name="O" unicode="O" horiz-adv-x="840" 
d="M419 707q148 0 252.5 -104.5t104.5 -252.5t-104.5 -252.5t-252.5 -104.5t-252 104.5t-104 252.5t104 252.5t252 104.5zM419 605q-105 0 -176.5 -72.5t-71.5 -182.5q0 -111 71.5 -183t176.5 -72t177 72t72 183q0 110 -72 182.5t-177 72.5z" />
    <glyph glyph-name="P" unicode="P" horiz-adv-x="707" 
d="M109 700h226q140 0 224 -72.5t84 -190.5q0 -119 -84 -191t-224 -72h-118v-174h-108v700zM217 275h125q86 0 142.5 40.5t56.5 121.5q0 79 -57 120t-142 41h-125v-323z" />
    <glyph glyph-name="Q" unicode="Q" horiz-adv-x="867" 
d="M419 707q148 0 252.5 -104.5t104.5 -252.5q0 -80 -38 -148t-101 -107h166v-102h-384q-148 0 -252 104.5t-104 252.5t104 252.5t252 104.5zM419 605q-105 0 -176.5 -72.5t-71.5 -182.5q0 -111 71.5 -183t176.5 -72t177 72t72 183q0 110 -72 182.5t-177 72.5z" />
    <glyph glyph-name="R" unicode="R" horiz-adv-x="698" 
d="M109 700h232q139 0 220.5 -71.5t81.5 -186.5q0 -82 -43.5 -139t-121.5 -84q49 -24 110 -119l65 -100h-121l-52 80q-42 64 -70 83t-83 21h-110v-184h-108v700zM217 598v-313h133q84 0 137.5 39.5t53.5 117.5q0 76 -54 116t-137 40h-133z" />
    <glyph glyph-name="S" unicode="S" horiz-adv-x="669" 
d="M321 707h9q73 0 142 -31.5t119 -84.5l-70 -65q-37 36 -90.5 58t-100.5 22h-9q-54 0 -98 -26t-44 -75q0 -38 33.5 -57.5t99.5 -28.5l66 -8q114 -14 175 -62t61 -145q0 -95 -75.5 -152.5t-189.5 -58.5h-5q-100 0 -175.5 41t-114.5 106l70 65q26 -47 83.5 -79t136.5 -32h5
q70 1 113.5 30.5t43.5 79.5t-36 74t-106 33l-66 8q-227 27 -227 183q0 92 72 148t178 57z" />
    <glyph glyph-name="T" unicode="T" horiz-adv-x="606" 
d="M356 598v-598h-108v598h-204v102h517v-102h-205z" />
    <glyph glyph-name="U" unicode="U" horiz-adv-x="777" 
d="M678 700v-403q0 -142 -81 -223t-204 -81t-203.5 81t-80.5 223v403h108v-400q0 -102 48.5 -153.5t127.5 -51.5t128 51.5t49 153.5v400h108z" />
    <glyph glyph-name="V" unicode="V" horiz-adv-x="732" 
d="M398 0h-63l-291 700h119l203 -501l201 501h120z" />
    <glyph glyph-name="W" unicode="W" horiz-adv-x="1166" 
d="M841 0h-62l-196 481l-196 -481h-63l-280 700h119l191 -500l197 500h63l197 -500l191 500h119z" />
    <glyph glyph-name="X" unicode="X" horiz-adv-x="707" 
d="M352 264l-184 -264h-124l248 363l-234 337h124l173 -243l169 243h124l-234 -342l248 -358h-124z" />
    <glyph glyph-name="Y" unicode="Y" horiz-adv-x="713" 
d="M410 0h-108v237l-258 463h123l189 -331l189 331h123l-258 -463v-237z" />
    <glyph glyph-name="Z" unicode="Z" horiz-adv-x="627" 
d="M572 0h-518v62l359 536h-329v102h480v-62l-359 -536h367v-102z" />
    <glyph glyph-name="bracketleft" unicode="[" horiz-adv-x="291" 
d="M167 -38h65v-102h-173v890h173v-102h-65v-686z" />
    <glyph glyph-name="backslash" unicode="\" horiz-adv-x="441" 
d="M382 0h-64l-259 700h65z" />
    <glyph glyph-name="bracketright" unicode="]" horiz-adv-x="291" 
d="M59 648v102h173v-890h-173v102h65v686h-65z" />
    <glyph glyph-name="asciicircum" unicode="^" horiz-adv-x="520" 
d="M461 384h-67l-134 206l-134 -206h-67l201 308z" />
    <glyph glyph-name="underscore" unicode="_" horiz-adv-x="533" 
d="M474 -108h-415v50h415v-50z" />
    <glyph glyph-name="grave" unicode="`" horiz-adv-x="309" 
d="M171 728l79 -132h-77l-114 132h112z" />
    <glyph glyph-name="a" unicode="a" 
d="M564 0h-68l-6 92q-28 -45 -77 -71.5t-107 -26.5q-106 0 -176.5 74.5t-70.5 181.5q0 108 70.5 182.5t176.5 74.5q58 0 107 -27t77 -72l6 92h68v-500zM315 90q64 0 110.5 45.5t46.5 114.5q0 70 -46.5 115.5t-110.5 45.5t-110 -45.5t-46 -115.5t46 -115t110 -45z" />
    <glyph glyph-name="b" unicode="b" 
d="M189 700v-275q24 37 66.5 59.5t91.5 22.5q106 0 176.5 -74.5t70.5 -182.5q0 -107 -70.5 -181.5t-176.5 -74.5q-58 0 -107 26.5t-77 71.5l-6 -92h-68v700h100zM339 411q-64 0 -110.5 -45.5t-46.5 -115.5q0 -69 46.5 -114.5t110.5 -45.5t110 45t46 115t-46 115.5t-110 45.5
z" />
    <glyph glyph-name="c" unicode="c" horiz-adv-x="566" 
d="M315 506q120 0 197 -92l-60 -65q-58 61 -137 61q-64 0 -110 -45t-46 -115t46 -115t110 -45q77 0 137 61l60 -65q-77 -92 -197 -92q-107 0 -181.5 75t-74.5 181t74.5 181t181.5 75z" />
    <glyph glyph-name="d" unicode="d" 
d="M564 0h-68l-6 92q-28 -45 -77 -71.5t-107 -26.5q-106 0 -176.5 74.5t-70.5 181.5q0 108 70.5 182.5t176.5 74.5q49 0 91.5 -22.5t66.5 -59.5v275h100v-700zM315 90q64 0 110.5 45.5t46.5 114.5q0 70 -46.5 115.5t-110.5 45.5t-110 -45.5t-46 -115.5t46 -115t110 -45z" />
    <glyph glyph-name="e" unicode="e" horiz-adv-x="605" 
d="M312 507q80 0 137 -37t85 -104q14 -31 16 -72.5t-7 -69.5h-381q0 -64 43.5 -101.5t112.5 -37.5q87 0 161 44l54 -58q-101 -77 -215 -77q-115 0 -187 72t-72 184q0 109 69.5 183t183.5 74zM313 416q-62 0 -103 -37.5t-44 -90.5h287q0 26 -12 49q-16 36 -49.5 57.5
t-78.5 21.5z" />
    <glyph glyph-name="f" unicode="f" horiz-adv-x="401" 
d="M351 705v-90h-9q-113 0 -113 -98v-17h122v-96h-123v-405h-100v405h-69v96h70v19q0 95 59 144t149 43z" />
    <glyph glyph-name="g" unicode="g" horiz-adv-x="648" 
d="M301 507q58 0 106.5 -26t77.5 -71l5 90h69v-437q0 -113 -66 -183.5t-181 -70.5q-124 0 -218 77l57 61q79 -47 161 -47q69 0 107.5 36.5t38.5 105.5v43q-25 -37 -66.5 -58.5t-90.5 -21.5q-105 0 -176 73.5t-71 177.5q0 103 71 177t176 74zM310 411q-63 0 -109.5 -44.5
t-46.5 -110.5t46 -110.5t110 -44.5t110.5 44.5t46.5 110.5t-46.5 110.5t-110.5 44.5z" />
    <glyph glyph-name="h" unicode="h" horiz-adv-x="656" 
d="M354 507q104 0 161 -64.5t57 -176.5v-266h-100v261q0 150 -133 150q-67 0 -106 -43.5t-39 -125.5v-242h-100v700h100v-276q25 42 68 62.5t92 20.5z" />
    <glyph glyph-name="i" unicode="i" horiz-adv-x="302" 
d="M154 553q-25 0 -42.5 15.5t-17.5 38.5t17.5 38t42.5 15t42 -15.5t17 -37.5q0 -23 -17 -38.5t-42 -15.5zM103 0v500h100v-500h-100z" />
    <glyph glyph-name="j" unicode="j" horiz-adv-x="302" 
d="M154 660q25 0 42 -15.5t17 -37.5q0 -23 -17 -38.5t-42 -15.5t-42.5 15.5t-17.5 38.5t17.5 38t42.5 15zM203 -184h-100v684h100v-684z" />
    <glyph glyph-name="k" unicode="k" horiz-adv-x="595" 
d="M449 0l-84 130q-31 47 -52 63t-63 16h-56v-209h-100v700h100v-394h48q43 0 63.5 16t51.5 64l75 114h111l-102 -156q-49 -72 -81 -85q39 -12 88 -88l112 -171h-111z" />
    <glyph glyph-name="l" unicode="l" horiz-adv-x="281" 
d="M94 0v700h100v-700h-100z" />
    <glyph glyph-name="m" unicode="m" horiz-adv-x="1030" 
d="M728 507q104 0 161 -64.5t57 -176.5v-266h-100v261q0 150 -133 150q-68 0 -107 -43.5t-39 -125.5v-242h-100v261q0 150 -133 150q-67 0 -106 -43.5t-39 -125.5v-242h-100v500h68l7 -96q27 51 76.5 77t108.5 26q68 0 116.5 -30t70.5 -86q25 57 76.5 86.5t115.5 29.5z" />
    <glyph glyph-name="n" unicode="n" horiz-adv-x="651" 
d="M349 507q104 0 161 -64.5t57 -176.5v-266h-100v261q0 150 -133 150q-67 0 -106 -43.5t-39 -125.5v-242h-100v500h68l7 -96q27 51 76.5 77t108.5 26z" />
    <glyph glyph-name="o" unicode="o" horiz-adv-x="631" 
d="M315 507q107 0 182 -75.5t75 -181.5t-75 -181t-182 -75t-181.5 75t-74.5 181q0 107 75 182t181 75zM315 411q-64 0 -110 -45.5t-46 -115.5t46 -115t110 -45t110.5 45.5t46.5 114.5q0 70 -46.5 115.5t-110.5 45.5z" />
    <glyph glyph-name="p" unicode="p" horiz-adv-x="638" 
d="M332 506q106 0 176.5 -74.5t70.5 -181.5q0 -108 -70.5 -182.5t-176.5 -74.5q-49 0 -91 22.5t-67 60.5v-260h-100v684h68l6 -92q28 45 77 71.5t107 26.5zM323 410q-64 0 -110.5 -45.5t-46.5 -114.5t46.5 -114.5t110.5 -45.5t110 45t46 115t-46 115t-110 45z" />
    <glyph glyph-name="q" unicode="q" 
d="M564 -184h-100v260q-25 -38 -67 -60.5t-91 -22.5q-106 0 -176.5 74.5t-70.5 182.5q0 107 70.5 181.5t176.5 74.5q58 0 107 -26.5t77 -71.5l6 92h68v-684zM315 90q64 0 110.5 45.5t46.5 114.5t-46.5 114.5t-110.5 45.5t-110 -45t-46 -115t46 -115t110 -45z" />
    <glyph glyph-name="r" unicode="r" horiz-adv-x="432" 
d="M398 411h-40q-85 0 -127 -52t-42 -139v-220h-100v500h68l11 -122q60 129 213 129h17v-96z" />
    <glyph glyph-name="s" unicode="s" horiz-adv-x="550" 
d="M269 507h10q59 0 114.5 -25.5t87.5 -67.5l-57 -53q-24 29 -66 47.5t-78 18.5h-8q-44 -1 -71.5 -18t-27.5 -47q0 -26 20.5 -40t74.5 -19l46 -5q177 -15 177 -152q0 -67 -55 -109.5t-143 -42.5h-6q-72 0 -135.5 27t-92.5 71l57 54q22 -31 70.5 -51t99.5 -20h4q45 0 73 17
t28 51q0 37 -24 51t-73 19l-43 5q-178 16 -178 138q0 69 56 109.5t140 41.5z" />
    <glyph glyph-name="t" unicode="t" horiz-adv-x="347" 
d="M228 404v-404h-100v404h-69v96h69v168h100v-168h70v-96h-70z" />
    <glyph glyph-name="u" unicode="u" horiz-adv-x="646" 
d="M562 0h-68l-7 96q-26 -51 -76 -77t-109 -26q-104 0 -161 64.5t-57 176.5v266h100v-261q0 -150 133 -150q67 0 106.5 43.5t39.5 125.5v242h99v-500z" />
    <glyph glyph-name="v" unicode="v" horiz-adv-x="593" 
d="M327 0h-62l-231 500h106l156 -351l157 351h105z" />
    <glyph glyph-name="w" unicode="w" horiz-adv-x="950" 
d="M691 0h-63l-153 338l-154 -338h-63l-224 500h106l149 -350l155 350h62l154 -350l150 350h105z" />
    <glyph glyph-name="x" unicode="x" horiz-adv-x="588" 
d="M292 176l-142 -176h-116l202 259l-191 241h116l134 -162l131 162h116l-191 -245l202 -255h-116z" />
    <glyph glyph-name="y" unicode="y" horiz-adv-x="651" 
d="M567 500v-437q0 -113 -65.5 -183.5t-180.5 -70.5q-126 0 -218 77l57 61q78 -47 161 -47q69 0 107.5 37t38.5 105v46q-25 -42 -68.5 -62.5t-91.5 -20.5q-104 0 -161 64t-57 176v255h100v-249q0 -150 133 -150q68 0 107 43.5t39 125.5v230h99z" />
    <glyph glyph-name="z" unicode="z" horiz-adv-x="547" 
d="M488 0h-429l1 73l273 331h-251v96h395v-73l-274 -331h285v-96z" />
    <glyph glyph-name="braceleft" unicode="{" horiz-adv-x="395" 
d="M336 648h-23q-21 0 -36 -16t-15 -40v-144q0 -54 -21.5 -91t-67.5 -47q46 -10 67.5 -43.5t21.5 -80.5v-168q0 -24 15 -40t36 -16h23v-101h-40q-63 0 -102 38.5t-40 105.5l-1 155q-1 57 -22.5 79t-66.5 24h-5v94h5q46 1 67 22.5t22 78.5l1 148q1 67 40 105.5t102 38.5h40
v-102z" />
    <glyph glyph-name="bar" unicode="|" horiz-adv-x="188" 
d="M129 -60h-70v760h70v-760z" />
    <glyph glyph-name="braceright" unicode="}" horiz-adv-x="395" 
d="M59 750h40q63 0 102 -38.5t40 -105.5l1 -148q1 -57 22.5 -78.5t66.5 -22.5h5v-94h-5q-45 -2 -66.5 -24t-22.5 -79l-1 -155q-1 -67 -40 -105.5t-102 -38.5h-40v101h23q21 0 36.5 16t15.5 40v168q0 105 88 124q-46 10 -67.5 47t-21.5 91v144q0 24 -15 40t-36 16h-23v102z
" />
    <glyph glyph-name="asciitilde" unicode="~" horiz-adv-x="545" 
d="M486 329l-43 -79q-17 -32 -45 -44.5t-54.5 -8.5t-50.5 18l-61 36q-25 16 -53.5 15t-43.5 -24l-20 -31h-56l43 79q17 32 45 44.5t54.5 8.5t50.5 -18l61 -36q25 -16 53.5 -15t42.5 24l21 31h56z" />
    <glyph glyph-name="exclamdown" unicode="&#xa1;" horiz-adv-x="241" 
d="M121 547q25 0 43 -16.5t18 -39.5t-17.5 -39t-43.5 -16t-44 16t-18 39t18 39.5t44 16.5zM67 -160v285l10 236h88l10 -237v-284h-108z" />
    <glyph glyph-name="cent" unicode="&#xa2;" horiz-adv-x="571" 
d="M343 408v-316q61 9 109 59l60 -65q-66 -79 -169 -90v-94h-64v94q-94 14 -157 85.5t-63 168.5t63 168.5t157 85.5v97h64v-97q103 -11 169 -90l-60 -65q-48 51 -109 59zM159 250q0 -59 34 -101.5t86 -54.5v312q-52 -12 -86 -54.5t-34 -101.5z" />
    <glyph glyph-name="sterling" unicode="&#xa3;" horiz-adv-x="682" 
d="M430 283h-182q17 -71 11 -113.5t-46 -67.5h361v-102h-514v69q49 26 70 55t21 67t-10 92h-82v101h63q-8 49 -15 103q-9 109 63.5 164.5t184.5 55.5h9q72 -1 140.5 -32t117.5 -84l-70 -65q-38 36 -91 58t-101 22l-9 -1q-25 0 -48 -5.5t-46 -19t-34.5 -42t-6.5 -68.5
q7 -56 13 -86h201v-101z" />
    <glyph glyph-name="currency" unicode="&#xa4;" horiz-adv-x="615" 
d="M555 473l-61 -60q48 -62 48 -141t-48 -141l60 -60l-45 -45l-60 60q-62 -48 -141 -48t-141 48l-60 -61l-46 46l61 60q-48 62 -48 141t48 141l-61 60l45 46l61 -61q62 48 141 48t141 -48l60 60zM248 159q41 -26 92.5 -11t75.5 64q23 52 8 99t-58 73q-42 25 -93.5 10.5
t-74.5 -64.5q-24 -51 -9 -98.5t59 -72.5z" />
    <glyph glyph-name="yen" unicode="&#xa5;" horiz-adv-x="742" 
d="M456 292h163v-94h-194v-198h-108v198h-195v94h164l-227 408h123l189 -331l189 331h123z" />
    <glyph glyph-name="brokenbar" unicode="&#xa6;" horiz-adv-x="188" 
d="M129 371h-70v329h70v-329zM129 -60h-70v328h70v-328z" />
    <glyph glyph-name="section" unicode="&#xa7;" horiz-adv-x="550" 
d="M266 624h13q59 0 114.5 -25.5t87.5 -67.5l-57 -53q-24 29 -66 47.5t-78 18.5h-10q-43 -1 -70 -18t-27 -47q0 -24 15 -38.5t56 -18.5l44 -4q90 -2 146.5 -40t56.5 -115q0 -59 -45 -99q31 -31 31 -82q0 -69 -54.5 -109t-137.5 -42h-13q-60 0 -115.5 25.5t-86.5 67.5l57 53
q23 -29 65 -47.5t78 -18.5h8q44 1 71.5 18t27.5 47q0 24 -14.5 38.5t-55.5 18.5l-45 4q-38 1 -71.5 9t-64.5 25t-49 48t-18 73q0 59 45 99q-31 31 -31 82q0 69 55 109t138 42zM190 347q-31 -18 -31 -51q0 -61 96 -71l44 -5q37 -3 61 -12q31 18 31 51q0 61 -97 71l-43 5
q-35 3 -61 12z" />
    <glyph glyph-name="dieresis" unicode="&#xa8;" horiz-adv-x="449" 
d="M119 624q-25 0 -42.5 15t-17.5 38t17.5 38.5t42.5 15.5t42 -15.5t17 -38.5q0 -22 -17 -37.5t-42 -15.5zM331 624q-25 0 -42.5 15t-17.5 38t17.5 38.5t42.5 15.5t42 -15.5t17 -38.5q0 -22 -17 -37.5t-42 -15.5z" />
    <glyph glyph-name="copyright" unicode="&#xa9;" horiz-adv-x="654" 
d="M327 700q112 0 190 -79.5t78 -190.5t-78 -190.5t-190 -79.5t-190 79.5t-78 190.5t78 190.5t190 79.5zM327 657q-95 0 -159.5 -66.5t-64.5 -160.5t64.5 -161t159.5 -67t160 66.5t65 161.5q0 94 -65 160.5t-160 66.5zM327 592q77 0 125 -58l-37 -40q-41 39 -88 39
q-40 0 -70 -29.5t-30 -73.5q0 -43 30 -72.5t70 -29.5q46 0 87 39l38 -41q-50 -58 -125 -58q-67 0 -114.5 47t-47.5 115t47.5 115t114.5 47z" />
    <glyph glyph-name="guillemotleft" unicode="&#xab;" horiz-adv-x="462" 
d="M240 337l-86 -74l86 -73v-91l-181 164l181 165v-91zM403 337l-86 -74l86 -73v-91l-181 164l181 165v-91z" />
    <glyph glyph-name="logicalnot" unicode="&#xac;" horiz-adv-x="532" 
d="M404 250h-345v64h414v-173h-69v109z" />
    <glyph glyph-name="registered" unicode="&#xae;" horiz-adv-x="654" 
d="M327 700q112 0 190 -79.5t78 -190.5t-78 -190.5t-190 -79.5t-190 79.5t-78 190.5t78 190.5t190 79.5zM327 657q-95 0 -159.5 -66.5t-64.5 -160.5t64.5 -161t159.5 -67t160 66.5t65 161.5q0 94 -65 160.5t-160 66.5zM191 584h156q65 0 93.5 -30t28.5 -75q0 -34 -20 -58.5
t-58 -30.5l84 -113h-65l-79 102h-80v-102h-60v307zM252 527v-96h101q57 0 57 48t-57 48h-101z" />
    <glyph glyph-name="macron" unicode="&#xaf;" horiz-adv-x="376" 
d="M317 653h-258v75h258v-75z" />
    <glyph glyph-name="degree" unicode="&#xb0;" horiz-adv-x="365" 
d="M183 731q51 0 87 -36.5t36 -87.5t-36 -87.5t-87 -36.5q-52 0 -88 36.5t-36 87.5t36 87.5t88 36.5zM183 673q-27 0 -46 -19t-19 -47t19 -47t46 -19t45.5 19t18.5 47t-18.5 47t-45.5 19z" />
    <glyph glyph-name="plusminus" unicode="&#xb1;" horiz-adv-x="532" 
d="M301 388h172v-64h-172v-114h-70v114h-172v64h172v114h70v-114zM473 105h-414v64h414v-64z" />
    <glyph glyph-name="acute" unicode="&#xb4;" horiz-adv-x="309" 
d="M136 596h-77l79 132h112z" />
    <glyph glyph-name="paragraph" unicode="&#xb6;" horiz-adv-x="640" 
d="M581 635h-54v-798h-70v798h-86v-798h-70v471q-108 0 -175 46t-67 146q0 101 68 150.5t176 49.5h278v-65z" />
    <glyph glyph-name="periodcentered" unicode="&#xb7;" horiz-adv-x="241" 
d="M121 362q26 0 43.5 -18t17.5 -43t-17.5 -43t-43.5 -18q-27 0 -44.5 18t-17.5 43t18 43t44 18z" />
    <glyph glyph-name="cedilla" unicode="&#xb8;" horiz-adv-x="254" 
d="M124 0l-11 -38q30 9 56 -6t26 -54q0 -44 -40 -59.5t-96 14.5v30q27 -16 49.5 -10t22.5 28q0 20 -16 26.5t-48 -6.5l24 75h33z" />
    <glyph glyph-name="guillemotright" unicode="&#xbb;" horiz-adv-x="462" 
d="M240 263l-181 -164v91l86 73l-86 74v91zM403 263l-181 -164v91l86 73l-86 74v91z" />
    <glyph glyph-name="onequarter" unicode="&#xbc;" horiz-adv-x="703" 
d="M144 599l-46 -56l-39 30l106 127h52v-318h-73v217zM209 0h-65l337 700h65zM607 59v-59h-72v59h-174v36l198 223h48v-201h37v-58h-37zM535 226l-99 -109h99v109z" />
    <glyph glyph-name="onehalf" unicode="&#xbd;" horiz-adv-x="763" 
d="M217 382h-73v217l-46 -56l-39 30l106 127h52v-318zM209 0h-65l337 700h65zM703 0h-288v36l161 113q50 34 50 62q0 20 -17 34.5t-44 14.5h-5q-51 0 -92 -41l-45 42q70 65 150 65h5q53 -1 85.5 -30t32.5 -70q0 -36 -22 -62.5t-68 -53.5l-69 -44h166v-66z" />
    <glyph glyph-name="threequarters" unicode="&#xbe;" horiz-adv-x="785" 
d="M324 654l-110 -85q23 0 40 -3q44 -7 66.5 -30t22.5 -57q0 -43 -35 -73.5t-96 -30.5h-5q-88 0 -148 64l41 38q45 -39 94 -39q34 0 56.5 15t22.5 38q0 20 -18.5 32.5t-50.5 11.5q-28 0 -48 -9l-25 20l113 92h-152v62h232v-46zM292 0h-65l337 700h65zM690 59v-59h-72v59
h-174v36l198 223h48v-201h37v-58h-37zM617 226l-99 -109h99v109z" />
    <glyph glyph-name="questiondown" unicode="&#xbf;" horiz-adv-x="655" 
d="M336 441q-26 0 -44 16t-18 40q0 23 18 39t44 16t43.5 -16t17.5 -39q0 -24 -17.5 -40t-43.5 -16zM320 -162h-10q-120 2 -185.5 64.5t-65.5 155.5q0 91 61 146t162 65v85h108v-146q-228 10 -228 -135q0 -58 42 -95t109 -39h7q114 1 206 101l70 -65q-47 -62 -117.5 -99
t-158.5 -38z" />
    <glyph glyph-name="Agrave" unicode="&#xc0;" horiz-adv-x="727" 
d="M410 750h-77l-114 132h112zM682 0h-119l-63 157h-273l-64 -157h-119l289 700h63zM265 259h198l-99 244z" />
    <glyph glyph-name="Aacute" unicode="&#xc1;" horiz-adv-x="727" 
d="M397 750h-77l79 132h112zM682 0h-119l-63 157h-273l-64 -157h-119l289 700h63zM265 259h198l-99 244z" />
    <glyph glyph-name="Acircumflex" unicode="&#xc2;" horiz-adv-x="727" 
d="M509 750h-79l-66 58l-67 -58h-79l97 134h97zM682 0h-119l-63 157h-273l-64 -157h-119l289 700h63zM265 259h198l-99 244z" />
    <glyph glyph-name="Atilde" unicode="&#xc3;" horiz-adv-x="727" 
d="M519 856l-23 -61q-19 -53 -63 -56q-32 -1 -54 17l-41 33q-19 14 -38 13q-21 -1 -31 -31l-7 -21h-48l23 61q19 52 62 55q30 3 55 -17l40 -32q18 -14 36 -13q22 0 34 31l7 21h48zM227 157l-64 -157h-119l289 700h63l286 -700h-119l-63 157h-273zM364 503l-99 -244h198z" />
    <glyph glyph-name="Adieresis" unicode="&#xc4;" horiz-adv-x="727" 
d="M259 750q-25 0 -42.5 15.5t-17.5 38.5q0 22 17.5 37.5t42.5 15.5t42 -15.5t17 -37.5q0 -23 -17 -38.5t-42 -15.5zM471 750q-25 0 -42.5 15.5t-17.5 38.5q0 22 17.5 37.5t42.5 15.5t42 -15.5t17 -37.5q0 -23 -17 -38.5t-42 -15.5zM227 157l-64 -157h-119l289 700h63
l286 -700h-119l-63 157h-273zM364 503l-99 -244h198z" />
    <glyph glyph-name="Aring" unicode="&#xc5;" horiz-adv-x="727" 
d="M363 927q37 0 63 -26t26 -62q0 -37 -26 -63t-63 -26t-62.5 26t-25.5 63q0 36 25.5 62t62.5 26zM364 876q-16 0 -26.5 -11t-10.5 -26q0 -16 10.5 -27t26.5 -11t26 11t10 27q0 15 -10.5 26t-25.5 11zM227 157l-64 -157h-119l289 700h63l286 -700h-119l-63 157h-273z
M364 503l-99 -244h198z" />
    <glyph glyph-name="AE" unicode="&#xc6;" horiz-adv-x="871" 
d="M470 404h323v-102h-323v-200h346v-102h-454v157h-135l-64 -157h-119l289 700h483v-102h-346v-194zM362 500l-97 -241h97v241z" />
    <glyph glyph-name="Ccedilla" unicode="&#xc7;" horiz-adv-x="738" 
d="M419 95q117 0 194 79l70 -65q-108 -116 -264 -116h-2l-9 -31q30 9 56 -6t26 -54q0 -44 -40 -59.5t-96 14.5v30q27 -16 49.5 -10t22.5 28q0 20 -16 26.5t-48 -6.5l22 70q-136 13 -228.5 115t-92.5 240q0 148 104 252.5t252 104.5q156 0 264 -116l-70 -65q-79 79 -194 79
q-105 0 -176.5 -72.5t-71.5 -182.5q0 -111 71.5 -183t176.5 -72z" />
    <glyph glyph-name="Egrave" unicode="&#xc8;" horiz-adv-x="618" 
d="M397 750h-77l-114 132h112zM564 598h-347v-194h323v-102h-323v-200h347v-102h-455v700h455v-102z" />
    <glyph glyph-name="Eacute" unicode="&#xc9;" horiz-adv-x="618" 
d="M341 750h-77l79 132h112zM564 598h-347v-194h323v-102h-323v-200h347v-102h-455v700h455v-102z" />
    <glyph glyph-name="Ecircumflex" unicode="&#xca;" horiz-adv-x="618" 
d="M480 750h-79l-66 58l-67 -58h-79l97 134h97zM564 598h-347v-194h323v-102h-323v-200h347v-102h-455v700h455v-102z" />
    <glyph glyph-name="Edieresis" unicode="&#xcb;" horiz-adv-x="618" 
d="M228 857q25 0 42 -15.5t17 -37.5q0 -23 -17 -38.5t-42 -15.5t-42.5 15.5t-17.5 38.5t17.5 38t42.5 15zM439 857q25 0 42 -15.5t17 -37.5q0 -23 -17 -38.5t-42 -15.5t-42.5 15.5t-17.5 38.5t17.5 38t42.5 15zM564 598h-347v-194h323v-102h-323v-200h347v-102h-455v700h455
v-102z" />
    <glyph glyph-name="Igrave" unicode="&#xcc;" horiz-adv-x="492" 
d="M237 882l79 -132h-77l-114 132h112zM300 102h83v-102h-274v102h83v496h-83v102h274v-102h-83v-496z" />
    <glyph glyph-name="Iacute" unicode="&#xcd;" horiz-adv-x="492" 
d="M247 750h-77l79 132h112zM383 598h-83v-496h83v-102h-274v102h83v496h-83v102h274v-102z" />
    <glyph glyph-name="Icircumflex" unicode="&#xce;" horiz-adv-x="526" 
d="M410 750h-79l-66 58l-67 -58h-79l97 134h97zM400 598h-83v-496h83v-102h-274v102h83v496h-83v102h274v-102z" />
    <glyph glyph-name="Idieresis" unicode="&#xcf;" horiz-adv-x="549" 
d="M169 857q25 0 42 -15.5t17 -37.5q0 -23 -17 -38.5t-42 -15.5t-42.5 15.5t-17.5 38.5q0 22 17.5 37.5t42.5 15.5zM381 857q25 0 42 -15.5t17 -37.5q0 -23 -17 -38.5t-42 -15.5t-42.5 15.5t-17.5 38.5q0 22 17.5 37.5t42.5 15.5zM411 598h-83v-496h83v-102h-274v102h83v496
h-83v102h274v-102z" />
    <glyph glyph-name="Eth" unicode="&#xd0;" horiz-adv-x="818" 
d="M167 700h232q150 0 253 -99t103 -251t-103 -251t-253 -99h-232v319h-58v63h58v318zM275 102h124q107 0 177.5 66.5t70.5 181.5q0 114 -70.5 181t-177.5 67h-124v-216h84v-63h-84v-217z" />
    <glyph glyph-name="Ntilde" unicode="&#xd1;" horiz-adv-x="739" 
d="M305 866q30 3 55 -17l40 -32q18 -14 36 -13q22 0 34 31l7 21h48l-23 -61q-19 -53 -63 -56q-32 -1 -54 17l-41 33q-19 14 -38 13q-21 -1 -31 -31l-7 -21h-48l23 61q19 52 62 55zM640 0h-63l-370 494v-494h-108v700h63l370 -494v494h108v-700z" />
    <glyph glyph-name="Ograve" unicode="&#xd2;" horiz-adv-x="840" 
d="M403 882l79 -132h-77l-114 132h112zM419 707q148 0 252.5 -104.5t104.5 -252.5t-104.5 -252.5t-252.5 -104.5t-252 104.5t-104 252.5t104 252.5t252 104.5zM419 605q-105 0 -176.5 -72.5t-71.5 -182.5q0 -111 71.5 -183t176.5 -72t177 72t72 183q0 110 -72 182.5
t-177 72.5z" />
    <glyph glyph-name="Oacute" unicode="&#xd3;" horiz-adv-x="840" 
d="M431 750h-77l79 132h112zM419 707q148 0 252.5 -104.5t104.5 -252.5t-104.5 -252.5t-252.5 -104.5t-252 104.5t-104 252.5t104 252.5t252 104.5zM419 605q-105 0 -176.5 -72.5t-71.5 -182.5q0 -111 71.5 -183t176.5 -72t177 72t72 183q0 110 -72 182.5t-177 72.5z" />
    <glyph glyph-name="Ocircumflex" unicode="&#xd4;" horiz-adv-x="840" 
d="M565 750h-79l-66 58l-67 -58h-79l97 134h97zM419 707q148 0 252.5 -104.5t104.5 -252.5t-104.5 -252.5t-252.5 -104.5t-252 104.5t-104 252.5t104 252.5t252 104.5zM419 605q-105 0 -176.5 -72.5t-71.5 -182.5q0 -111 71.5 -183t176.5 -72t177 72t72 183q0 110 -72 182.5
t-177 72.5z" />
    <glyph glyph-name="Otilde" unicode="&#xd5;" horiz-adv-x="840" 
d="M572 856l-23 -61q-19 -53 -63 -56q-32 -1 -54 17l-41 33q-19 14 -38 13q-21 -1 -31 -31l-7 -21h-48l23 61q19 52 62 55q30 3 55 -17l40 -32q18 -14 36 -13q22 0 34 31l7 21h48zM419 707q148 0 252.5 -104.5t104.5 -252.5t-104.5 -252.5t-252.5 -104.5t-252 104.5
t-104 252.5t104 252.5t252 104.5zM419 605q-105 0 -176.5 -72.5t-71.5 -182.5q0 -111 71.5 -183t176.5 -72t177 72t72 183q0 110 -72 182.5t-177 72.5z" />
    <glyph glyph-name="Odieresis" unicode="&#xd6;" horiz-adv-x="840" 
d="M315 750q-25 0 -42.5 15.5t-17.5 38.5q0 22 17.5 37.5t42.5 15.5t42 -15.5t17 -37.5q0 -23 -17 -38.5t-42 -15.5zM526 750q-25 0 -42.5 15.5t-17.5 38.5q0 22 17.5 37.5t42.5 15.5t42 -15.5t17 -37.5q0 -23 -17 -38.5t-42 -15.5zM419 707q148 0 252.5 -104.5
t104.5 -252.5t-104.5 -252.5t-252.5 -104.5t-252 104.5t-104 252.5t104 252.5t252 104.5zM419 605q-105 0 -176.5 -72.5t-71.5 -182.5q0 -111 71.5 -183t176.5 -72t177 72t72 183q0 110 -72 182.5t-177 72.5z" />
    <glyph glyph-name="multiply" unicode="&#xd7;" horiz-adv-x="456" 
d="M397 405l-124 -123l124 -124l-46 -45l-123 123l-124 -123l-45 45l123 124l-123 123l45 46l124 -124l123 124z" />
    <glyph glyph-name="Oslash" unicode="&#xd8;" horiz-adv-x="840" 
d="M776 700l-97 -105q97 -103 97 -245q0 -148 -104.5 -252.5t-252.5 -104.5q-126 0 -223 78l-66 -71h-67l97 105q-97 103 -97 245q0 148 104 252.5t252 104.5q124 0 224 -79l66 72h67zM171 350q0 -99 59 -169l343 372q-66 52 -154 52q-105 0 -176.5 -72.5t-71.5 -182.5z
M668 350q0 99 -59 169l-344 -372q66 -52 154 -52q105 0 177 72t72 183z" />
    <glyph glyph-name="Ugrave" unicode="&#xd9;" horiz-adv-x="777" 
d="M381 882l79 -132h-77l-114 132h112zM678 700v-403q0 -142 -81 -223t-204 -81t-203.5 81t-80.5 223v403h108v-400q0 -102 48.5 -153.5t127.5 -51.5t128 51.5t49 153.5v400h108z" />
    <glyph glyph-name="Uacute" unicode="&#xda;" horiz-adv-x="777" 
d="M400 750h-77l79 132h112zM678 700v-403q0 -142 -81 -223t-204 -81t-203.5 81t-80.5 223v403h108v-400q0 -102 48.5 -153.5t127.5 -51.5t128 51.5t49 153.5v400h108z" />
    <glyph glyph-name="Ucircumflex" unicode="&#xdb;" horiz-adv-x="777" 
d="M460 750l-66 58l-67 -58h-79l97 134h97l97 -134h-79zM678 700v-403q0 -142 -81 -223t-204 -81t-203.5 81t-80.5 223v403h108v-400q0 -102 48.5 -153.5t127.5 -51.5t128 51.5t49 153.5v400h108z" />
    <glyph glyph-name="Udieresis" unicode="&#xdc;" horiz-adv-x="777" 
d="M289 750q-25 0 -42.5 15.5t-17.5 38.5q0 22 17.5 37.5t42.5 15.5t42 -15.5t17 -37.5q0 -23 -17 -38.5t-42 -15.5zM500 750q-25 0 -42.5 15.5t-17.5 38.5q0 22 17.5 37.5t42.5 15.5t42 -15.5t17 -37.5q0 -23 -17 -38.5t-42 -15.5zM678 700v-403q0 -142 -81 -223t-204 -81
t-203.5 81t-80.5 223v403h108v-400q0 -102 48.5 -153.5t127.5 -51.5t128 51.5t49 153.5v400h108z" />
    <glyph glyph-name="Yacute" unicode="&#xdd;" horiz-adv-x="713" 
d="M364 750h-77l79 132h112zM410 0h-108v237l-258 463h123l189 -331l189 331h123l-258 -463v-237z" />
    <glyph glyph-name="Thorn" unicode="&#xde;" horiz-adv-x="707" 
d="M217 623h118q140 0 224 -72.5t84 -190.5q0 -119 -84 -191.5t-224 -72.5h-118v-96h-108v700h108v-77zM217 198h125q86 0 142.5 40.5t56.5 121.5q0 79 -57 120t-142 41h-125v-323z" />
    <glyph glyph-name="germandbls" unicode="&#xdf;" horiz-adv-x="657" 
d="M320 707h31q64 0 111.5 -17.5t71.5 -46.5t35 -59.5t11 -62.5q0 -58 -27 -100.5t-76 -59.5q59 -13 92.5 -58.5t33.5 -108.5q0 -90 -64 -145t-193 -56h-97v102h98q153 0 153 110q0 48 -31.5 77t-95.5 29h-80v101h63q121 0 121 95q0 99 -126 99h-35q-63 0 -93.5 -29
t-30.5 -76v-501h-103v516q0 32 11 63t35 61t72 48.5t113 18.5z" />
    <glyph glyph-name="agrave" unicode="&#xe0;" 
d="M314 685l79 -132h-77l-114 132h112zM564 0h-68l-6 92q-28 -45 -77 -71.5t-107 -26.5q-106 0 -176.5 74.5t-70.5 181.5q0 108 70.5 182.5t176.5 74.5q58 0 107 -27t77 -72l6 92h68v-500zM315 90q64 0 110.5 45.5t46.5 114.5q0 70 -46.5 115.5t-110.5 45.5t-110 -45.5
t-46 -115.5t46 -115t110 -45z" />
    <glyph glyph-name="aacute" unicode="&#xe1;" 
d="M331 553h-77l79 132h112zM564 0h-68l-6 92q-28 -45 -77 -71.5t-107 -26.5q-106 0 -176.5 74.5t-70.5 181.5q0 108 70.5 182.5t176.5 74.5q58 0 107 -27t77 -72l6 92h68v-500zM315 90q64 0 110.5 45.5t46.5 114.5q0 70 -46.5 115.5t-110.5 45.5t-110 -45.5t-46 -115.5
t46 -115t110 -45z" />
    <glyph glyph-name="acircumflex" unicode="&#xe2;" 
d="M381 553l-66 59l-67 -58h-79l97 133h97l97 -134h-79zM564 0h-68l-6 92q-28 -45 -77 -71.5t-107 -26.5q-106 0 -176.5 74.5t-70.5 181.5q0 108 70.5 182.5t176.5 74.5q58 0 107 -27t77 -72l6 92h68v-500zM315 90q64 0 110.5 45.5t46.5 114.5q0 70 -46.5 115.5t-110.5 45.5
t-110 -45.5t-46 -115.5t46 -115t110 -45z" />
    <glyph glyph-name="atilde" unicode="&#xe3;" 
d="M471 659l-23 -60q-19 -53 -63 -56q-31 -3 -54 17l-41 33q-22 15 -38 12q-21 -1 -31 -31l-7 -21h-48l23 61q19 53 62 56q30 3 55 -17l40 -33q20 -14 36 -13q22 0 34 31l7 21h48zM564 0h-68l-6 92q-28 -45 -77 -71.5t-107 -26.5q-106 0 -176.5 74.5t-70.5 181.5
q0 108 70.5 182.5t176.5 74.5q58 0 107 -27t77 -72l6 92h68v-500zM315 90q64 0 110.5 45.5t46.5 114.5q0 70 -46.5 115.5t-110.5 45.5t-110 -45.5t-46 -115.5t46 -115t110 -45z" />
    <glyph glyph-name="adieresis" unicode="&#xe4;" 
d="M210 553q-25 0 -42.5 15.5t-17.5 38.5t17.5 38t42.5 15t42 -15.5t17 -37.5q0 -23 -17 -38.5t-42 -15.5zM422 553q-25 0 -42.5 15.5t-17.5 38.5t17.5 38t42.5 15t42 -15.5t17 -37.5q0 -23 -17 -38.5t-42 -15.5zM564 0h-68l-6 92q-28 -45 -77 -71.5t-107 -26.5
q-106 0 -176.5 74.5t-70.5 181.5q0 108 70.5 182.5t176.5 74.5q58 0 107 -27t77 -72l6 92h68v-500zM315 90q64 0 110.5 45.5t46.5 114.5q0 70 -46.5 115.5t-110.5 45.5t-110 -45.5t-46 -115.5t46 -115t110 -45z" />
    <glyph glyph-name="aring" unicode="&#xe5;" 
d="M315 731q37 0 63 -26t26 -63t-26 -63t-63 -26t-62.5 26t-25.5 63t25.5 63t62.5 26zM316 680q-16 0 -26.5 -11.5t-10.5 -26.5t10.5 -26.5t26.5 -11.5q15 0 25.5 11.5t10.5 26.5t-10.5 26.5t-25.5 11.5zM564 0h-68l-6 92q-28 -45 -77 -71.5t-107 -26.5q-106 0 -176.5 74.5
t-70.5 181.5q0 108 70.5 182.5t176.5 74.5q58 0 107 -27t77 -72l6 92h68v-500zM315 90q64 0 110.5 45.5t46.5 114.5q0 70 -46.5 115.5t-110.5 45.5t-110 -45.5t-46 -115.5t46 -115t110 -45z" />
    <glyph glyph-name="ae" unicode="&#xe6;" horiz-adv-x="1018" 
d="M306 507q58 0 107 -27t77 -72l6 92h68v-72q25 36 67.5 57.5t93.5 21.5q80 0 137 -37t85 -104q14 -31 16 -72.5t-7 -69.5h-381q0 -64 43.5 -101.5t112.5 -37.5q87 0 161 44l54 -58q-101 -77 -215 -77q-113 0 -167 78v-72h-68l-6 92q-28 -45 -77 -71.5t-107 -26.5
q-106 0 -176.5 74.5t-70.5 181.5q0 108 70.5 182.5t176.5 74.5zM726 416q-62 0 -103 -37.5t-44 -90.5h287q0 26 -12 49q-16 36 -49.5 57.5t-78.5 21.5zM315 411q-64 0 -110 -45.5t-46 -115.5t46 -115t110 -45t110.5 45.5t46.5 114.5q0 70 -46.5 115.5t-110.5 45.5z" />
    <glyph glyph-name="ccedilla" unicode="&#xe7;" horiz-adv-x="566" 
d="M315 90q77 0 137 61l60 -65q-77 -92 -196 -92l-9 -32q30 9 56 -6t26 -54q0 -44 -40 -59.5t-96 14.5v30q27 -16 49.5 -10t22.5 28q0 20 -16 26.5t-48 -6.5l23 71q-96 11 -160.5 83.5t-64.5 170.5q0 106 74.5 181t181.5 75q120 0 197 -92l-60 -65q-58 61 -137 61
q-64 0 -110 -45t-46 -115t46 -115t110 -45z" />
    <glyph glyph-name="egrave" unicode="&#xe8;" horiz-adv-x="605" 
d="M380 553h-77l-114 132h112zM312 507q80 0 137 -37t85 -104q14 -31 16 -72.5t-7 -69.5h-381q0 -64 43.5 -101.5t112.5 -37.5q87 0 161 44l54 -58q-101 -77 -215 -77q-115 0 -187 72t-72 184q0 109 69.5 183t183.5 74zM313 416q-62 0 -103 -37.5t-44 -90.5h287q0 26 -12 49
q-16 36 -49.5 57.5t-78.5 21.5z" />
    <glyph glyph-name="eacute" unicode="&#xe9;" horiz-adv-x="605" 
d="M325 553h-77l79 132h112zM312 507q80 0 137 -37t85 -104q14 -31 16 -72.5t-7 -69.5h-381q0 -64 43.5 -101.5t112.5 -37.5q87 0 161 44l54 -58q-101 -77 -215 -77q-115 0 -187 72t-72 184q0 109 69.5 183t183.5 74zM313 416q-62 0 -103 -37.5t-44 -90.5h287q0 26 -12 49
q-16 36 -49.5 57.5t-78.5 21.5z" />
    <glyph glyph-name="ecircumflex" unicode="&#xea;" horiz-adv-x="605" 
d="M458 553h-79l-66 58l-67 -57h-79l97 133h97zM312 507q80 0 137 -37t85 -104q14 -31 16 -72.5t-7 -69.5h-381q0 -64 43.5 -101.5t112.5 -37.5q87 0 161 44l54 -58q-101 -77 -215 -77q-115 0 -187 72t-72 184q0 109 69.5 183t183.5 74zM313 416q-62 0 -103 -37.5t-44 -90.5
h287q0 26 -12 49q-16 36 -49.5 57.5t-78.5 21.5z" />
    <glyph glyph-name="edieresis" unicode="&#xeb;" horiz-adv-x="605" 
d="M208 661q25 0 42 -15.5t17 -38.5t-17 -38.5t-42 -15.5t-42.5 15.5t-17.5 38.5t17.5 38.5t42.5 15.5zM420 661q25 0 42 -15.5t17 -38.5t-17 -38.5t-42 -15.5t-42.5 15.5t-17.5 38.5t17.5 38.5t42.5 15.5zM312 507q80 0 137 -37t85 -104q14 -31 16 -72.5t-7 -69.5h-381
q0 -64 43.5 -101.5t112.5 -37.5q87 0 161 44l54 -58q-101 -77 -215 -77q-115 0 -187 72t-72 184q0 109 69.5 183t183.5 74zM313 416q-62 0 -103 -37.5t-44 -90.5h287q0 26 -12 49q-16 36 -49.5 57.5t-78.5 21.5z" />
    <glyph glyph-name="igrave" unicode="&#xec;" horiz-adv-x="374" 
d="M207 685l78 -132h-77l-114 132h113zM178 0v500h100v-500h-100z" />
    <glyph glyph-name="iacute" unicode="&#xed;" horiz-adv-x="374" 
d="M171 553h-77l79 132h112zM112 0v500h100v-500h-100z" />
    <glyph glyph-name="icircumflex" unicode="&#xee;" horiz-adv-x="474" 
d="M288 687l97 -134h-79l-66 59l-67 -58h-79l97 133h97zM290 0h-100v500h100v-500z" />
    <glyph glyph-name="idieresis" unicode="&#xef;" horiz-adv-x="514" 
d="M153 553q-25 0 -42 15.5t-17 38.5q0 22 17 37.5t42 15.5t42.5 -15t17.5 -38t-17.5 -38.5t-42.5 -15.5zM365 553q-25 0 -42.5 15.5t-17.5 38.5t17.5 38t42.5 15t42 -15.5t17 -37.5q0 -23 -17 -38.5t-42 -15.5zM211 0v500h100v-500h-100z" />
    <glyph glyph-name="eth" unicode="&#xf0;" horiz-adv-x="661" 
d="M561 661l-40 -36q51 -66 51 -166v-201q0 -118 -73 -192t-183 -74q-114 0 -185.5 73t-71.5 178q0 104 67 175.5t172 71.5q56 0 103.5 -27.5t70.5 -72.5v69q0 63 -23 103l-63 -56l-35 39l62 55q-34 22 -88 22q-79 1 -161 -47l-57 61q92 77 218 77q95 0 158 -50l42 37z
M315 88q66 0 111.5 44t45.5 111q0 66 -46.5 110.5t-110.5 44.5t-110 -44.5t-46 -110.5q0 -67 45.5 -111t110.5 -44z" />
    <glyph glyph-name="ntilde" unicode="&#xf1;" horiz-adv-x="651" 
d="M481 659l-23 -60q-19 -53 -63 -56q-31 -3 -54 17l-41 33q-22 15 -38 12q-21 -1 -31 -31l-7 -21h-48l23 61q19 53 62 56q30 3 55 -17l40 -33q20 -14 36 -13q22 0 34 31l7 21h48zM349 507q104 0 161 -64.5t57 -176.5v-266h-100v261q0 150 -133 150q-67 0 -106 -43.5
t-39 -125.5v-242h-100v500h68l7 -96q27 51 76.5 77t108.5 26z" />
    <glyph glyph-name="ograve" unicode="&#xf2;" horiz-adv-x="631" 
d="M297 685l79 -132h-77l-114 132h112zM315 507q107 0 182 -75.5t75 -181.5t-75 -181t-182 -75t-181.5 75t-74.5 181q0 107 75 182t181 75zM315 411q-64 0 -110 -45.5t-46 -115.5t46 -115t110 -45t110.5 45.5t46.5 114.5q0 70 -46.5 115.5t-110.5 45.5z" />
    <glyph glyph-name="oacute" unicode="&#xf3;" horiz-adv-x="631" 
d="M321 553h-77l79 132h112zM315 507q107 0 182 -75.5t75 -181.5t-75 -181t-182 -75t-181.5 75t-74.5 181q0 107 75 182t181 75zM315 411q-64 0 -110 -45.5t-46 -115.5t46 -115t110 -45t110.5 45.5t46.5 114.5q0 70 -46.5 115.5t-110.5 45.5z" />
    <glyph glyph-name="ocircumflex" unicode="&#xf4;" horiz-adv-x="631" 
d="M381 553l-66 59l-67 -59h-79l97 134h97l97 -134h-79zM315 507q107 0 182 -75.5t75 -181.5t-75 -181t-182 -75t-181.5 75t-74.5 181q0 107 75 182t181 75zM315 411q-64 0 -110 -45.5t-46 -115.5t46 -115t110 -45t110.5 45.5t46.5 114.5q0 70 -46.5 115.5t-110.5 45.5z" />
    <glyph glyph-name="otilde" unicode="&#xf5;" horiz-adv-x="631" 
d="M467 659l-23 -60q-19 -53 -63 -56q-31 -3 -54 17l-41 33q-22 15 -38 12q-21 -1 -31 -31l-7 -21h-48l23 61q19 53 62 56q30 3 55 -17l40 -33q20 -14 36 -13q22 0 34 31l7 21h48zM315 507q107 0 182 -75.5t75 -181.5t-75 -181t-182 -75t-181.5 75t-74.5 181q0 107 75 182
t181 75zM315 411q-64 0 -110 -45.5t-46 -115.5t46 -115t110 -45t110.5 45.5t46.5 114.5q0 70 -46.5 115.5t-110.5 45.5z" />
    <glyph glyph-name="odieresis" unicode="&#xf6;" horiz-adv-x="631" 
d="M211 553q-25 0 -42.5 15.5t-17.5 38.5t17.5 38t42.5 15t42 -15.5t17 -37.5q0 -23 -17 -38.5t-42 -15.5zM423 553q-25 0 -42.5 15.5t-17.5 38.5t17.5 38t42.5 15t42 -15.5t17 -37.5q0 -23 -17 -38.5t-42 -15.5zM315 507q107 0 182 -75.5t75 -181.5t-75 -181t-182 -75
t-181.5 75t-74.5 181q0 107 75 182t181 75zM315 411q-64 0 -110 -45.5t-46 -115.5t46 -115t110 -45t110.5 45.5t46.5 114.5q0 70 -46.5 115.5t-110.5 45.5z" />
    <glyph glyph-name="divide" unicode="&#xf7;" horiz-adv-x="532" 
d="M267 480q25 0 43 -16.5t18 -39.5t-17.5 -39t-43.5 -16t-44 16t-18 39t18 39.5t44 16.5zM473 226h-414v63h414v-63zM267 145q25 0 43 -16.5t18 -39.5t-17.5 -39t-43.5 -16t-44 16t-18 39t18 39.5t44 16.5z" />
    <glyph glyph-name="oslash" unicode="&#xf8;" horiz-adv-x="631" 
d="M572 500l-68 -76q68 -74 68 -174q0 -106 -75 -181t-182 -75q-85 0 -151 49l-38 -43h-67l68 76q-68 74 -68 174q0 107 75 182t181 75q85 0 151 -49l38 42h68zM159 250q0 -57 33 -100l210 235q-40 26 -87 26q-64 0 -110 -45.5t-46 -115.5zM472 250q0 57 -33 100l-210 -234
q38 -26 86 -26q64 0 110.5 45.5t46.5 114.5z" />
    <glyph glyph-name="ugrave" unicode="&#xf9;" horiz-adv-x="646" 
d="M375 553h-77l-114 132h112zM562 0h-68l-7 96q-26 -51 -76 -77t-109 -26q-104 0 -161 64.5t-57 176.5v266h100v-261q0 -150 133 -150q67 0 106.5 43.5t39.5 125.5v242h99v-500z" />
    <glyph glyph-name="uacute" unicode="&#xfa;" horiz-adv-x="646" 
d="M428 685l-114 -132h-77l79 132h112zM562 0h-68l-7 96q-26 -51 -76 -77t-109 -26q-104 0 -161 64.5t-57 176.5v266h100v-261q0 -150 133 -150q67 0 106.5 43.5t39.5 125.5v242h99v-500z" />
    <glyph glyph-name="ucircumflex" unicode="&#xfb;" horiz-adv-x="646" 
d="M384 553l-66 59l-67 -58h-79l97 133h97l97 -134h-79zM562 0h-68l-7 96q-26 -51 -76 -77t-109 -26q-104 0 -161 64.5t-57 176.5v266h100v-261q0 -150 133 -150q67 0 106.5 43.5t39.5 125.5v242h99v-500z" />
    <glyph glyph-name="udieresis" unicode="&#xfc;" horiz-adv-x="646" 
d="M216 660q25 0 42 -15.5t17 -37.5q0 -23 -17 -38.5t-42 -15.5t-42.5 15.5t-17.5 38.5t17.5 38t42.5 15zM427 660q25 0 42 -15.5t17 -37.5q0 -23 -17 -38.5t-42 -15.5t-42.5 15.5t-17.5 38.5t17.5 38t42.5 15zM562 0h-68l-7 96q-26 -51 -76 -77t-109 -26q-104 0 -161 64.5
t-57 176.5v266h100v-261q0 -150 133 -150q67 0 106.5 43.5t39.5 125.5v242h99v-500z" />
    <glyph glyph-name="yacute" unicode="&#xfd;" horiz-adv-x="651" 
d="M320 553h-77l79 132h112zM567 500v-437q0 -113 -65.5 -183.5t-180.5 -70.5q-126 0 -218 77l57 61q78 -47 161 -47q69 0 107.5 37t38.5 105v46q-25 -42 -68.5 -62.5t-91.5 -20.5q-104 0 -161 64t-57 176v255h100v-249q0 -150 133 -150q68 0 107 43.5t39 125.5v230h99z" />
    <glyph glyph-name="thorn" unicode="&#xfe;" horiz-adv-x="655" 
d="M191 700v-276q24 37 66.5 59.5t91.5 22.5q106 0 176.5 -74.5t70.5 -181.5q0 -108 -70.5 -182.5t-176.5 -74.5q-49 0 -91 22.5t-67 60.5v-260h-100v884h100zM341 410q-64 0 -110.5 -45.5t-46.5 -114.5t46.5 -114.5t110.5 -45.5t110 45t46 115t-46 115t-110 45z" />
    <glyph glyph-name="ydieresis" unicode="&#xff;" horiz-adv-x="651" 
d="M218 660q25 0 42 -15.5t17 -37.5q0 -23 -17 -38.5t-42 -15.5t-42.5 15.5t-17.5 38.5t17.5 38t42.5 15zM430 660q25 0 42 -15.5t17 -37.5q0 -23 -17 -38.5t-42 -15.5t-42.5 15.5t-17.5 38.5t17.5 38t42.5 15zM189 500v-249q0 -150 133 -150q68 0 107 43.5t39 125.5v230h99
v-437q0 -113 -65.5 -183.5t-180.5 -70.5q-126 0 -218 77l57 61q78 -47 161 -47q69 0 107.5 37t38.5 105v46q-25 -42 -68.5 -62.5t-91.5 -20.5q-104 0 -161 64t-57 176v255h100z" />
    <glyph glyph-name="Amacron" unicode="&#x100;" horiz-adv-x="727" 
d="M493 750h-258v75h258v-75zM227 157l-64 -157h-119l289 700h63l286 -700h-119l-63 157h-273zM364 503l-99 -244h198z" />
    <glyph glyph-name="amacron" unicode="&#x101;" 
d="M454 553h-258v75h258v-75zM564 0h-68l-6 92q-28 -45 -77 -71.5t-107 -26.5q-106 0 -176.5 74.5t-70.5 181.5q0 108 70.5 182.5t176.5 74.5q58 0 107 -27t77 -72l6 92h68v-500zM315 90q64 0 110.5 45.5t46.5 114.5q0 70 -46.5 115.5t-110.5 45.5t-110 -45.5t-46 -115.5
t46 -115t110 -45z" />
    <glyph glyph-name="Abreve" unicode="&#x102;" horiz-adv-x="727" 
d="M444 891h70q0 -60 -43.5 -100.5t-106.5 -40.5t-106.5 40.5t-43.5 100.5h70q0 -30 23 -50.5t57 -20.5t57 20.5t23 50.5zM682 0h-119l-63 157h-273l-64 -157h-119l289 700h63zM265 259h198l-99 244z" />
    <glyph glyph-name="abreve" unicode="&#x103;" 
d="M395 694h70q0 -60 -43.5 -100.5t-106.5 -40.5t-106.5 40.5t-43.5 100.5h70q0 -30 23 -50t57 -20t57 20t23 50zM306 507q58 0 107 -27t77 -72l6 92h68v-500h-68l-6 92q-28 -45 -77 -71.5t-107 -26.5q-106 0 -176.5 74.5t-70.5 181.5q0 108 70.5 182.5t176.5 74.5zM315 411
q-64 0 -110 -45.5t-46 -115.5t46 -115t110 -45t110.5 45.5t46.5 114.5q0 70 -46.5 115.5t-110.5 45.5z" />
    <glyph glyph-name="Aogonek" unicode="&#x104;" horiz-adv-x="727" 
d="M617 -61q0 -19 14.5 -29.5t37.5 -10.5h12v-63h-7q-43 0 -72.5 19.5t-29.5 58.5q0 54 78 86h-87l-63 157h-273l-64 -157h-119l289 700h63l286 -700q-65 -25 -65 -61zM463 259l-99 244l-99 -244h198z" />
    <glyph glyph-name="aogonek" unicode="&#x105;" 
d="M564 500v-500q-65 -25 -65 -61q0 -19 14.5 -29.5t37.5 -10.5h12v-63h-7q-43 0 -72.5 19.5t-29.5 58.5q0 54 78 86h-36l-6 92q-28 -45 -77 -71.5t-107 -26.5q-106 0 -176.5 74.5t-70.5 181.5q0 108 70.5 182.5t176.5 74.5q58 0 107 -27t77 -72l6 92h68zM315 90
q64 0 110.5 45.5t46.5 114.5q0 70 -46.5 115.5t-110.5 45.5t-110 -45.5t-46 -115.5t46 -115t110 -45z" />
    <glyph glyph-name="Cacute" unicode="&#x106;" horiz-adv-x="738" 
d="M419 750h-77l79 132h112zM419 707q156 0 264 -116l-70 -65q-79 79 -194 79q-105 0 -176.5 -72.5t-71.5 -182.5q0 -111 71.5 -183t176.5 -72q117 0 194 79l70 -65q-108 -116 -264 -116q-148 0 -252 104.5t-104 252.5t104 252.5t252 104.5z" />
    <glyph glyph-name="cacute" unicode="&#x107;" horiz-adv-x="566" 
d="M306 553h-77l79 132h112zM315 506q120 0 197 -92l-60 -65q-58 61 -137 61q-64 0 -110 -45t-46 -115t46 -115t110 -45q77 0 137 61l60 -65q-77 -92 -197 -92q-107 0 -181.5 75t-74.5 181t74.5 181t181.5 75z" />
    <glyph glyph-name="Cdotaccent" unicode="&#x10a;" horiz-adv-x="738" 
d="M420 857q25 0 42 -15.5t17 -37.5q0 -23 -17 -38.5t-42 -15.5t-42.5 15.5t-17.5 38.5q0 22 17.5 37.5t42.5 15.5zM419 707q156 0 264 -116l-70 -65q-79 79 -194 79q-105 0 -176.5 -72.5t-71.5 -182.5q0 -111 71.5 -183t176.5 -72q117 0 194 79l70 -65q-108 -116 -264 -116
q-148 0 -252 104.5t-104 252.5t104 252.5t252 104.5z" />
    <glyph glyph-name="cdotaccent" unicode="&#x10b;" horiz-adv-x="566" 
d="M315 660q25 0 42 -15.5t17 -37.5q0 -23 -17 -38.5t-42 -15.5t-42.5 15.5t-17.5 38.5t17.5 38t42.5 15zM315 506q120 0 197 -92l-60 -65q-58 61 -137 61q-64 0 -110 -45t-46 -115t46 -115t110 -45q77 0 137 61l60 -65q-77 -92 -197 -92q-107 0 -181.5 75t-74.5 181
t74.5 181t181.5 75z" />
    <glyph glyph-name="Ccaron" unicode="&#x10c;" horiz-adv-x="738" 
d="M468 750h-97l-97 133h79l67 -57l66 58h79zM419 707q156 0 264 -116l-70 -65q-79 79 -194 79q-105 0 -176.5 -72.5t-71.5 -182.5q0 -111 71.5 -183t176.5 -72q117 0 194 79l70 -65q-108 -116 -264 -116q-148 0 -252 104.5t-104 252.5t104 252.5t252 104.5z" />
    <glyph glyph-name="ccaron" unicode="&#x10d;" horiz-adv-x="566" 
d="M363 553h-97l-97 134h79l67 -58l66 58h79zM315 506q120 0 197 -92l-60 -65q-58 61 -137 61q-64 0 -110 -45t-46 -115t46 -115t110 -45q77 0 137 61l60 -65q-77 -92 -197 -92q-107 0 -181.5 75t-74.5 181t74.5 181t181.5 75z" />
    <glyph glyph-name="Dcaron" unicode="&#x10e;" horiz-adv-x="760" 
d="M402 750h-97l-97 133h79l67 -57l66 58h79zM109 700h232q150 0 253 -99t103 -251t-103 -251t-253 -99h-232v700zM217 598v-496h124q107 0 177.5 66.5t70.5 181.5q0 114 -70.5 181t-177.5 67h-124z" />
    <glyph glyph-name="dcaron" unicode="&#x10f;" horiz-adv-x="876" 
d="M564 0h-68l-6 92q-28 -45 -77 -71.5t-107 -26.5q-106 0 -176.5 74.5t-70.5 181.5q0 108 70.5 182.5t176.5 74.5q49 0 91.5 -22.5t66.5 -59.5v275h100v-700zM673 569h-77l79 131h112zM315 90q64 0 110.5 45.5t46.5 114.5q0 70 -46.5 115.5t-110.5 45.5t-110 -45.5
t-46 -115.5t46 -115t110 -45z" />
    <glyph glyph-name="Dcroat" unicode="&#x110;" horiz-adv-x="818" 
d="M167 700h232q150 0 253 -99t103 -251t-103 -251t-253 -99h-232v319h-58v63h58v318zM275 102h124q107 0 177.5 66.5t70.5 181.5q0 114 -70.5 181t-177.5 67h-124v-216h84v-63h-84v-217z" />
    <glyph glyph-name="dcroat" unicode="&#x111;" horiz-adv-x="722" 
d="M633 555h-69v-555h-68l-6 92q-28 -45 -77 -71.5t-107 -26.5q-106 0 -176.5 74.5t-70.5 181.5q0 108 70.5 182.5t176.5 74.5q49 0 91.5 -22.5t66.5 -59.5v130h-69v74h69v71h100v-71h69v-74zM315 90q64 0 110.5 45.5t46.5 114.5q0 70 -46.5 115.5t-110.5 45.5t-110 -45.5
t-46 -115.5t46 -115t110 -45z" />
    <glyph glyph-name="Emacron" unicode="&#x112;" horiz-adv-x="618" 
d="M461 750h-258v75h258v-75zM564 598h-347v-194h323v-102h-323v-200h347v-102h-455v700h455v-102z" />
    <glyph glyph-name="emacron" unicode="&#x113;" horiz-adv-x="605" 
d="M441 553h-258v75h258v-75zM312 507q80 0 137 -37t85 -104q14 -31 16 -72.5t-7 -69.5h-381q0 -64 43.5 -101.5t112.5 -37.5q87 0 161 44l54 -58q-101 -77 -215 -77q-115 0 -187 72t-72 184q0 109 69.5 183t183.5 74zM313 416q-62 0 -103 -37.5t-44 -90.5h287q0 26 -12 49
q-16 36 -49.5 57.5t-78.5 21.5z" />
    <glyph glyph-name="Edotaccent" unicode="&#x116;" horiz-adv-x="618" 
d="M332 857q25 0 42 -15.5t17 -37.5q0 -23 -17 -38.5t-42 -15.5t-42.5 15.5t-17.5 38.5q0 22 17.5 37.5t42.5 15.5zM564 598h-347v-194h323v-102h-323v-200h347v-102h-455v700h455v-102z" />
    <glyph glyph-name="edotaccent" unicode="&#x117;" horiz-adv-x="605" 
d="M313 660q25 0 42 -15.5t17 -37.5q0 -23 -17 -38.5t-42 -15.5t-42.5 15.5t-17.5 38.5t17.5 38t42.5 15zM312 507q80 0 137 -37t85 -104q14 -31 16 -72.5t-7 -69.5h-381q0 -64 43.5 -101.5t112.5 -37.5q87 0 161 44l54 -58q-101 -77 -215 -77q-115 0 -187 72t-72 184
q0 109 69.5 183t183.5 74zM313 416q-62 0 -103 -37.5t-44 -90.5h287q0 26 -12 49q-16 36 -49.5 57.5t-78.5 21.5z" />
    <glyph glyph-name="Eogonek" unicode="&#x118;" horiz-adv-x="618" 
d="M217 598v-194h323v-102h-323v-200h347v-102h-1q-65 -25 -65 -61q0 -19 14.5 -29.5t37.5 -10.5h12v-63h-7q-43 0 -72.5 19.5t-29.5 58.5q0 54 78 86h-422v700h455v-102h-347z" />
    <glyph glyph-name="eogonek" unicode="&#x119;" horiz-adv-x="605" 
d="M534 366q14 -31 16 -72.5t-7 -69.5h-381q0 -64 43.5 -101.5t112.5 -37.5q87 0 161 44l54 -58q-73 -56 -157 -72q-63 -24 -63 -60q0 -19 14.5 -29.5t37.5 -10.5h12v-63h-7q-43 0 -72.5 19.5t-29.5 58.5q0 50 65 80h-15q-115 0 -187 72t-72 184q0 109 69.5 183t183.5 74
q80 0 137 -37t85 -104zM166 288h287q0 26 -12 49q-16 36 -49.5 57.5t-78.5 21.5q-62 0 -103 -37.5t-44 -90.5z" />
    <glyph glyph-name="Ecaron" unicode="&#x11a;" horiz-adv-x="618" 
d="M382 750h-97l-97 133h79l67 -57l66 58h79zM564 598h-347v-194h323v-102h-323v-200h347v-102h-455v700h455v-102z" />
    <glyph glyph-name="ecaron" unicode="&#x11b;" horiz-adv-x="605" 
d="M361 553h-97l-97 134h79l67 -58l66 58h79zM312 507q80 0 137 -37t85 -104q14 -31 16 -72.5t-7 -69.5h-381q0 -64 43.5 -101.5t112.5 -37.5q87 0 161 44l54 -58q-101 -77 -215 -77q-115 0 -187 72t-72 184q0 109 69.5 183t183.5 74zM313 416q-62 0 -103 -37.5t-44 -90.5
h287q0 26 -12 49q-16 36 -49.5 57.5t-78.5 21.5z" />
    <glyph glyph-name="Gbreve" unicode="&#x11e;" horiz-adv-x="783" 
d="M499 891h70q0 -60 -43.5 -100.5t-106.5 -40.5t-106.5 40.5t-43.5 100.5h70q0 -30 23 -50.5t57 -20.5t57 20.5t23 50.5zM419 706q156 0 264 -116l-70 -65q-78 80 -194 80q-105 0 -176.5 -72.5t-71.5 -183.5q0 -110 71.5 -182.5t176.5 -72.5q90 0 156 55v145h-160v83h268
v-269q-108 -116 -264 -116q-148 0 -252 104.5t-104 252.5t104 252.5t252 104.5z" />
    <glyph glyph-name="gbreve" unicode="&#x11f;" horiz-adv-x="648" 
d="M390 694h70q0 -60 -43.5 -100.5t-106.5 -40.5t-106.5 40.5t-43.5 100.5h70q0 -30 23 -50t57 -20t57 20t23 50zM301 507q58 0 106.5 -26t77.5 -71l5 90h69v-437q0 -113 -66 -183.5t-181 -70.5q-124 0 -218 77l57 61q79 -47 161 -47q69 0 107.5 36.5t38.5 105.5v43
q-25 -37 -66.5 -58.5t-90.5 -21.5q-105 0 -176 73.5t-71 177.5q0 103 71 177t176 74zM310 411q-63 0 -109.5 -44.5t-46.5 -110.5t46 -110.5t110 -44.5t110.5 44.5t46.5 110.5t-46.5 110.5t-110.5 44.5z" />
    <glyph glyph-name="Gdotaccent" unicode="&#x120;" horiz-adv-x="783" 
d="M420 857q25 0 42 -15.5t17 -37.5q0 -23 -17 -38.5t-42 -15.5t-42.5 15.5t-17.5 38.5q0 22 17.5 37.5t42.5 15.5zM419 706q156 0 264 -116l-70 -65q-78 80 -194 80q-105 0 -176.5 -72.5t-71.5 -183.5q0 -110 71.5 -182.5t176.5 -72.5q90 0 156 55v145h-160v83h268v-269
q-108 -116 -264 -116q-148 0 -252 104.5t-104 252.5t104 252.5t252 104.5z" />
    <glyph glyph-name="gdotaccent" unicode="&#x121;" horiz-adv-x="648" 
d="M310 660q25 0 42 -15.5t17 -37.5q0 -23 -17 -38.5t-42 -15.5t-42.5 15.5t-17.5 38.5t17.5 38t42.5 15zM301 507q58 0 106.5 -26t77.5 -71l5 90h69v-437q0 -113 -66 -183.5t-181 -70.5q-124 0 -218 77l57 61q79 -47 161 -47q69 0 107.5 36.5t38.5 105.5v43
q-25 -37 -66.5 -58.5t-90.5 -21.5q-105 0 -176 73.5t-71 177.5q0 103 71 177t176 74zM310 411q-63 0 -109.5 -44.5t-46.5 -110.5t46 -110.5t110 -44.5t110.5 44.5t46.5 110.5t-46.5 110.5t-110.5 44.5z" />
    <glyph glyph-name="Gcommaaccent" unicode="&#x122;" horiz-adv-x="783" 
d="M419 706q156 0 264 -116l-70 -65q-78 80 -194 80q-105 0 -176.5 -72.5t-71.5 -183.5q0 -110 71.5 -182.5t176.5 -72.5q90 0 156 55v145h-160v83h268v-269q-108 -116 -264 -116q-148 0 -252 104.5t-104 252.5t104 252.5t252 104.5zM377 -200h-77l79 131h112z" />
    <glyph glyph-name="gcommaaccent" unicode="&#x123;" horiz-adv-x="648" 
d="M301 507q58 0 106.5 -26t77.5 -71l5 90h69v-437q0 -113 -66 -183.5t-181 -70.5q-124 0 -218 77l57 61q79 -47 161 -47q69 0 107.5 36.5t38.5 105.5v43q-25 -37 -66.5 -58.5t-90.5 -21.5q-105 0 -176 73.5t-71 177.5q0 103 71 177t176 74zM310 411q-63 0 -109.5 -44.5
t-46.5 -110.5t46 -110.5t110 -44.5t110.5 44.5t46.5 110.5t-46.5 110.5t-110.5 44.5zM273 -381h-77l79 131h112z" />
    <glyph glyph-name="Hbar" unicode="&#x126;" horiz-adv-x="912" 
d="M803 500h-78v-500h-108v302h-322v-302h-108v500h-78v63h78v137h108v-137h322v137h108v-137h78v-63zM617 500h-322v-96h322v96z" />
    <glyph glyph-name="hbar" unicode="&#x127;" horiz-adv-x="731" 
d="M429 507q104 0 161 -64.5t57 -176.5v-266h-100v261q0 150 -133 150q-67 0 -106 -43.5t-39 -125.5v-242h-100v549h-75v70h75v81h100v-81h73v-70h-73v-125q25 42 68 62.5t92 20.5z" />
    <glyph glyph-name="Imacron" unicode="&#x12a;" horiz-adv-x="522" 
d="M389 750h-258v75h258v-75zM315 102h83v-102h-274v102h83v496h-83v102h274v-102h-83v-496z" />
    <glyph glyph-name="imacron" unicode="&#x12b;" horiz-adv-x="441" 
d="M352 553h-258v75h258v-75zM173 0v500h100v-500h-100z" />
    <glyph glyph-name="Iogonek" unicode="&#x12e;" horiz-adv-x="492" 
d="M300 598v-496h83v-102q-65 -25 -65 -61q0 -19 14.5 -29.5t37.5 -10.5h12v-63h-7q-43 0 -72.5 19.5t-29.5 58.5q0 54 78 86h-242v102h83v496h-83v102h274v-102h-83z" />
    <glyph glyph-name="iogonek" unicode="&#x12f;" horiz-adv-x="335" 
d="M187 553q-25 0 -42.5 15.5t-17.5 38.5t17.5 38t42.5 15t42 -15.5t17 -37.5q0 -23 -17 -38.5t-42 -15.5zM136 500h100v-500q-65 -25 -65 -61q0 -19 14.5 -29.5t37.5 -10.5h12v-63h-7q-43 0 -72.5 19.5t-29.5 58.5q0 54 78 86h-68v500z" />
    <glyph glyph-name="Idotaccent" unicode="&#x130;" horiz-adv-x="492" 
d="M247 750q-25 0 -42.5 15.5t-17.5 38.5q0 22 17.5 37.5t42.5 15.5t42 -15.5t17 -37.5q0 -23 -17 -38.5t-42 -15.5zM300 102h83v-102h-274v102h83v496h-83v102h274v-102h-83v-496z" />
    <glyph glyph-name="dotlessi" unicode="&#x131;" horiz-adv-x="283" 
d="M94 0v500h100v-500h-100z" />
    <glyph glyph-name="IJ" unicode="&#x132;" horiz-adv-x="956" 
d="M383 598h-83v-496h83v-102h-274v102h83v496h-83v102h274v-102zM892 700v-453q0 -124 -65.5 -189t-171.5 -65q-107 0 -172.5 65t-65.5 189v34h108v-48q0 -64 35.5 -101t94.5 -37t94.5 37t35.5 101v365h-223v102h330z" />
    <glyph glyph-name="ij" unicode="&#x133;" horiz-adv-x="499" 
d="M154 660q25 0 42 -15.5t17 -37.5q0 -23 -17 -38.5t-42 -15.5t-42.5 15.5t-17.5 38.5t17.5 38t42.5 15zM351 660q25 0 42 -15.5t17 -37.5q0 -23 -17 -38.5t-42 -15.5t-42.5 15.5t-17.5 38.5t17.5 38t42.5 15zM203 0h-100v500h100v-500zM400 -184h-100v684h100v-684z" />
    <glyph glyph-name="Kcommaaccent" unicode="&#x136;" horiz-adv-x="732" 
d="M673 700l-159 -247q-54 -77 -88 -95q23 -8 43.5 -29.5t51.5 -70.5l166 -258h-122l-144 223q-31 48 -51.5 64t-63.5 16h-89v-303h-108v700h108v-293h81q42 0 63 16t53 64l136 213h123zM331 -200h-77l79 131h112z" />
    <glyph glyph-name="kcommaaccent" unicode="&#x137;" horiz-adv-x="595" 
d="M449 0l-84 130q-31 47 -52 63t-63 16h-56v-209h-100v700h100v-394h48q43 0 63.5 16t51.5 64l75 114h111l-102 -156q-49 -72 -81 -85q39 -12 88 -88l112 -171h-111zM272 -200h-77l79 131h112z" />
    <glyph glyph-name="Lacute" unicode="&#x139;" horiz-adv-x="598" 
d="M328 750h-77l79 132h112zM554 0h-445v700h108v-598h337v-102z" />
    <glyph glyph-name="lacute" unicode="&#x13a;" horiz-adv-x="371" 
d="M171 750h-77l79 132h112zM112 700h100v-700h-100v700z" />
    <glyph glyph-name="Lcommaaccent" unicode="&#x13b;" horiz-adv-x="598" 
d="M554 0h-445v700h108v-598h337v-102zM287 -200h-77l79 131h112z" />
    <glyph glyph-name="lcommaaccent" unicode="&#x13c;" horiz-adv-x="371" 
d="M155 700h100v-700h-100v700zM171 -193h-77l79 131h112z" />
    <glyph glyph-name="Lcaron" unicode="&#x13d;" horiz-adv-x="598" 
d="M554 0h-445v700h108v-598h337v-102zM440 569h-77l79 131h112z" />
    <glyph glyph-name="lcaron" unicode="&#x13e;" horiz-adv-x="501" 
d="M94 700h100v-700h-100v700zM301 569h-77l79 131h112z" />
    <glyph glyph-name="Ldot" unicode="&#x13f;" horiz-adv-x="598" 
d="M554 0h-445v700h108v-598h337v-102zM492 296q-27 0 -44.5 18t-17.5 43t17.5 43t44.5 18q26 0 43.5 -18t17.5 -43t-17.5 -43t-43.5 -18z" />
    <glyph glyph-name="ldot" unicode="&#x140;" horiz-adv-x="438" 
d="M94 700h100v-700h-100v700zM290 362q26 0 43.5 -18t17.5 -43t-17.5 -43t-43.5 -18q-27 0 -44.5 18t-17.5 43t18 43t44 18z" />
    <glyph glyph-name="Lslash" unicode="&#x141;" horiz-adv-x="658" 
d="M614 102v-102h-445v363l-60 -26v63l60 26v274h108v-226l59 26v-63l-59 -26v-309h337z" />
    <glyph glyph-name="lslash" unicode="&#x142;" horiz-adv-x="408" 
d="M321 437l-63 -28v-409h-100v365l-64 -28v63l64 28v272h100v-228l63 28v-63z" />
    <glyph glyph-name="Nacute" unicode="&#x143;" horiz-adv-x="739" 
d="M375 750h-77l79 132h112zM640 0h-63l-370 494v-494h-108v700h63l370 -494v494h108v-700z" />
    <glyph glyph-name="nacute" unicode="&#x144;" horiz-adv-x="651" 
d="M342 553h-77l79 132h112zM349 507q104 0 161 -64.5t57 -176.5v-266h-100v261q0 150 -133 150q-67 0 -106 -43.5t-39 -125.5v-242h-100v500h68l7 -96q27 51 76.5 77t108.5 26z" />
    <glyph glyph-name="Ncommaaccent" unicode="&#x145;" horiz-adv-x="739" 
d="M640 0h-63l-370 494v-494h-108v700h63l370 -494v494h108v-700zM335 -200h-77l79 131h112z" />
    <glyph glyph-name="ncommaaccent" unicode="&#x146;" horiz-adv-x="651" 
d="M349 507q104 0 161 -64.5t57 -176.5v-266h-100v261q0 150 -133 150q-67 0 -106 -43.5t-39 -125.5v-242h-100v500h68l7 -96q27 51 76.5 77t108.5 26zM311 -200h-77l79 131h112z" />
    <glyph glyph-name="Ncaron" unicode="&#x147;" horiz-adv-x="739" 
d="M364 826l66 58h79l-97 -134h-97l-97 134h79zM640 0h-63l-370 494v-494h-108v700h63l370 -494v494h108v-700z" />
    <glyph glyph-name="ncaron" unicode="&#x148;" horiz-adv-x="651" 
d="M387 553h-97l-97 134h79l67 -58l66 58h79zM349 507q104 0 161 -64.5t57 -176.5v-266h-100v261q0 150 -133 150q-67 0 -106 -43.5t-39 -125.5v-242h-100v500h68l7 -96q27 51 76.5 77t108.5 26z" />
    <glyph glyph-name="Eng" unicode="&#x14a;" horiz-adv-x="739" 
d="M640 700v-670q0 -112 -56.5 -169t-152.5 -52l-15 1l1 91h9q58 0 86 25.5t28 99.5v23l-333 445v-494h-108v700h63l370 -494v494h108z" />
    <glyph glyph-name="eng" unicode="&#x14b;" horiz-adv-x="651" 
d="M349 507q104 0 161 -64.5t57 -176.5v-236q0 -112 -56 -169t-153 -52l-14 1v91h9q58 0 86 25.5t29 99.5l-1 235q0 150 -133 150q-67 0 -106 -43.5t-39 -125.5v-242h-100v500h68l7 -96q27 51 76.5 77t108.5 26z" />
    <glyph glyph-name="Omacron" unicode="&#x14c;" horiz-adv-x="840" 
d="M549 750h-258v75h258v-75zM419 707q148 0 252.5 -104.5t104.5 -252.5t-104.5 -252.5t-252.5 -104.5t-252 104.5t-104 252.5t104 252.5t252 104.5zM419 605q-105 0 -176.5 -72.5t-71.5 -182.5q0 -111 71.5 -183t176.5 -72t177 72t72 183q0 110 -72 182.5t-177 72.5z" />
    <glyph glyph-name="omacron" unicode="&#x14d;" horiz-adv-x="631" 
d="M443 553h-258v75h258v-75zM315 507q107 0 182 -75.5t75 -181.5t-75 -181t-182 -75t-181.5 75t-74.5 181q0 107 75 182t181 75zM315 411q-64 0 -110 -45.5t-46 -115.5t46 -115t110 -45t110.5 45.5t46.5 114.5q0 70 -46.5 115.5t-110.5 45.5z" />
    <glyph glyph-name="Ohungarumlaut" unicode="&#x150;" horiz-adv-x="840" 
d="M363 750h-77l79 132h112zM519 750h-77l79 132h112zM419 707q148 0 252.5 -104.5t104.5 -252.5t-104.5 -252.5t-252.5 -104.5t-252 104.5t-104 252.5t104 252.5t252 104.5zM419 605q-105 0 -176.5 -72.5t-71.5 -182.5q0 -111 71.5 -183t176.5 -72t177 72t72 183
q0 110 -72 182.5t-177 72.5z" />
    <glyph glyph-name="ohungarumlaut" unicode="&#x151;" horiz-adv-x="635" 
d="M250 553h-77l79 132h112zM406 553h-77l79 132h112zM315 507q107 0 182 -75.5t75 -181.5t-75 -181t-182 -75t-181.5 75t-74.5 181q0 107 75 182t181 75zM315 411q-64 0 -110 -45.5t-46 -115.5t46 -115t110 -45t110.5 45.5t46.5 114.5q0 70 -46.5 115.5t-110.5 45.5z" />
    <glyph glyph-name="OE" unicode="&#x152;" horiz-adv-x="1178" 
d="M776 404h323v-102h-323v-200h347v-102h-455v126q-39 -60 -105.5 -96.5t-143.5 -36.5q-148 0 -252 104.5t-104 252.5t104 252.5t252 104.5q77 0 143.5 -36.5t105.5 -96.5v126h455v-102h-347v-194zM419 95q105 0 177 72t72 183q0 110 -72 182.5t-177 72.5t-176.5 -72.5
t-71.5 -182.5q0 -111 71.5 -183t176.5 -72z" />
    <glyph glyph-name="oe" unicode="&#x153;" horiz-adv-x="1017" 
d="M725 507q80 0 137 -37t85 -104q14 -30 15.5 -72.5t-7.5 -69.5h-381q0 -64 44 -101.5t112 -37.5q88 0 162 44l53 -58q-99 -77 -215 -77q-72 0 -127 31t-83 86q-31 -53 -85.5 -85t-119.5 -32q-107 0 -181.5 75t-74.5 181q0 107 75 182t181 75q65 0 119.5 -32.5t84.5 -85.5
q28 54 82 86t124 32zM725 416q-62 0 -103 -37.5t-44 -90.5h287q0 26 -12 49q-16 36 -49.5 57.5t-78.5 21.5zM315 411q-64 0 -110 -45.5t-46 -115.5t46 -115t110 -45t110.5 45.5t46.5 114.5q0 70 -46.5 115.5t-110.5 45.5z" />
    <glyph glyph-name="Racute" unicode="&#x154;" horiz-adv-x="698" 
d="M344 750h-77l79 132h112zM109 700h232q139 0 220.5 -71.5t81.5 -186.5q0 -82 -43.5 -139t-121.5 -84q49 -24 110 -119l65 -100h-121l-52 80q-42 64 -70 83t-83 21h-110v-184h-108v700zM217 598v-313h133q84 0 137.5 39.5t53.5 117.5q0 76 -54 116t-137 40h-133z" />
    <glyph glyph-name="racute" unicode="&#x155;" horiz-adv-x="432" 
d="M244 553h-77l79 132h112zM398 411h-40q-85 0 -127 -52t-42 -139v-220h-100v500h68l11 -122q60 129 213 129h17v-96z" />
    <glyph glyph-name="Rcommaaccent" unicode="&#x156;" horiz-adv-x="698" 
d="M109 700h232q139 0 220.5 -71.5t81.5 -186.5q0 -82 -43.5 -139t-121.5 -84q49 -24 110 -119l65 -100h-121l-52 80q-42 64 -70 83t-83 21h-110v-184h-108v700zM217 598v-313h133q84 0 137.5 39.5t53.5 117.5q0 76 -54 116t-137 40h-133zM313 -200h-77l79 131h112z" />
    <glyph glyph-name="rcommaaccent" unicode="&#x157;" horiz-adv-x="432" 
d="M398 411h-40q-85 0 -127 -52t-42 -139v-220h-100v500h68l11 -122q60 129 213 129h17v-96zM207 -200h-77l79 131h112z" />
    <glyph glyph-name="Rcaron" unicode="&#x158;" horiz-adv-x="698" 
d="M401 750h-97l-97 133h79l67 -57l66 58h79zM109 700h232q139 0 220.5 -71.5t81.5 -186.5q0 -82 -43.5 -139t-121.5 -84q49 -24 110 -119l65 -100h-121l-52 80q-42 64 -70 83t-83 21h-110v-184h-108v700zM217 598v-313h133q84 0 137.5 39.5t53.5 117.5q0 76 -54 116
t-137 40h-133z" />
    <glyph glyph-name="rcaron" unicode="&#x159;" horiz-adv-x="432" 
d="M288 553h-97l-97 134h79l67 -58l66 58h79zM398 411h-40q-85 0 -127 -52t-42 -139v-220h-100v500h68l11 -122q60 129 213 129h17v-96z" />
    <glyph glyph-name="Sacute" unicode="&#x15a;" horiz-adv-x="669" 
d="M335 750h-77l79 132h112zM321 707h9q73 0 142 -31.5t119 -84.5l-70 -65q-37 36 -90.5 58t-100.5 22h-9q-54 0 -98 -26t-44 -75q0 -38 33.5 -57.5t99.5 -28.5l66 -8q114 -14 175 -62t61 -145q0 -95 -75.5 -152.5t-189.5 -58.5h-5q-100 0 -175.5 41t-114.5 106l70 65
q26 -47 83.5 -79t136.5 -32h5q70 1 113.5 30.5t43.5 79.5t-36 74t-106 33l-66 8q-227 27 -227 183q0 92 72 148t178 57z" />
    <glyph glyph-name="sacute" unicode="&#x15b;" horiz-adv-x="550" 
d="M292 553h-77l79 132h112zM269 507h10q59 0 114.5 -25.5t87.5 -67.5l-57 -53q-24 29 -66 47.5t-78 18.5h-8q-44 -1 -71.5 -18t-27.5 -47q0 -26 20.5 -40t74.5 -19l46 -5q177 -15 177 -152q0 -67 -55 -109.5t-143 -42.5h-6q-72 0 -135.5 27t-92.5 71l57 54q22 -31 70.5 -51
t99.5 -20h4q45 0 73 17t28 51q0 37 -24 51t-73 19l-43 5q-178 16 -178 138q0 69 56 109.5t140 41.5z" />
    <glyph glyph-name="Scedilla" unicode="&#x15e;" horiz-adv-x="669" 
d="M347 -7l-9 -31q30 9 56 -6t26 -54q0 -44 -40 -59.5t-96 14.5v30q27 -16 49.5 -10t22.5 28q0 20 -16 26.5t-48 -6.5l22 69q-89 6 -157 46t-103 100l70 65q26 -47 83.5 -79t136.5 -32h5q70 1 113.5 30.5t43.5 79.5t-36 74t-106 33l-66 8q-227 27 -227 183q0 92 72 148
t178 57h9q73 0 142 -31.5t119 -84.5l-70 -65q-37 36 -90.5 58t-100.5 22h-9q-54 0 -98 -26t-44 -75q0 -38 33.5 -57.5t99.5 -28.5l66 -8q114 -14 175 -62t61 -145q0 -95 -75.5 -152.5t-189.5 -58.5h-2z" />
    <glyph glyph-name="scedilla" unicode="&#x15f;" horiz-adv-x="550" 
d="M491 146q0 -67 -55 -109.5t-143 -42.5l-9 -32q30 9 56 -6t26 -54q0 -44 -40 -59.5t-96 14.5v30q27 -16 49.5 -10t22.5 28q0 20 -16 26.5t-48 -6.5l22 70q-65 5 -120 31t-81 66l57 54q22 -31 70.5 -51t99.5 -20h4q45 0 73 17t28 51q0 37 -24 51t-73 19l-43 5
q-178 16 -178 138q0 69 56 109.5t140 41.5h10q59 0 114.5 -25.5t87.5 -67.5l-57 -53q-24 29 -66 47.5t-78 18.5h-8q-44 -1 -71.5 -18t-27.5 -47q0 -26 20.5 -40t74.5 -19l46 -5q177 -15 177 -152z" />
    <glyph glyph-name="Scaron" unicode="&#x160;" horiz-adv-x="669" 
d="M376 750h-97l-97 133h79l67 -57l66 58h79zM321 707h9q73 0 142 -31.5t119 -84.5l-70 -65q-37 36 -90.5 58t-100.5 22h-9q-54 0 -98 -26t-44 -75q0 -38 33.5 -57.5t99.5 -28.5l66 -8q114 -14 175 -62t61 -145q0 -95 -75.5 -152.5t-189.5 -58.5h-5q-100 0 -175.5 41
t-114.5 106l70 65q26 -47 83.5 -79t136.5 -32h5q70 1 113.5 30.5t43.5 79.5t-36 74t-106 33l-66 8q-227 27 -227 183q0 92 72 148t178 57z" />
    <glyph glyph-name="scaron" unicode="&#x161;" horiz-adv-x="550" 
d="M323 553h-97l-97 134h79l67 -58l66 58h79zM269 507h10q59 0 114.5 -25.5t87.5 -67.5l-57 -53q-24 29 -66 47.5t-78 18.5h-8q-44 -1 -71.5 -18t-27.5 -47q0 -26 20.5 -40t74.5 -19l46 -5q177 -15 177 -152q0 -67 -55 -109.5t-143 -42.5h-6q-72 0 -135.5 27t-92.5 71l57 54
q22 -31 70.5 -51t99.5 -20h4q45 0 73 17t28 51q0 37 -24 51t-73 19l-43 5q-178 16 -178 138q0 69 56 109.5t140 41.5z" />
    <glyph glyph-name="Tcedilla" unicode="&#x162;" horiz-adv-x="606" 
d="M314 0l-11 -38q30 9 56 -6t26 -54q0 -44 -40 -59.5t-96 14.5v30q27 -16 49.5 -10t22.5 28q0 20 -16 26.5t-48 -6.5l24 75h-33v598h-204v102h517v-102h-205v-598h-42z" />
    <glyph glyph-name="tcedilla" unicode="&#x163;" horiz-adv-x="347" 
d="M184 0l-11 -38q30 9 56 -6t26 -54q0 -44 -40 -59.5t-96 14.5v30q27 -16 49.5 -10t22.5 28q0 20 -16 26.5t-48 -6.5l24 75h-23v404h-69v96h69v168h100v-168h70v-96h-70v-404h-44z" />
    <glyph glyph-name="Tcaron" unicode="&#x164;" horiz-adv-x="606" 
d="M353 750h-97l-97 133h79l67 -57l66 58h79zM356 598v-598h-108v598h-204v102h517v-102h-205z" />
    <glyph glyph-name="tcaron" unicode="&#x165;" horiz-adv-x="510" 
d="M347 569h-77l79 131h112zM228 404v-404h-100v404h-69v96h69v168h100v-168h70v-96h-70z" />
    <glyph glyph-name="Tbar" unicode="&#x166;" horiz-adv-x="606" 
d="M356 598v-197h76v-74h-76v-327h-108v327h-75v74h75v197h-204v102h517v-102h-205z" />
    <glyph glyph-name="tbar" unicode="&#x167;" horiz-adv-x="347" 
d="M228 404v-82h70v-96h-70v-226h-100v226h-69v96h69v82h-69v96h69v168h100v-168h70v-96h-70z" />
    <glyph glyph-name="Umacron" unicode="&#x16a;" horiz-adv-x="777" 
d="M522 750h-258v75h258v-75zM678 700v-403q0 -142 -81 -223t-204 -81t-203.5 81t-80.5 223v403h108v-400q0 -102 48.5 -153.5t127.5 -51.5t128 51.5t49 153.5v400h108z" />
    <glyph glyph-name="umacron" unicode="&#x16b;" horiz-adv-x="646" 
d="M447 553h-258v75h258v-75zM562 0h-68l-7 96q-26 -51 -76 -77t-109 -26q-104 0 -161 64.5t-57 176.5v266h100v-261q0 -150 133 -150q67 0 106.5 43.5t39.5 125.5v242h99v-500z" />
    <glyph glyph-name="Uring" unicode="&#x16e;" horiz-adv-x="777" 
d="M393 927q37 0 63 -26t26 -62q0 -37 -26 -63t-63 -26t-62.5 26t-25.5 63q0 36 25.5 62t62.5 26zM394 876q-16 0 -26.5 -11t-10.5 -26q0 -16 10.5 -27t26.5 -11t26 11t10 27q0 15 -10.5 26t-25.5 11zM678 700v-403q0 -142 -81 -223t-204 -81t-203.5 81t-80.5 223v403h108
v-400q0 -102 48.5 -153.5t127.5 -51.5t128 51.5t49 153.5v400h108z" />
    <glyph glyph-name="uring" unicode="&#x16f;" horiz-adv-x="646" 
d="M317 731q37 0 63 -26t26 -63t-26 -63t-63 -26t-62.5 26t-25.5 63t25.5 63t62.5 26zM318 680q-16 0 -26.5 -11.5t-10.5 -26.5t10.5 -26.5t26.5 -11.5q15 0 25.5 11.5t10.5 26.5t-10.5 26.5t-25.5 11.5zM562 0h-68l-7 96q-26 -51 -76 -77t-109 -26q-104 0 -161 64.5
t-57 176.5v266h100v-261q0 -150 133 -150q67 0 106.5 43.5t39.5 125.5v242h99v-500z" />
    <glyph glyph-name="Uhungarumlaut" unicode="&#x170;" horiz-adv-x="777" 
d="M311 750h-77l79 132h112zM466 750h-77l79 132h112zM678 700v-403q0 -142 -81 -223t-204 -81t-203.5 81t-80.5 223v403h108v-400q0 -102 48.5 -153.5t127.5 -51.5t128 51.5t49 153.5v400h108z" />
    <glyph glyph-name="uhungarumlaut" unicode="&#x171;" horiz-adv-x="647" 
d="M239 553h-77l79 132h112zM395 553h-77l79 132h112zM562 0h-68l-7 96q-26 -51 -76 -77t-109 -26q-104 0 -161 64.5t-57 176.5v266h100v-261q0 -150 133 -150q67 0 106.5 43.5t39.5 125.5v242h99v-500z" />
    <glyph glyph-name="Uogonek" unicode="&#x172;" horiz-adv-x="777" 
d="M678 700v-403q0 -123 -61.5 -200.5t-161.5 -97.5q-35 -14 -48.5 -28t-13.5 -32q0 -19 14.5 -29.5t37.5 -10.5h12v-63h-7q-43 0 -72.5 19.5t-29.5 58.5q0 50 63 79h-18q-123 0 -203.5 81t-80.5 223v403h108v-400q0 -102 48.5 -153.5t127.5 -51.5t128 51.5t49 153.5v400
h108z" />
    <glyph glyph-name="uogonek" unicode="&#x173;" horiz-adv-x="646" 
d="M562 500v-500q-65 -25 -65 -61q0 -19 14.5 -29.5t37.5 -10.5h12v-63h-7q-43 0 -72.5 19.5t-29.5 58.5q0 54 78 86h-36l-7 96q-26 -51 -76 -77t-109 -26q-104 0 -161 64.5t-57 176.5v266h100v-261q0 -150 133 -150q67 0 106.5 43.5t39.5 125.5v242h99z" />
    <glyph glyph-name="Wcircumflex" unicode="&#x174;" horiz-adv-x="1166" 
d="M650 750l-66 58l-67 -58h-79l97 134h97l97 -134h-79zM841 0h-62l-196 481l-196 -481h-63l-280 700h119l191 -500l197 500h63l197 -500l191 500h119z" />
    <glyph glyph-name="wcircumflex" unicode="&#x175;" horiz-adv-x="950" 
d="M541 553l-66 59l-67 -58h-79l97 133h97l97 -134h-79zM691 0h-63l-153 338l-154 -338h-63l-224 500h106l149 -350l155 350h62l154 -350l150 350h105z" />
    <glyph glyph-name="Ycircumflex" unicode="&#x176;" horiz-adv-x="713" 
d="M423 750l-66 58l-67 -58h-79l97 134h97l97 -134h-79zM410 0h-108v237l-258 463h123l189 -331l189 331h123l-258 -463v-237z" />
    <glyph glyph-name="ycircumflex" unicode="&#x177;" horiz-adv-x="651" 
d="M371 687l97 -134h-79l-66 59l-67 -58h-79l97 133h97zM189 500v-249q0 -150 133 -150q68 0 107 43.5t39 125.5v230h99v-437q0 -113 -65.5 -183.5t-180.5 -70.5q-126 0 -218 77l57 61q78 -47 161 -47q69 0 107.5 37t38.5 105v46q-25 -42 -68.5 -62.5t-91.5 -20.5
q-104 0 -161 64t-57 176v255h100z" />
    <glyph glyph-name="Ydieresis" unicode="&#x178;" horiz-adv-x="713" 
d="M251 750q-25 0 -42.5 15.5t-17.5 38.5q0 22 17.5 37.5t42.5 15.5t42 -15.5t17 -37.5q0 -23 -17 -38.5t-42 -15.5zM463 750q-25 0 -42.5 15.5t-17.5 38.5q0 22 17.5 37.5t42.5 15.5t42 -15.5t17 -37.5q0 -23 -17 -38.5t-42 -15.5zM410 0h-108v237l-258 463h123l189 -331
l189 331h123l-258 -463v-237z" />
    <glyph glyph-name="Zacute" unicode="&#x179;" horiz-adv-x="627" 
d="M321 750h-77l79 132h112zM572 0h-518v62l359 536h-329v102h480v-62l-359 -536h367v-102z" />
    <glyph glyph-name="zacute" unicode="&#x17a;" horiz-adv-x="547" 
d="M275 553h-77l79 132h112zM488 0h-429l1 73l273 331h-251v96h395v-73l-274 -331h285v-96z" />
    <glyph glyph-name="Zdotaccent" unicode="&#x17b;" horiz-adv-x="627" 
d="M310 750q-25 0 -42.5 15.5t-17.5 38.5q0 22 17.5 37.5t42.5 15.5t42 -15.5t17 -37.5q0 -23 -17 -38.5t-42 -15.5zM572 0h-518v62l359 536h-329v102h480v-62l-359 -536h367v-102z" />
    <glyph glyph-name="zdotaccent" unicode="&#x17c;" horiz-adv-x="547" 
d="M268 553q-25 0 -42.5 15.5t-17.5 38.5t17.5 38t42.5 15t42 -15.5t17 -37.5q0 -23 -17 -38.5t-42 -15.5zM488 0h-429l1 73l273 331h-251v96h395v-73l-274 -331h285v-96z" />
    <glyph glyph-name="Zcaron" unicode="&#x17d;" horiz-adv-x="627" 
d="M364 750h-97l-97 133h79l67 -57l66 58h79zM572 0h-518v62l359 536h-329v102h480v-62l-359 -536h367v-102z" />
    <glyph glyph-name="zcaron" unicode="&#x17e;" horiz-adv-x="547" 
d="M322 553h-97l-97 134h79l67 -58l66 58h79zM477 427l-274 -331h285v-96h-429l1 73l273 331h-251v96h395v-73z" />
    <glyph glyph-name="Acaron" unicode="&#x1cd;" horiz-adv-x="727" 
d="M411 750h-97l-97 133h79l67 -57l66 58h79zM682 0h-119l-63 157h-273l-64 -157h-119l289 700h63zM265 259h198l-99 244z" />
    <glyph glyph-name="acaron" unicode="&#x1ce;" 
d="M364 553h-97l-97 134h79l67 -58l66 58h79zM564 0h-68l-6 92q-28 -45 -77 -71.5t-107 -26.5q-106 0 -176.5 74.5t-70.5 181.5q0 108 70.5 182.5t176.5 74.5q58 0 107 -27t77 -72l6 92h68v-500zM315 90q64 0 110.5 45.5t46.5 114.5q0 70 -46.5 115.5t-110.5 45.5
t-110 -45.5t-46 -115.5t46 -115t110 -45z" />
    <glyph glyph-name="Icaron" unicode="&#x1cf;" horiz-adv-x="526" 
d="M313 750h-97l-97 133h79l67 -57l66 58h79zM400 598h-83v-496h83v-102h-274v102h83v496h-83v102h274v-102z" />
    <glyph glyph-name="icaron" unicode="&#x1d0;" horiz-adv-x="474" 
d="M288 553h-97l-97 134h79l67 -58l66 58h79zM290 0h-100v500h100v-500z" />
    <glyph glyph-name="Ocaron" unicode="&#x1d1;" horiz-adv-x="840" 
d="M468 750h-97l-97 133h79l67 -58l66 59h79zM419 707q148 0 252.5 -104.5t104.5 -252.5t-104.5 -252.5t-252.5 -104.5t-252 104.5t-104 252.5t104 252.5t252 104.5zM419 605q-105 0 -176.5 -72.5t-71.5 -182.5q0 -111 71.5 -183t176.5 -72t177 72t72 183q0 110 -72 182.5
t-177 72.5z" />
    <glyph glyph-name="ocaron" unicode="&#x1d2;" horiz-adv-x="631" 
d="M363 553l-97 1l-97 133h79l67 -58l66 58h79zM315 507q107 0 182 -75.5t75 -181.5t-75 -181t-182 -75t-181.5 75t-74.5 181q0 107 75 182t181 75zM315 411q-64 0 -110 -45.5t-46 -115.5t46 -115t110 -45t110.5 45.5t46.5 114.5q0 70 -46.5 115.5t-110.5 45.5z" />
    <glyph glyph-name="Ucaron" unicode="&#x1d3;" horiz-adv-x="777" 
d="M442 750h-97l-97 133h79l67 -57l66 58h79zM678 700v-403q0 -142 -81 -223t-204 -81t-203.5 81t-80.5 223v403h108v-400q0 -102 48.5 -153.5t127.5 -51.5t128 51.5t49 153.5v400h108z" />
    <glyph glyph-name="ucaron" unicode="&#x1d4;" horiz-adv-x="646" 
d="M366 553h-97l-97 134h79l67 -58l66 58h79zM562 0h-68l-7 96q-26 -51 -76 -77t-109 -26q-104 0 -161 64.5t-57 176.5v266h100v-261q0 -150 133 -150q67 0 106.5 43.5t39.5 125.5v242h99v-500z" />
    <glyph glyph-name="Udieresismacron" unicode="&#x1d5;" horiz-adv-x="777" 
d="M523 889h-258v74h258v-74zM289 750q-25 0 -42.5 15.5t-17.5 38.5q0 22 17.5 37.5t42.5 15.5t42 -15.5t17 -37.5q0 -23 -17 -38.5t-42 -15.5zM500 750q-25 0 -42.5 15.5t-17.5 38.5q0 22 17.5 37.5t42.5 15.5t42 -15.5t17 -37.5q0 -23 -17 -38.5t-42 -15.5zM678 700v-403
q0 -142 -81 -223t-204 -81t-203.5 81t-80.5 223v403h108v-400q0 -102 48.5 -153.5t127.5 -51.5t128 51.5t49 153.5v400h108z" />
    <glyph glyph-name="udieresismacron" unicode="&#x1d6;" horiz-adv-x="646" 
d="M452 689h-258v75h258v-75zM216 660q25 0 42 -15.5t17 -37.5q0 -23 -17 -38.5t-42 -15.5t-42.5 15.5t-17.5 38.5t17.5 38t42.5 15zM427 660q25 0 42 -15.5t17 -37.5q0 -23 -17 -38.5t-42 -15.5t-42.5 15.5t-17.5 38.5t17.5 38t42.5 15zM562 0h-68l-7 96q-26 -51 -76 -77
t-109 -26q-104 0 -161 64.5t-57 176.5v266h100v-261q0 -150 133 -150q67 0 106.5 43.5t39.5 125.5v242h99v-500z" />
    <glyph glyph-name="Udieresisacute" unicode="&#x1d7;" horiz-adv-x="777" 
d="M399 889h-77l79 131h112zM289 750q-25 0 -42.5 15.5t-17.5 38.5q0 22 17.5 37.5t42.5 15.5t42 -15.5t17 -37.5q0 -23 -17 -38.5t-42 -15.5zM500 750q-25 0 -42.5 15.5t-17.5 38.5q0 22 17.5 37.5t42.5 15.5t42 -15.5t17 -37.5q0 -23 -17 -38.5t-42 -15.5zM678 700v-403
q0 -142 -81 -223t-204 -81t-203.5 81t-80.5 223v403h108v-400q0 -102 48.5 -153.5t127.5 -51.5t128 51.5t49 153.5v400h108z" />
    <glyph glyph-name="udieresisacute" unicode="&#x1d8;" horiz-adv-x="646" 
d="M342 689h-77l79 132h112zM216 660q25 0 42 -15.5t17 -37.5q0 -23 -17 -38.5t-42 -15.5t-42.5 15.5t-17.5 38.5t17.5 38t42.5 15zM427 660q25 0 42 -15.5t17 -37.5q0 -23 -17 -38.5t-42 -15.5t-42.5 15.5t-17.5 38.5t17.5 38t42.5 15zM562 0h-68l-7 96q-26 -51 -76 -77
t-109 -26q-104 0 -161 64.5t-57 176.5v266h100v-261q0 -150 133 -150q67 0 106.5 43.5t39.5 125.5v242h99v-500z" />
    <glyph glyph-name="Udieresiscaron" unicode="&#x1d9;" horiz-adv-x="777" 
d="M393 964l66 58h79l-97 -133h-97l-97 134h79zM289 857q25 0 42 -15.5t17 -37.5q0 -23 -17 -38.5t-42 -15.5t-42.5 15.5t-17.5 38.5q0 22 17.5 37.5t42.5 15.5zM500 857q25 0 42 -15.5t17 -37.5q0 -23 -17 -38.5t-42 -15.5t-42.5 15.5t-17.5 38.5q0 22 17.5 37.5t42.5 15.5
zM678 700v-403q0 -142 -81 -223t-204 -81t-203.5 81t-80.5 223v403h108v-400q0 -102 48.5 -153.5t127.5 -51.5t128 51.5t49 153.5v400h108z" />
    <glyph glyph-name="udieresiscaron" unicode="&#x1da;" horiz-adv-x="646" 
d="M366 689h-97l-97 133h79l67 -57l66 58h79zM216 660q25 0 42 -15.5t17 -37.5q0 -23 -17 -38.5t-42 -15.5t-42.5 15.5t-17.5 38.5t17.5 38t42.5 15zM427 660q25 0 42 -15.5t17 -37.5q0 -23 -17 -38.5t-42 -15.5t-42.5 15.5t-17.5 38.5t17.5 38t42.5 15zM562 0h-68l-7 96
q-26 -51 -76 -77t-109 -26q-104 0 -161 64.5t-57 176.5v266h100v-261q0 -150 133 -150q67 0 106.5 43.5t39.5 125.5v242h99v-500z" />
    <glyph glyph-name="Udieresisgrave" unicode="&#x1db;" horiz-adv-x="777" 
d="M384 1020l79 -131h-77l-114 131h112zM289 750q-25 0 -42.5 15.5t-17.5 38.5q0 22 17.5 37.5t42.5 15.5t42 -15.5t17 -37.5q0 -23 -17 -38.5t-42 -15.5zM500 750q-25 0 -42.5 15.5t-17.5 38.5q0 22 17.5 37.5t42.5 15.5t42 -15.5t17 -37.5q0 -23 -17 -38.5t-42 -15.5z
M678 700v-403q0 -142 -81 -223t-204 -81t-203.5 81t-80.5 223v403h108v-400q0 -102 48.5 -153.5t127.5 -51.5t128 51.5t49 153.5v400h108z" />
    <glyph glyph-name="udieresisgrave" unicode="&#x1dc;" horiz-adv-x="646" 
d="M381 689h-77l-114 132h112zM216 660q25 0 42 -15.5t17 -37.5q0 -23 -17 -38.5t-42 -15.5t-42.5 15.5t-17.5 38.5t17.5 38t42.5 15zM427 660q25 0 42 -15.5t17 -37.5q0 -23 -17 -38.5t-42 -15.5t-42.5 15.5t-17.5 38.5t17.5 38t42.5 15zM562 0h-68l-7 96q-26 -51 -76 -77
t-109 -26q-104 0 -161 64.5t-57 176.5v266h100v-261q0 -150 133 -150q67 0 106.5 43.5t39.5 125.5v242h99v-500z" />
    <glyph glyph-name="Scommaaccent" unicode="&#x218;" horiz-adv-x="669" 
d="M321 707h9q73 0 142 -31.5t119 -84.5l-70 -65q-37 36 -90.5 58t-100.5 22h-9q-54 0 -98 -26t-44 -75q0 -38 33.5 -57.5t99.5 -28.5l66 -8q114 -14 175 -62t61 -145q0 -95 -75.5 -152.5t-189.5 -58.5h-5q-100 0 -175.5 41t-114.5 106l70 65q26 -47 83.5 -79t136.5 -32h5
q70 1 113.5 30.5t43.5 79.5t-36 74t-106 33l-66 8q-227 27 -227 183q0 92 72 148t178 57zM306 -200h-77l79 131h112z" />
    <glyph glyph-name="scommaaccent" unicode="&#x219;" horiz-adv-x="550" 
d="M269 507h10q59 0 114.5 -25.5t87.5 -67.5l-57 -53q-24 29 -66 47.5t-78 18.5h-8q-44 -1 -71.5 -18t-27.5 -47q0 -26 20.5 -40t74.5 -19l46 -5q177 -15 177 -152q0 -67 -55 -109.5t-143 -42.5h-6q-72 0 -135.5 27t-92.5 71l57 54q22 -31 70.5 -51t99.5 -20h4q45 0 73 17
t28 51q0 37 -24 51t-73 19l-43 5q-178 16 -178 138q0 69 56 109.5t140 41.5zM240 -200h-77l79 131h112z" />
    <glyph glyph-name="uni021A" unicode="&#x21a;" horiz-adv-x="606" 
d="M356 598v-598h-108v598h-204v102h517v-102h-205zM272 -200h-77l79 131h112z" />
    <glyph glyph-name="uni021B" unicode="&#x21b;" horiz-adv-x="347" 
d="M229 404v-404h-100v404h-69v96h69v168h100v-168h70v-96h-70zM145 -200h-77l79 131h112z" />
    <glyph glyph-name="circumflex" unicode="&#x2c6;" horiz-adv-x="409" 
d="M271 594l-66 58l-67 -58h-79l97 134l97 -1l97 -133h-79z" />
    <glyph glyph-name="caron" unicode="&#x2c7;" horiz-adv-x="409" 
d="M253 593h-97l-97 133h79l67 -57l66 58h79z" />
    <glyph glyph-name="breve" unicode="&#x2d8;" horiz-adv-x="418" 
d="M289 728h70q0 -61 -43.5 -101t-106.5 -40t-106.5 40t-43.5 101h70q0 -30 23 -50.5t57 -20.5t57 20.5t23 50.5z" />
    <glyph glyph-name="dotaccent" unicode="&#x2d9;" horiz-adv-x="237" 
d="M119 624q-25 0 -42.5 15t-17.5 38t17.5 38.5t42.5 15.5t42 -15.5t17 -38.5q0 -22 -17 -37.5t-42 -15.5z" />
    <glyph glyph-name="ring" unicode="&#x2da;" horiz-adv-x="295" 
d="M147 731q37 0 63 -26t26 -62q0 -37 -26 -63t-63 -26t-62.5 26t-25.5 63q0 36 25.5 62t62.5 26zM148 680q-16 0 -26.5 -11.5t-10.5 -26.5t10.5 -26.5t26.5 -11.5q15 0 25.5 11.5t10.5 26.5t-10.5 26.5t-25.5 11.5z" />
    <glyph glyph-name="ogonek" unicode="&#x2db;" horiz-adv-x="228" 
d="M137 0h32q-65 -25 -65 -61q0 -19 14.5 -29.5t37.5 -10.5h12v-63h-7q-43 0 -72.5 19.5t-29.5 58.5q0 54 78 86z" />
    <glyph glyph-name="tilde" unicode="&#x2dc;" horiz-adv-x="423" 
d="M364 700l-23 -60q-19 -53 -63 -56q-31 -3 -54 17l-41 33q-22 14 -38 12q-21 -1 -31 -31l-7 -21h-48l23 61q19 53 62 56q30 3 55 -17l40 -33q20 -14 36 -13q22 0 34 31l7 21h48z" />
    <glyph glyph-name="hungarumlaut" unicode="&#x2dd;" horiz-adv-x="465" 
d="M136 596h-77l79 132h112zM292 596h-77l79 132h112z" />
    <glyph glyph-name="commaaccentcomb" unicode="&#x326;" horiz-adv-x="0" 
d="M136 -250h-77l79 131h112z" />
    <glyph glyph-name="uni0401" unicode="&#x401;" horiz-adv-x="618" 
d="M227 750q-25 0 -42.5 15.5t-17.5 38.5q0 22 17.5 37.5t42.5 15.5t42 -15.5t17 -37.5q0 -23 -17 -38.5t-42 -15.5zM439 750q-25 0 -42.5 15.5t-17.5 38.5q0 22 17.5 37.5t42.5 15.5t42 -15.5t17 -37.5q0 -23 -17 -38.5t-42 -15.5zM217 404h323v-102h-323v-200h347v-102
h-455v700h455v-102h-347v-194z" />
    <glyph glyph-name="uni0410" unicode="&#x410;" horiz-adv-x="727" 
d="M227 157l-64 -157h-119l289 700h63l286 -700h-119l-63 157h-273zM364 503l-99 -244h198z" />
    <glyph glyph-name="uni0411" unicode="&#x411;" horiz-adv-x="698" 
d="M217 433h189q117 0 177 -58t60 -159q0 -102 -58.5 -159t-178.5 -57h-297v700h456v-102h-348v-165zM217 102h191q71 0 102 29t31 85q0 115 -133 115h-191v-229z" />
    <glyph glyph-name="uni0412" unicode="&#x412;" horiz-adv-x="692" 
d="M109 700h262q57 0 101 -12t68.5 -30.5t40 -44t20.5 -48.5t5 -48q0 -115 -100 -151q62 -13 97 -58t35 -111q0 -197 -252 -197h-277v700zM217 598v-190h165q121 0 121 95t-121 95h-165zM217 315v-213h191q127 0 127 106q0 48 -31.5 77.5t-95.5 29.5h-191z" />
    <glyph glyph-name="uni0413" unicode="&#x413;" horiz-adv-x="598" 
d="M217 598v-598h-108v700h445v-102h-337z" />
    <glyph glyph-name="uni0414" unicode="&#x414;" horiz-adv-x="809" 
d="M773 -129h-108v129h-522v-129h-108v231h92l247 598h63l245 -598h91v-231zM405 501l-162 -399h323z" />
    <glyph glyph-name="uni0415" unicode="&#x415;" horiz-adv-x="626" 
d="M217 404h323v-102h-323v-200h347v-102h-455v700h455v-102h-347v-194z" />
    <glyph glyph-name="uni0416" unicode="&#x416;" horiz-adv-x="1078" 
d="M911 0l-144 224q-31 48 -51.5 63.5t-63.5 15.5h-60v-303h-108v303h-59q-43 0 -63.5 -15.5t-51.5 -63.5l-144 -224h-122l166 258q31 49 51.5 70.5t43.5 29.5q-36 19 -87 95l-160 247h123l136 -213q32 -48 53 -64t63 -16h51v293h108v-293h52q42 0 63 16t53 64l136 213h123
l-160 -247q-51 -76 -87 -95q23 -8 43.5 -29.5t51.5 -70.5l166 -258h-122z" />
    <glyph glyph-name="uni0417" unicode="&#x417;" horiz-adv-x="637" 
d="M244 412h91q122 0 122 95q0 46 -30.5 72t-93.5 27h-6q-50 0 -104 -21.5t-91 -58.5l-70 65q49 54 118.5 85t142.5 31h7q64 0 111.5 -18t71.5 -47t35 -59t11 -62q0 -58 -27 -100.5t-76 -59.5q59 -13 92.5 -58.5t33.5 -108.5q0 -90 -63.5 -145t-192.5 -56h-6q-85 0 -157 37
t-119 100l70 65q35 -46 91.5 -73t117.5 -27h6q70 0 110 27.5t40 82.5q0 48 -31.5 77t-95.5 29h-108v101z" />
    <glyph glyph-name="uni0418" unicode="&#x418;" horiz-adv-x="739" 
d="M640 0h-108v494l-370 -494h-63v700h108v-494l370 494h63v-700z" />
    <glyph glyph-name="uni0419" unicode="&#x419;" horiz-adv-x="739" 
d="M370 750q-63 0 -106.5 40t-43.5 100h70q0 -29 23 -49.5t57 -20.5t57 20.5t23 49.5h70q0 -60 -43.5 -100t-106.5 -40zM640 0h-108v494l-370 -494h-63v700h108v-494l370 494h63v-700z" />
    <glyph glyph-name="uni041A" unicode="&#x41a;" horiz-adv-x="732" 
d="M565 0l-144 223q-31 48 -51.5 64t-63.5 16h-89v-303h-108v700h108v-293h81q42 0 63 16t53 64l136 213h123l-159 -247q-54 -77 -88 -95q23 -8 43.5 -29.5t51.5 -70.5l166 -258h-122z" />
    <glyph glyph-name="uni041B" unicode="&#x41b;" horiz-adv-x="727" 
d="M363 501l-200 -501h-119l289 700h63l286 -700h-119z" />
    <glyph glyph-name="uni041C" unicode="&#x41c;" horiz-adv-x="895" 
d="M786 0h-108v498l-235 -296l-236 296v-498h-108v700h63l281 -355l281 355h62v-700z" />
    <glyph glyph-name="uni041D" unicode="&#x41d;" horiz-adv-x="736" 
d="M637 0h-108v302h-322v-302h-108v700h108v-296h322v296h108v-700z" />
    <glyph glyph-name="uni041E" unicode="&#x41e;" horiz-adv-x="840" 
d="M419 707q148 0 252.5 -104.5t104.5 -252.5t-104.5 -252.5t-252.5 -104.5t-252 104.5t-104 252.5t104 252.5t252 104.5zM419 605q-105 0 -176.5 -72.5t-71.5 -182.5q0 -111 71.5 -183t176.5 -72t177 72t72 183q0 110 -72 182.5t-177 72.5z" />
    <glyph glyph-name="uni041F" unicode="&#x41f;" horiz-adv-x="730" 
d="M631 0h-108v598h-316v-598h-108v700h532v-700z" />
    <glyph glyph-name="uni0420" unicode="&#x420;" horiz-adv-x="707" 
d="M109 700h226q140 0 224 -72.5t84 -190.5q0 -119 -84 -191t-224 -72h-118v-174h-108v700zM217 275h125q86 0 142.5 40.5t56.5 121.5q0 79 -57 120t-142 41h-125v-323z" />
    <glyph glyph-name="uni0421" unicode="&#x421;" horiz-adv-x="738" 
d="M419 707q156 0 264 -116l-70 -65q-79 79 -194 79q-105 0 -176.5 -72.5t-71.5 -182.5q0 -111 71.5 -183t176.5 -72q117 0 194 79l70 -65q-108 -116 -264 -116q-148 0 -252 104.5t-104 252.5t104 252.5t252 104.5z" />
    <glyph glyph-name="uni0422" unicode="&#x422;" horiz-adv-x="606" 
d="M356 598v-598h-108v598h-204v102h517v-102h-205z" />
    <glyph glyph-name="uni0423" unicode="&#x423;" horiz-adv-x="734" 
d="M281 0h-123l147 252l-261 448h123l200 -337l199 337h123z" />
    <glyph glyph-name="uni0424" unicode="&#x424;" horiz-adv-x="1180" 
d="M837 675q123 0 201 -83t78 -206t-78 -205.5t-201 -82.5q-62 0 -113.5 28t-79.5 75v-201h-108v201q-29 -47 -80.5 -75t-112.5 -28q-123 0 -201.5 82.5t-78.5 205.5t78.5 206t201.5 83q61 0 112.5 -28.5t80.5 -76.5v130h108v-129q29 47 80.5 75.5t112.5 28.5zM354 200
q77 0 129.5 53t52.5 133t-52.5 133.5t-129.5 53.5t-129.5 -53.5t-52.5 -133.5t52.5 -133t129.5 -53zM827 200q77 0 129.5 53t52.5 133t-52.5 133.5t-129.5 53.5t-129.5 -53.5t-52.5 -133.5t52.5 -133t129.5 -53z" />
    <glyph glyph-name="uni0425" unicode="&#x425;" horiz-adv-x="707" 
d="M352 264l-184 -264h-124l248 363l-234 337h124l173 -243l169 243h124l-234 -342l248 -358h-124z" />
    <glyph glyph-name="uni0426" unicode="&#x426;" horiz-adv-x="771" 
d="M726 -129h-108v129h-519v700h108v-598h319v598h108v-598h92v-231z" />
    <glyph glyph-name="uni0427" unicode="&#x427;" horiz-adv-x="703" 
d="M594 0h-108v267q-50 -96 -176 -96q-53 0 -97.5 15t-81 47t-57 88t-20.5 132v247h108v-252q0 -176 165 -176q65 0 111.5 43.5t47.5 133.5v251h108v-700z" />
    <glyph glyph-name="uni0428" unicode="&#x428;" horiz-adv-x="1050" 
d="M945 0h-846v700h108v-598h261v598h108v-598h261v598h108v-700z" />
    <glyph glyph-name="uni0429" unicode="&#x429;" horiz-adv-x="1115" 
d="M1037 -129h-108v129h-830v700h108v-598h261v598h108v-598h261v598h108v-598h92v-231z" />
    <glyph glyph-name="uni042A" unicode="&#x42a;" horiz-adv-x="715" 
d="M244 433h184q117 0 177 -58t60 -159t-58.5 -158.5t-178.5 -57.5h-292v598h-92v102h200v-267zM245 102h186q70 0 101 29t31 85q0 115 -132 115h-186v-229z" />
    <glyph glyph-name="uni042B" unicode="&#x42b;" horiz-adv-x="932" 
d="M211 433h184q116 0 176.5 -58t60.5 -159t-58.5 -158.5t-178.5 -57.5h-292v700h108v-267zM823 0h-108v700h108v-700zM211 102h186q70 0 101 29t31 85q0 115 -132 115h-186v-229z" />
    <glyph glyph-name="uni042C" unicode="&#x42c;" horiz-adv-x="682" 
d="M211 433h184q116 0 176.5 -58t60.5 -159t-58.5 -158.5t-178.5 -57.5h-292v700h108v-267zM211 102h186q70 0 101 29t31 85q0 115 -132 115h-186v-229z" />
    <glyph glyph-name="uni042D" unicode="&#x42d;" horiz-adv-x="738" 
d="M318 707q148 0 252 -104.5t104 -252.5t-104 -252.5t-252 -104.5q-156 0 -264 116l70 65q77 -79 194 -79q92 0 159 57.5t80 147.5h-287v101h287q-14 89 -81 146.5t-158 57.5q-115 0 -194 -79l-70 65q108 116 264 116z" />
    <glyph glyph-name="uni042E" unicode="&#x42e;" horiz-adv-x="1092" 
d="M671 707q148 0 252.5 -104.5t104.5 -252.5t-104.5 -252.5t-252.5 -104.5q-134 0 -233.5 88t-116.5 219h-110v-300h-108v700h108v-299h110q17 130 116.5 218t233.5 88zM672 95q105 0 177 72t72 183q0 110 -72 182.5t-177 72.5t-176.5 -72.5t-71.5 -182.5q0 -111 71.5 -183
t176.5 -72z" />
    <glyph glyph-name="uni042F" unicode="&#x42f;" horiz-adv-x="698" 
d="M589 0h-108v184h-110q-54 -2 -82.5 -21t-70.5 -83l-51 -80h-122l65 100q60 94 110 119q-78 27 -121.5 84t-43.5 139q0 115 82 186.5t221 71.5h231v-700zM481 598h-133q-83 0 -137 -40t-54 -116q0 -78 53.5 -117.5t137.5 -39.5h133v313z" />
    <glyph glyph-name="uni0430" unicode="&#x430;" 
d="M564 0h-68l-6 92q-28 -45 -77 -71.5t-107 -26.5q-106 0 -176.5 74.5t-70.5 181.5q0 108 70.5 182.5t176.5 74.5q58 0 107 -27t77 -72l6 92h68v-500zM315 90q64 0 110.5 45.5t46.5 114.5q0 70 -46.5 115.5t-110.5 45.5t-110 -45.5t-46 -115.5t46 -115t110 -45z" />
    <glyph glyph-name="uni0431" unicode="&#x431;" horiz-adv-x="631" 
d="M450 700h99q0 -66 -41.5 -98t-137.5 -32h-26q-87 0 -136 -38.5t-49 -113.5v-28q23 45 70 72.5t104 27.5q105 0 172 -68.5t67 -171.5q0 -110 -71.5 -184t-185.5 -74q-110 0 -183 74t-73 192v126q0 131 76.5 201t215.5 70q58 0 78.5 9.5t20.5 35.5zM316 398
q-64 0 -110.5 -44.5t-46.5 -110.5q0 -67 45.5 -111t111.5 -44q65 0 110.5 44t45.5 111q0 66 -46.5 110.5t-109.5 44.5z" />
    <glyph glyph-name="uni0432" unicode="&#x432;" horiz-adv-x="602" 
d="M89 500h262q85 0 125.5 -35t40.5 -98q0 -81 -70 -106q46 -10 70 -40.5t24 -75.5q0 -75 -45.5 -110t-143.5 -35h-263v500zM189 415v-120h157q72 0 72 60t-73 60h-156zM189 85h166q86 0 86 68t-85 68l-167 1v-137z" />
    <glyph glyph-name="uni0433" unicode="&#x433;" horiz-adv-x="504" 
d="M189 404v-404h-100v500h380v-96h-280z" />
    <glyph glyph-name="uni0434" unicode="&#x434;" horiz-adv-x="648" 
d="M613 -102h-99v102h-380v-102h-100v198h72l186 404h63l186 -404h72v-198zM324 351l-115 -255h231z" />
    <glyph glyph-name="uni0435" unicode="&#x435;" horiz-adv-x="616" 
d="M312 507q80 0 137 -37t85 -104q14 -31 16 -72.5t-7 -69.5h-381q0 -64 43.5 -101.5t112.5 -37.5q87 0 161 44l54 -58q-101 -77 -215 -77q-115 0 -187 72t-72 184q0 109 69.5 183t183.5 74zM313 416q-62 0 -103 -37.5t-44 -90.5h287q0 26 -12 49q-16 36 -49.5 57.5
t-78.5 21.5z" />
    <glyph glyph-name="uni0436" unicode="&#x436;" horiz-adv-x="883" 
d="M737 0l-84 130q-31 48 -51.5 63.5t-63.5 15.5h-47v-209h-100v209h-46q-43 0 -64 -16t-52 -63l-84 -130h-111l112 171q49 76 88 88q-32 13 -81 85l-102 156h111l75 -114q31 -48 51.5 -64t63.5 -16h39v194h100v-194h39q43 0 63.5 15.5t52.5 64.5l74 114h112l-103 -156
q-47 -71 -81 -85q38 -12 89 -88l111 -171h-111z" />
    <glyph glyph-name="uni0437" unicode="&#x437;" horiz-adv-x="554" 
d="M395 261q96 -21 96 -116q0 -73 -55.5 -112t-147.5 -40h-13q-72 0 -134.5 29.5t-86.5 68.5l55 59q26 -30 70 -48t94 -18h12q48 0 77 19.5t29 55.5q0 67 -85 68h-84v62h74q72 1 72 60q0 33 -25.5 50t-65.5 17h-9q-83 0 -144 -59l-53 58q33 40 88 66t117 26h9
q77 0 129.5 -36.5t52.5 -99.5q0 -84 -72 -110z" />
    <glyph glyph-name="uni0438" unicode="&#x438;" horiz-adv-x="635" 
d="M546 0h-100v336l-294 -336h-63v500h100v-336l294 336h63v-500z" />
    <glyph glyph-name="uni0439" unicode="&#x439;" horiz-adv-x="635" 
d="M318 551q-63 0 -106.5 40t-43.5 101h70q0 -30 23 -50.5t57 -20.5t57 20.5t23 50.5h70q0 -61 -43.5 -101t-106.5 -40zM546 0h-100v336l-294 -336h-63v500h100v-336l294 336h63v-500z" />
    <glyph glyph-name="uni043A" unicode="&#x43a;" horiz-adv-x="589" 
d="M449 0l-84 130q-31 47 -52 63t-63 16h-56v-209h-100v500h100v-194h48q43 0 63.5 16t51.5 64l75 114h111l-102 -156q-49 -72 -81 -85q39 -12 88 -88l112 -171h-111z" />
    <glyph glyph-name="uni043B" unicode="&#x43b;" horiz-adv-x="593" 
d="M296 351l-156 -351h-106l231 500h62l231 -500h-105z" />
    <glyph glyph-name="uni043C" unicode="&#x43c;" horiz-adv-x="702" 
d="M613 0h-100v336l-162 -185l-162 185v-336h-100v500h63l199 -228l199 228h63v-500z" />
    <glyph glyph-name="uni043D" unicode="&#x43d;" horiz-adv-x="641" 
d="M552 0h-100v205h-263v-205h-100v500h100v-199h263v199h100v-500z" />
    <glyph glyph-name="uni043E" unicode="&#x43e;" horiz-adv-x="631" 
d="M315 507q107 0 182 -75.5t75 -181.5t-75 -181t-182 -75t-181.5 75t-74.5 181q0 107 75 182t181 75zM315 411q-64 0 -110 -45.5t-46 -115.5t46 -115t110 -45t110.5 45.5t46.5 114.5q0 70 -46.5 115.5t-110.5 45.5z" />
    <glyph glyph-name="uni043F" unicode="&#x43f;" horiz-adv-x="641" 
d="M552 0h-100v404h-263v-404h-100v500h463v-500z" />
    <glyph glyph-name="uni0440" unicode="&#x440;" horiz-adv-x="658" 
d="M352 506q106 0 176.5 -74.5t70.5 -181.5q0 -108 -70.5 -182.5t-176.5 -74.5q-49 0 -91 22.5t-67 60.5v-260h-100v684h68l6 -92q28 45 77 71.5t107 26.5zM344 410q-64 0 -110.5 -45.5t-46.5 -114.5t46.5 -114.5t110.5 -45.5t110 45t46 115t-46 115t-110 45z" />
    <glyph glyph-name="uni0441" unicode="&#x441;" horiz-adv-x="566" 
d="M315 506q120 0 197 -92l-60 -65q-58 61 -137 61q-64 0 -110 -45t-46 -115t46 -115t110 -45q77 0 137 61l60 -65q-77 -92 -197 -92q-107 0 -181.5 75t-74.5 181t74.5 181t181.5 75z" />
    <glyph glyph-name="uni0442" unicode="&#x442;" horiz-adv-x="508" 
d="M303 404v-404h-100v404h-169v96h439v-96h-170z" />
    <glyph glyph-name="uni0443" unicode="&#x443;" horiz-adv-x="651" 
d="M567 500v-437q0 -113 -65.5 -183.5t-180.5 -70.5q-126 0 -218 77l57 61q78 -47 161 -47q69 0 107.5 37t38.5 105v46q-25 -42 -68.5 -62.5t-91.5 -20.5q-104 0 -161 64t-57 176v255h100v-249q0 -150 133 -150q68 0 107 43.5t39 125.5v230h99z" />
    <glyph glyph-name="uni0444" unicode="&#x444;" horiz-adv-x="1028" 
d="M722 506q106 0 176.5 -74.5t70.5 -181.5q0 -108 -70.5 -182.5t-176.5 -74.5q-49 0 -91.5 22.5t-66.5 59.5v-250h-100v249q-25 -37 -67 -59t-91 -22q-106 0 -176.5 74.5t-70.5 182.5q0 107 70.5 181.5t176.5 74.5q57 0 105 -25.5t76 -69.5l3 89h48l3 -88q28 43 76 68.5
t105 25.5zM315 90q64 0 110.5 45.5t46.5 114.5t-46.5 114.5t-110.5 45.5t-110 -45t-46 -115t46 -115t110 -45zM713 90q64 0 110 45t46 115t-46 115t-110 45t-110.5 -45.5t-46.5 -114.5t46.5 -114.5t110.5 -45.5z" />
    <glyph glyph-name="uni0445" unicode="&#x445;" horiz-adv-x="588" 
d="M292 176l-142 -176h-116l202 259l-191 241h116l134 -162l131 162h116l-191 -245l202 -255h-116z" />
    <glyph glyph-name="uni0446" unicode="&#x446;" horiz-adv-x="666" 
d="M632 -102h-100v102h-443v500h100v-404h257v404h100v-404h86v-198z" />
    <glyph glyph-name="uni0447" unicode="&#x447;" horiz-adv-x="649" 
d="M560 0h-100v178q-48 -68 -152 -68q-224 0 -224 250v140h100v-134q0 -82 32 -121t107 -39q137 0 137 147v147h100v-500z" />
    <glyph glyph-name="uni0448" unicode="&#x448;" horiz-adv-x="916" 
d="M827 0h-738v500h100v-404h219v404h100v-404h220v404h99v-500z" />
    <glyph glyph-name="uni0449" unicode="&#x449;" horiz-adv-x="948" 
d="M913 -102h-100v102h-724v500h100v-404h219v404h100v-404h220v404h99v-404h86v-198z" />
    <glyph glyph-name="uni044A" unicode="&#x44a;" horiz-adv-x="655" 
d="M223 347h144q59 0 101 -15.5t63.5 -42.5t30.5 -55t9 -60t-9 -60.5t-30.5 -55.5t-63.5 -42.5t-101 -15.5h-244v404h-89v96h189v-153zM223 93h155q93 0 93 81q0 80 -93 80h-155v-161z" />
    <glyph glyph-name="uni044B" unicode="&#x44b;" horiz-adv-x="781" 
d="M189 347h144q59 0 101 -15.5t63.5 -42.5t30.5 -55t9 -60t-9 -60.5t-30.5 -55.5t-63.5 -42.5t-101 -15.5h-244v500h100v-153zM692 0h-100v500h100v-500zM189 93h155q93 0 93 81q0 80 -93 80h-155v-161z" />
    <glyph glyph-name="uni044C" unicode="&#x44c;" horiz-adv-x="591" 
d="M189 347h144q59 0 101 -15.5t63.5 -42.5t30.5 -55t9 -60t-9 -60.5t-30.5 -55.5t-63.5 -42.5t-101 -15.5h-244v500h100v-153zM189 93h155q93 0 93 81q0 80 -93 80h-155v-161z" />
    <glyph glyph-name="uni044D" unicode="&#x44d;" horiz-adv-x="566" 
d="M251 506q107 0 181.5 -75t74.5 -181t-74.5 -181t-181.5 -75q-120 0 -197 92l60 65q60 -61 137 -61q56 0 98.5 36t50.5 92h-184v65h184q-8 55 -50.5 91t-98.5 36q-77 0 -137 -61l-60 65q77 92 197 92z" />
    <glyph glyph-name="uni044E" unicode="&#x44e;" horiz-adv-x="842" 
d="M526 507q106 0 181.5 -75.5t75.5 -181.5t-75 -181t-182 -75q-94 0 -164.5 60t-85.5 151h-87v-205h-100v500h100v-199h89q16 88 86 147t162 59zM526 90q64 0 110.5 45.5t46.5 114.5q0 70 -46.5 115.5t-110.5 45.5t-110 -45.5t-46 -115.5t46 -115t110 -45z" />
    <glyph glyph-name="uni044F" unicode="&#x44f;" horiz-adv-x="577" 
d="M504 0h-100v154h-87q-38 -1 -58 -17t-51 -63l-50 -74h-109l58 88q3 4 12.5 18.5t13.5 19.5l12 15t14.5 16t14.5 11q-54 15 -86.5 58t-32.5 95q0 75 51.5 127t161.5 52h236v-500zM404 404h-146q-50 0 -76.5 -22t-26.5 -61q0 -38 26.5 -60t76.5 -22h146v165z" />
    <glyph glyph-name="uni0451" unicode="&#x451;" horiz-adv-x="605" 
d="M207 660q25 0 42 -15.5t17 -37.5q0 -23 -17 -38.5t-42 -15.5t-42.5 15.5t-17.5 38.5t17.5 38t42.5 15zM419 660q25 0 42 -15.5t17 -37.5q0 -23 -17 -38.5t-42 -15.5t-42.5 15.5t-17.5 38.5t17.5 38t42.5 15zM312 507q80 0 137 -37t85 -104q14 -31 16 -72.5t-7 -69.5h-381
q0 -64 43.5 -101.5t112.5 -37.5q87 0 161 44l54 -58q-101 -77 -215 -77q-115 0 -187 72t-72 184q0 109 69.5 183t183.5 74zM313 416q-62 0 -103 -37.5t-44 -90.5h287q0 26 -12 49q-16 36 -49.5 57.5t-78.5 21.5z" />
    <glyph glyph-name="Wgrave" unicode="&#x1e80;" horiz-adv-x="1166" 
d="M573 882l79 -132h-77l-114 132h112zM841 0h-62l-196 481l-196 -481h-63l-280 700h119l191 -500l197 500h63l197 -500l191 500h119z" />
    <glyph glyph-name="wgrave" unicode="&#x1e81;" horiz-adv-x="950" 
d="M459 685l79 -132h-77l-114 132h112zM691 0h-63l-153 338l-154 -338h-63l-224 500h106l149 -350l155 350h62l154 -350l150 350h105z" />
    <glyph glyph-name="Wacute" unicode="&#x1e82;" horiz-adv-x="1166" 
d="M589 750h-77l79 132h112zM841 0h-62l-196 481l-196 -481h-63l-280 700h119l191 -500l197 500h63l197 -500l191 500h119z" />
    <glyph glyph-name="wacute" unicode="&#x1e83;" horiz-adv-x="950" 
d="M488 553h-77l79 132h112zM691 0h-63l-153 338l-154 -338h-63l-224 500h106l149 -350l155 350h62l154 -350l150 350h105z" />
    <glyph glyph-name="Wdieresis" unicode="&#x1e84;" horiz-adv-x="1166" 
d="M478 750q-25 0 -42.5 15.5t-17.5 38.5q0 22 17.5 37.5t42.5 15.5t42 -15.5t17 -37.5q0 -23 -17 -38.5t-42 -15.5zM689 750q-25 0 -42.5 15.5t-17.5 38.5q0 22 17.5 37.5t42.5 15.5t42 -15.5t17 -37.5q0 -23 -17 -38.5t-42 -15.5zM841 0h-62l-196 481l-196 -481h-63
l-280 700h119l191 -500l197 500h63l197 -500l191 500h119z" />
    <glyph glyph-name="wdieresis" unicode="&#x1e85;" horiz-adv-x="950" 
d="M371 553q-25 0 -42.5 15.5t-17.5 38.5t17.5 38t42.5 15t42 -15.5t17 -37.5q0 -23 -17 -38.5t-42 -15.5zM582 553q-25 0 -42.5 15.5t-17.5 38.5t17.5 38t42.5 15t42 -15.5t17 -37.5q0 -23 -17 -38.5t-42 -15.5zM691 0h-63l-153 338l-154 -338h-63l-224 500h106l149 -350
l155 350h62l154 -350l150 350h105z" />
    <glyph glyph-name="Ygrave" unicode="&#x1ef2;" horiz-adv-x="713" 
d="M338 882l79 -132h-77l-114 132h112zM410 0h-108v237l-258 463h123l189 -331l189 331h123l-258 -463v-237z" />
    <glyph glyph-name="ygrave" unicode="&#x1ef3;" horiz-adv-x="651" 
d="M395 553h-77l-114 132h112zM189 500v-249q0 -150 133 -150q68 0 107 43.5t39 125.5v230h99v-437q0 -113 -65.5 -183.5t-180.5 -70.5q-126 0 -218 77l57 61q78 -47 161 -47q69 0 107.5 37t38.5 105v46q-25 -42 -68.5 -62.5t-91.5 -20.5q-104 0 -161 64t-57 176v255h100z
" />
    <glyph glyph-name="endash" unicode="&#x2013;" horiz-adv-x="490" 
d="M431 256h-372v64h372v-64z" />
    <glyph glyph-name="emdash" unicode="&#x2014;" horiz-adv-x="658" 
d="M599 256h-540v64h540v-64z" />
    <glyph glyph-name="quoteleft" unicode="&#x2018;" horiz-adv-x="298" 
d="M59 465l107 235h73l-72 -235h-108z" />
    <glyph glyph-name="quoteright" unicode="&#x2019;" horiz-adv-x="298" 
d="M239 700l-107 -235h-73l72 235h108z" />
    <glyph glyph-name="quotesinglbase" unicode="&#x201a;" horiz-adv-x="298" 
d="M239 104l-107 -235h-73l72 235h108z" />
    <glyph glyph-name="quotedblleft" unicode="&#x201c;" horiz-adv-x="444" 
d="M59 465l107 235h73l-72 -235h-108zM205 465l107 235h73l-72 -235h-108z" />
    <glyph glyph-name="quotedblright" unicode="&#x201d;" horiz-adv-x="444" 
d="M239 700l-107 -235h-73l72 235h108zM385 700l-107 -235h-73l72 235h108z" />
    <glyph glyph-name="quotedblbase" unicode="&#x201e;" horiz-adv-x="444" 
d="M239 104l-107 -235h-73l72 235h108zM385 104l-107 -235h-73l72 235h108z" />
    <glyph glyph-name="dagger" unicode="&#x2020;" horiz-adv-x="401" 
d="M235 500h107v-64h-107v-496h-70v496h-106v64h106v200h70v-200z" />
    <glyph glyph-name="daggerdbl" unicode="&#x2021;" horiz-adv-x="401" 
d="M235 500h107v-64h-107v-231h107v-63h-107v-202h-70v202h-106v63h106v231h-106v64h106v200h70v-200z" />
    <glyph glyph-name="bullet" unicode="&#x2022;" horiz-adv-x="405" 
d="M203 441q59 0 101 -42t42 -101q0 -60 -42 -102t-101 -42q-60 0 -102 42t-42 102q0 59 42 101t102 42z" />
    <glyph glyph-name="ellipsis" unicode="&#x2026;" horiz-adv-x="686" 
d="M121 104q26 0 43.5 -16t17.5 -40q0 -23 -17.5 -39t-43.5 -16t-44 16t-18 39q0 24 18 40t44 16zM343 104q26 0 43.5 -16t17.5 -40q0 -23 -17.5 -39t-43.5 -16t-44 16t-18 39q0 24 18 40t44 16zM566 104q26 0 43.5 -16t17.5 -40q0 -23 -17.5 -39t-43.5 -16t-44 16t-18 39
q0 24 18 40t44 16z" />
    <glyph glyph-name="perthousand" unicode="&#x2030;" horiz-adv-x="1207" 
d="M231 707q72 0 121.5 -48.5t49.5 -117.5t-49.5 -117.5t-121.5 -48.5t-122 48.5t-50 117.5t50 117.5t122 48.5zM248 0h-66l391 700h67zM231 641q-43 0 -71 -27.5t-28 -72.5q0 -44 28 -72t71 -28t71 28t28 72q0 45 -28 72.5t-71 27.5zM593 325q72 0 121.5 -48.5t49.5 -117.5
t-49.5 -117.5t-121.5 -48.5t-122 48.5t-50 117.5t50 117.5t122 48.5zM977 325q72 0 121.5 -48.5t49.5 -117.5t-49.5 -117.5t-121.5 -48.5t-122 48.5t-50 117.5t50 117.5t122 48.5zM593 259q-43 0 -71 -28t-28 -72q0 -45 28 -72.5t71 -27.5t71 27.5t28 72.5q0 44 -28 72
t-71 28zM976 259q-43 0 -71 -28t-28 -72q0 -45 28 -72.5t71 -27.5t71 27.5t28 72.5q0 44 -28 72t-71 28z" />
    <glyph glyph-name="guilsinglleft" unicode="&#x2039;" horiz-adv-x="299" 
d="M240 337l-86 -74l86 -73v-91l-181 164l181 165v-91z" />
    <glyph glyph-name="guilsinglright" unicode="&#x203a;" horiz-adv-x="299" 
d="M240 263l-181 -164v91l86 73l-86 74v91z" />
    <glyph glyph-name="fraction" unicode="&#x2044;" horiz-adv-x="491" 
d="M446 700l-337 -700h-65l337 700h65z" />
    <glyph glyph-name="Euro" unicode="&#x20ac;" horiz-adv-x="815" 
d="M492 95q117 0 194 79l70 -65q-108 -116 -264 -116q-121 0 -216 73t-127 187h-90v63h79q-2 22 -2 34q0 13 2 37h-79v63h91q33 112 127.5 184.5t214.5 72.5q156 0 264 -116l-70 -65q-79 79 -194 79q-78 0 -140 -42t-90 -113h287l-20 -63h-283q-2 -24 -2 -37q0 -12 2 -34
h225l-20 -63h-190q27 -72 89.5 -115t141.5 -43z" />
    <glyph glyph-name="uni2116" unicode="&#x2116;" horiz-adv-x="1320" 
d="M974 707q106 0 181.5 -75.5t75.5 -181.5t-75 -181t-182 -75q-106 0 -181 75t-75 181q0 107 75 182t181 75zM650 0h-63l-370 494v-494h-108v700h63l370 -494v494h108v-700zM974 611q-64 0 -110 -45.5t-46 -115.5t46 -115t110 -45t110.5 45.5t46.5 114.5q0 70 -46.5 115.5
t-110.5 45.5zM738 91h473v-91h-473v91z" />
    <glyph glyph-name="trademark" unicode="&#x2122;" horiz-adv-x="755" 
d="M230 637v-247h-66v247h-105v63h276v-63h-105zM696 390h-65v202l-101 -113l-101 113v-202h-65v310h40l126 -141l126 141h40v-310z" />
    <glyph glyph-name="oneeighth" unicode="&#x215b;" horiz-adv-x="748" 
d="M144 382v217l-46 -56l-39 30l106 127h52v-318h-73zM209 0h-65l337 700h65zM631 170q58 -22 58 -79q0 -44 -34 -71t-97 -27h-3q-64 0 -98.5 27t-34.5 71q0 57 58 79q-46 22 -46 70q0 35 31 59.5t87 25.5h5q57 0 89 -24.5t32 -60.5q0 -47 -47 -70zM556 188q23 0 41.5 10
t18.5 33q0 21 -17 32.5t-43 11.5t-42.5 -11t-16.5 -33q0 -20 16.5 -31.5t42.5 -11.5zM556 45q31 0 50.5 14.5t19.5 39.5t-19.5 39.5t-50.5 14.5q-32 0 -51.5 -14.5t-19.5 -39.5t19.5 -39.5t51.5 -14.5z" />
    <glyph glyph-name="threeeighths" unicode="&#x215c;" horiz-adv-x="831" 
d="M324 654l-110 -85q23 0 40 -3q44 -7 66.5 -30t22.5 -57q0 -43 -35 -73.5t-96 -30.5h-5q-88 0 -148 64l41 38q45 -39 94 -39q34 0 56.5 15t22.5 38q0 20 -18.5 32.5t-50.5 11.5q-28 0 -48 -9l-25 20l113 92h-152v62h232v-46zM292 0h-65l337 700h65zM713 170q58 -22 58 -79
q0 -44 -34 -71t-97 -27h-3q-64 0 -98.5 27t-34.5 71q0 57 58 79q-46 22 -46 70q0 35 31 59.5t87 25.5h5q57 0 89 -24.5t32 -60.5q0 -47 -47 -70zM638 188q23 0 41.5 10t18.5 33q0 21 -17 32.5t-43 11.5t-42.5 -11t-16.5 -33q0 -20 16.5 -31.5t42.5 -11.5zM638 45
q31 0 50.5 14.5t19.5 39.5t-19.5 39.5t-50.5 14.5q-32 0 -51.5 -14.5t-19.5 -39.5t19.5 -39.5t51.5 -14.5z" />
    <glyph glyph-name="fiveeighths" unicode="&#x215d;" horiz-adv-x="818" 
d="M316 638h-166v-71q31 14 74 14q55 0 87 -28t32 -73q0 -43 -35 -73.5t-96 -31.5h-5q-88 0 -148 64l41 38q45 -39 94 -39q34 0 56.5 15t22.5 38t-18 36.5t-51 13.5q-46 2 -80 -18l-29 18v159h221v-62zM279 0h-65l337 700h65zM701 170q58 -22 58 -79q0 -44 -34 -71t-97 -27
h-3q-64 0 -98.5 27t-34.5 71q0 57 58 79q-46 22 -46 70q0 35 31 59.5t87 25.5h5q57 0 89 -24.5t32 -60.5q0 -47 -47 -70zM625 188q23 0 41.5 10t18.5 33q0 21 -17 32.5t-43 11.5t-42.5 -11t-16.5 -33q0 -20 16.5 -31.5t42.5 -11.5zM626 45q31 0 50.5 14.5t19.5 39.5
t-19.5 39.5t-50.5 14.5q-32 0 -51.5 -14.5t-19.5 -39.5t19.5 -39.5t51.5 -14.5z" />
    <glyph glyph-name="seveneighths" unicode="&#x215e;" horiz-adv-x="725" 
d="M59 382l159 256h-154v62h239v-41l-172 -277h-72zM186 0h-65l337 700h65zM608 170q58 -22 58 -79q0 -44 -34 -71t-97 -27h-3q-64 0 -98.5 27t-34.5 71q0 57 58 79q-46 22 -46 70q0 35 31 59.5t87 25.5h5q57 0 89 -24.5t32 -60.5q0 -47 -47 -70zM532 188q23 0 41.5 10
t18.5 33q0 21 -17 32.5t-43 11.5t-42.5 -11t-16.5 -33q0 -20 16.5 -31.5t42.5 -11.5zM533 45q31 0 50.5 14.5t19.5 39.5t-19.5 39.5t-50.5 14.5q-32 0 -51.5 -14.5t-19.5 -39.5t19.5 -39.5t51.5 -14.5z" />
    <glyph glyph-name="partialdiff" unicode="&#x2202;" horiz-adv-x="662" 
d="M365 707h7q135 0 192.5 -107t28.5 -268l-10 -56q-22 -123 -109 -203t-203 -80q-115 0 -170 71.5t-38 169.5q18 104 96 167.5t177 63.5q61 0 103 -26.5t57 -69.5q14 100 -21 167.5t-119 68.5h-6q-64 0 -134 -50l-59 65q88 86 208 87zM344 373q-64 0 -113 -39.5t-60 -99.5
t24.5 -99.5t99.5 -39.5q68 0 115.5 42t58.5 104q10 55 -25.5 93.5t-99.5 38.5z" />
    <glyph glyph-name="emptyset" unicode="&#x2205;" horiz-adv-x="659" 
d="M596 473l-64 -65q54 -68 54 -158q0 -106 -75 -181t-182 -75q-88 0 -157 53l-65 -65l-45 46l65 65q-54 68 -54 157q0 107 75 182t181 75q89 0 157 -54l65 65zM173 250q0 -49 24 -87l220 221q-40 27 -88 27q-64 0 -110 -45.5t-46 -115.5zM486 250q0 49 -25 88l-220 -221
q41 -27 88 -27q64 0 110.5 45.5t46.5 114.5z" />
    <glyph glyph-name="product" unicode="&#x220f;" horiz-adv-x="757" 
d="M625 598v-671h-108v671h-278v-671h-108v671h-72v102h639v-102h-73z" />
    <glyph glyph-name="summation" unicode="&#x2211;" horiz-adv-x="582" 
d="M523 599h-298l200 -316l-200 -316h298v-102h-464l255 418l-254 417h463v-101z" />
    <glyph glyph-name="minus" unicode="&#x2212;" horiz-adv-x="532" 
d="M473 250h-414v64h414v-64z" />
    <glyph glyph-name="radical" unicode="&#x221a;" 
d="M348 0h-70l-136 386l-83 -25v85l173 54l109 -350l192 550h61z" />
    <glyph glyph-name="infinity" unicode="&#x221e;" horiz-adv-x="656" 
d="M179 330h6q77 0 143 -87q66 87 143 87h6q53 0 86.5 -39t33.5 -99v-11q0 -60 -33.5 -98.5t-86.5 -38.5h-6q-77 0 -143 86q-66 -86 -143 -86h-6q-54 0 -87 37.5t-33 99.5v11q0 60 33.5 99t86.5 39zM194 265h-4q-29 0 -47.5 -21.5t-18.5 -53.5v-6q0 -35 18 -55t48 -20h4
q50 0 97 80q-45 76 -97 76zM465 265h-4q-51 0 -97 -79q44 -78 97 -78h4q29 0 47.5 22t18.5 54v6q0 32 -18.5 53.5t-47.5 21.5z" />
    <glyph glyph-name="integral" unicode="&#x222b;" horiz-adv-x="352" 
d="M293 648h-14q-33 0 -51.5 -23t-16.5 -56l38 -541q6 -74 -38.5 -120.5t-120.5 -46.5h-31v101h14q32 0 51 23.5t17 56.5l-38 541q-7 74 38 120.5t121 46.5h31v-102z" />
    <glyph glyph-name="approxequal" unicode="&#x2248;" horiz-adv-x="542" 
d="M59 276l41 65q19 31 46.5 44t53.5 9t51 -18l61 -35q25 -16 53 -15.5t43 23.5l24 37h51l-41 -65q-19 -31 -46.5 -44t-53.5 -9t-51 18l-61 36q-25 16 -53 15t-43 -24l-24 -37h-51zM483 250l-41 -65q-19 -31 -46.5 -44t-53.5 -9t-51 18l-61 36q-25 16 -53 15t-43 -24
l-24 -37h-51l41 65q19 31 46.5 44t53.5 9t51 -18l61 -35q25 -16 53 -15.5t43 23.5l24 37h51z" />
    <glyph glyph-name="notequal" unicode="&#x2260;" horiz-adv-x="532" 
d="M309 311l-29 -79h193v-64h-216l-46 -127h-65l46 127h-133v64h156l29 79h-185v64h208l45 125h65l-45 -125h141v-64h-164z" />
    <glyph glyph-name="lessequal" unicode="&#x2264;" horiz-adv-x="471" 
d="M412 430l-193 -113l193 -111v-91l-353 203l353 202v-90zM412 0h-353v64h353v-64z" />
    <glyph glyph-name="greaterequal" unicode="&#x2265;" horiz-adv-x="471" 
d="M412 318l-353 -203v91l193 111l-193 113v90zM412 0h-353v64h353v-64z" />
    <glyph glyph-name="lozenge" unicode="&#x25ca;" horiz-adv-x="513" 
d="M257 -20l-198 260l198 260l197 -260zM257 397l-121 -157l121 -157l120 157z" />
    <glyph glyph-name="K.ss01" horiz-adv-x="724" 
d="M217 303v-303h-108v700h108v-293h132l201 293h123l-234 -344l241 -356h-123l-209 303h-131z" />
    <glyph glyph-name="Kcommaaccent.ss01" horiz-adv-x="724" 
d="M217 303v-303h-108v700h108v-293h132l201 293h123l-234 -344l241 -356h-123l-209 303h-131zM338 -200h-77l79 131h112z" />
    <glyph glyph-name="R.ss01" horiz-adv-x="697" 
d="M109 700h234q139 0 219.5 -71t80.5 -187q0 -83 -43 -143.5t-120 -89.5l169 -209h-122l-154 187q-17 -3 -35 -3h-121v-184h-108v700zM217 598v-313h134q84 0 137 39.5t53 117.5q0 76 -53.5 116t-136.5 40h-134z" />
    <glyph glyph-name="Racute.ss01" horiz-adv-x="697" 
d="M345 750h-77l79 132h112zM109 700h234q139 0 219.5 -71t80.5 -187q0 -83 -43 -143.5t-120 -89.5l169 -209h-122l-154 187q-17 -3 -35 -3h-121v-184h-108v700zM217 598v-313h134q84 0 137 39.5t53 117.5q0 76 -53.5 116t-136.5 40h-134z" />
    <glyph glyph-name="Rcaron.ss01" horiz-adv-x="697" 
d="M383 750h-97l-97 133h79l67 -57l66 58h79zM109 700h234q139 0 219.5 -71t80.5 -187q0 -83 -43 -143.5t-120 -89.5l169 -209h-122l-154 187q-17 -3 -35 -3h-121v-184h-108v700zM217 598v-313h134q84 0 137 39.5t53 117.5q0 76 -53.5 116t-136.5 40h-134z" />
    <glyph glyph-name="Rcommaaccent.ss01" horiz-adv-x="697" 
d="M109 700h234q139 0 219.5 -71t80.5 -187q0 -83 -43 -143.5t-120 -89.5l169 -209h-122l-154 187q-17 -3 -35 -3h-121v-184h-108v700zM217 598v-313h134q84 0 137 39.5t53 117.5q0 76 -53.5 116t-136.5 40h-134zM320 -200h-77l79 131h112z" />
    <glyph glyph-name="i.loclTRK" horiz-adv-x="302" 
d="M154 553q-25 0 -42.5 15.5t-17.5 38.5t17.5 38t42.5 15t42 -15.5t17 -37.5q0 -23 -17 -38.5t-42 -15.5zM103 0v500h100v-500h-100z" />
    <glyph glyph-name="k.ss01" horiz-adv-x="595" 
d="M194 207v-207h-100v700h100v-396h95l150 196h112l-184 -245l193 -255h-112l-159 207h-95z" />
    <glyph glyph-name="kcommaaccent.ss01" horiz-adv-x="595" 
d="M194 207v-207h-100v700h100v-396h95l150 196h112l-184 -245l193 -255h-112l-159 207h-95zM381 -69l-114 -131h-77l79 131h112z" />
    <glyph glyph-name="uni0416.ss01" horiz-adv-x="1078" 
d="M1026 700l-234 -344l241 -356h-123l-209 303h-109v-303h-108v303h-108l-209 -303h-123l241 356l-234 344h123l201 -293h109v293h108v-293h110l201 293h123z" />
    <glyph glyph-name="uni041A.ss01" horiz-adv-x="724" 
d="M217 303v-303h-108v700h108v-293h132l201 293h123l-234 -344l241 -356h-123l-209 303h-131z" />
    <glyph glyph-name="uni042F.ss01" horiz-adv-x="697" 
d="M588 0h-108v184h-121q-19 0 -35 3l-154 -187h-122l170 209q-77 29 -120.5 89.5t-43.5 143.5q0 116 80.5 187t220.5 71h233v-700zM480 598h-134q-83 0 -136.5 -40t-53.5 -116q0 -78 53 -117.5t137 -39.5h134v313z" />
    <glyph glyph-name="uni0436.ss01" horiz-adv-x="870" 
d="M484 207v-207h-99v207h-80l-159 -207h-112l193 255l-184 245h112l150 -196h80v196h99v-196h80l150 196h112l-184 -245l193 -255h-112l-159 207h-80z" />
    <glyph glyph-name="uni043A.ss01" horiz-adv-x="595" 
d="M194 207v-207h-100v500h100v-196h95l150 196h112l-184 -245l193 -255h-112l-159 207h-95z" />
    <glyph glyph-name="uni044F.ss01" horiz-adv-x="573" 
d="M500 0h-100v154h-125l-121 -154h-110l128 169q-56 14 -88.5 56.5t-32.5 95.5q0 75 51.5 127t161.5 52h236v-500zM400 404h-146q-50 0 -76.5 -22t-26.5 -61q0 -38 26.5 -60t76.5 -22h146v165z" />
    <glyph glyph-name="zero.lf" horiz-adv-x="841" 
d="M420 707q148 0 252.5 -104.5t104.5 -252.5t-104.5 -252.5t-252.5 -104.5t-252.5 104.5t-104.5 252.5t104.5 252.5t252.5 104.5zM421 605q-105 0 -177 -72.5t-72 -182.5q0 -111 72 -183t177 -72t177 72t72 183q0 110 -72 182.5t-177 72.5z" />
    <glyph glyph-name="one.lf" horiz-adv-x="412" 
d="M302 0h-108v507l-80 -96l-70 54l196 235h62v-700z" />
    <glyph glyph-name="two.lf" horiz-adv-x="634" 
d="M579 0h-525v63l298 260q60 54 83 88t23 76q0 54 -39.5 85.5t-96.5 32.5h-9q-91 0 -175 -85l-70 64q109 123 254 123h9q106 -1 170 -58.5t64 -140.5q0 -71 -40.5 -129.5t-139.5 -143.5l-147 -134h341v-101z" />
    <glyph glyph-name="three.lf" horiz-adv-x="646" 
d="M564 637l-230 -225q29 6 64 5q92 -9 142.5 -63t50.5 -134q0 -97 -65.5 -161t-185.5 -66h-9q-178 1 -277 137l70 65q89 -100 207 -100h7q67 1 109 40t42 100q0 58 -37.5 91t-113.5 33q-56 0 -112 -27l-53 40l233 227h-290v101h448v-63z" />
    <glyph glyph-name="four.lf" horiz-adv-x="629" 
d="M510 132v-132h-108v132h-358v62l404 506h62v-467h74v-101h-74zM403 521l-230 -288h230v288z" />
    <glyph glyph-name="five.lf" horiz-adv-x="643" 
d="M524 599h-322v-187q60 43 159 43q108 0 167.5 -61.5t59.5 -162.5q0 -100 -66.5 -168.5t-187.5 -69.5h-9q-172 1 -271 137l70 65q47 -53 94.5 -76.5t108.5 -23.5h7q65 1 108.5 39.5t43.5 104.5q0 64 -41 100t-113 36q-53 0 -99.5 -18t-74.5 -40l-52 40v343h418v-101z" />
    <glyph glyph-name="six.lf" horiz-adv-x="622" 
d="M334 465q99 0 166 -63.5t67 -167.5q0 -98 -68 -169.5t-182 -71.5q-116 0 -189.5 80t-73.5 203v56q0 161 71 267.5t204 107.5h7q133 0 213 -94l-70 -65q-64 57 -140 58h-6q-83 0 -127 -67t-49 -170q23 44 69.5 70t107.5 26zM311 95q64 0 106 39.5t42 99.5t-42 99.5
t-106 39.5t-106 -38.5t-42 -93.5q0 -62 40 -104t108 -42z" />
    <glyph glyph-name="seven.lf" horiz-adv-x="556" 
d="M511 637l-351 -637h-116l331 599h-328v101h464v-63z" />
    <glyph glyph-name="eight.lf" horiz-adv-x="605" 
d="M420 373q59 -19 94.5 -64t35.5 -108q0 -94 -64.5 -151t-178.5 -58h-7q-114 0 -180 57t-66 152q0 63 35.5 108t94.5 64q-106 44 -106 151q0 77 57.5 129.5t156.5 53.5h14q101 0 160 -52.5t59 -130.5q0 -108 -105 -151zM182 505q0 -49 34.5 -74.5t86.5 -25.5t86.5 25.5
t34.5 74.5t-34.5 74.5t-86.5 25.5t-86.5 -25.5t-34.5 -74.5zM303 95q64 0 104.5 33t40.5 90q0 58 -39.5 90.5t-105.5 33.5q-54 0 -99.5 -29.5t-45.5 -94.5q0 -57 40.5 -90t104.5 -33z" />
    <glyph glyph-name="nine.lf" horiz-adv-x="622" 
d="M287 235q-99 0 -166 63.5t-67 167.5q0 98 68 169.5t182 71.5q116 0 189.5 -80t73.5 -203v-56q0 -161 -71 -267.5t-204 -107.5h-7q-134 0 -213 95l70 64q66 -57 140 -57h6q83 0 127 67t49 169q-23 -44 -69.5 -70t-107.5 -26zM311 605q-64 0 -106 -39.5t-42 -99.5t42 -99.5
t106 -39.5t106 38.5t42 93.5q0 62 -40 104t-108 42z" />
    <glyph glyph-name="zero.osf" horiz-adv-x="683" 
d="M340 544q115 0 197 -80.5t82 -194.5t-82 -195t-197 -81q-114 0 -195.5 81t-81.5 195t81.5 194.5t195.5 80.5zM341 442q-71 0 -120 -50.5t-49 -122.5q0 -73 49 -123.5t120 -50.5t120.5 50.5t49.5 123.5q0 72 -49.5 122.5t-120.5 50.5z" />
    <glyph glyph-name="one.osf" horiz-adv-x="412" 
d="M302 0h-108v344l-80 -96l-70 54l196 235h62v-537z" />
    <glyph glyph-name="two.osf" horiz-adv-x="634" 
d="M579 0h-525v63l326 193q45 27 61.5 48.5t16.5 52.5q0 36 -32 60.5t-86 25.5h-9q-108 0 -193 -86l-70 65q54 59 123.5 90.5t140.5 31.5h9q109 -1 166.5 -53t57.5 -121q0 -61 -36 -103t-121 -83l-137 -83h308v-101z" />
    <glyph glyph-name="three.osf" horiz-adv-x="646" 
d="M564 475l-230 -217q33 5 71 2q90 -10 138 -63.5t48 -131.5q0 -93 -66 -156t-186 -64h-8q-178 1 -277 137l70 65q89 -100 207 -100h6q67 1 109.5 39t42.5 95t-38 90t-113 33q-56 0 -112 -27l-53 40l231 219h-288v101h448v-62z" />
    <glyph glyph-name="four.osf" horiz-adv-x="629" 
d="M510 -24v-124h-108v124h-358v62l404 499h62v-460h74v-101h-74zM403 358l-230 -281h230v281z" />
    <glyph glyph-name="five.osf" horiz-adv-x="643" 
d="M524 436h-322v-179q57 43 159 43q108 0 167.5 -61.5t59.5 -162.5q0 -95 -67 -162.5t-189 -68.5h-7q-172 1 -271 137l70 65q47 -53 94.5 -76.5t108.5 -23.5h6q65 1 109 38t44 99q0 65 -41 100.5t-113 35.5q-53 0 -99.5 -18t-74.5 -40l-52 40v335h418v-101z" />
    <glyph glyph-name="six.osf" horiz-adv-x="622" 
d="M334 465q99 0 166 -63.5t67 -167.5q0 -98 -68 -169.5t-182 -71.5q-116 0 -189.5 80t-73.5 203v49q0 102 29.5 183.5t94 133t155.5 51.5h6q131 -1 210 -95l-70 -65q-64 58 -141 58h-5q-81 0 -124 -63t-50 -157q23 43 69 68.5t106 25.5zM311 95q64 0 106 39.5t42 99.5
t-42 99.5t-106 39.5t-106 -38.5t-42 -93.5q0 -62 40 -104t108 -42z" />
    <glyph glyph-name="seven.osf" horiz-adv-x="553" 
d="M508 475l-347 -623h-116l326 584h-327v101h464v-62z" />
    <glyph glyph-name="eight.osf" horiz-adv-x="605" 
d="M420 365q59 -18 94.5 -62.5t35.5 -106.5q0 -91 -66.5 -147t-180.5 -56h-5q-113 1 -178.5 56.5t-65.5 146.5q0 62 35 106.5t94 62.5q-105 44 -105 152q0 73 59.5 124.5t158.5 51.5h10q100 0 159.5 -51t59.5 -125q0 -109 -105 -152zM182 498q0 -49 34.5 -74.5t86.5 -25.5
t86.5 25.5t34.5 74.5t-34.5 74.5t-86.5 25.5t-86.5 -25.5t-34.5 -74.5zM303 93q64 0 104.5 32.5t40.5 88.5q0 55 -39.5 87t-105.5 33q-24 0 -47.5 -6t-46 -19t-37 -37.5t-14.5 -57.5q0 -56 40.5 -88.5t104.5 -32.5z" />
    <glyph glyph-name="nine.osf" horiz-adv-x="622" 
d="M287 72q-99 0 -166 63.5t-67 167.5q0 98 68 169.5t182 71.5q116 0 189.5 -79.5t73.5 -203.5v-48q0 -102 -29.5 -184t-94 -133.5t-155.5 -51.5h-5q-132 1 -211 95l70 65q67 -58 141 -58h5q81 0 124 63t51 157q-24 -43 -70 -68.5t-106 -25.5zM311 442q-64 0 -106 -39.5
t-42 -99.5t42 -99.5t106 -39.5t106 38.5t42 94.5q0 62 -40 103.5t-108 41.5z" />
    <glyph glyph-name="zero.tf" horiz-adv-x="832" 
d="M416 707q148 0 252.5 -104.5t104.5 -252.5t-104.5 -252.5t-252.5 -104.5t-252.5 104.5t-104.5 252.5t104.5 252.5t252.5 104.5zM416 605q-105 0 -177 -72.5t-72 -182.5q0 -111 72 -183t177 -72t177 72t72 183q0 110 -72 182.5t-177 72.5z" />
    <glyph glyph-name="one.tf" horiz-adv-x="376" 
d="M317 0h-108v507l-80 -96l-70 54l196 235h62v-700z" />
    <glyph glyph-name="two.tf" horiz-adv-x="643" 
d="M584 0h-525v63l298 260q60 54 83 88t23 76q0 54 -39.5 85.5t-96.5 32.5h-9q-91 0 -175 -85l-70 64q109 123 254 123h9q106 -1 170 -58.5t64 -140.5q0 -71 -40.5 -129.5t-139.5 -143.5l-147 -134h341v-101z" />
    <glyph glyph-name="three.tf" horiz-adv-x="655" 
d="M569 637l-230 -225q29 6 64 5q92 -9 142.5 -63t50.5 -134q0 -97 -65.5 -161t-185.5 -66h-9q-178 1 -277 137l70 65q89 -100 207 -100h7q67 1 109 40t42 100q0 58 -37.5 91t-113.5 33q-56 0 -112 -27l-53 40l233 227h-290v101h448v-63z" />
    <glyph glyph-name="four.tf" horiz-adv-x="658" 
d="M525 132v-132h-108v132h-358v62l404 506h62v-467h74v-101h-74zM417 521l-230 -288h230v288z" />
    <glyph glyph-name="five.tf" horiz-adv-x="652" 
d="M529 599h-322v-187q60 43 159 43q108 0 167.5 -61.5t59.5 -162.5q0 -100 -66.5 -168.5t-187.5 -69.5h-9q-172 1 -271 137l70 65q47 -53 94.5 -76.5t108.5 -23.5h7q65 1 108.5 39.5t43.5 104.5q0 64 -41 100t-113 36q-101 0 -174 -58l-52 40v343h418v-101z" />
    <glyph glyph-name="six.tf" horiz-adv-x="631" 
d="M339 465q99 0 166 -63.5t67 -167.5q0 -98 -68 -169.5t-182 -71.5q-116 0 -189.5 80t-73.5 203v56q0 161 71 267.5t204 107.5h7q133 0 213 -94l-70 -65q-64 57 -140 58h-6q-83 0 -127 -67t-49 -170q23 44 69.5 70t107.5 26zM316 95q64 0 106 39.5t42 99.5t-42 99.5
t-106 39.5t-106 -38.5t-42 -93.5q0 -62 40 -104t108 -42z" />
    <glyph glyph-name="seven.tf" horiz-adv-x="585" 
d="M526 637l-351 -637h-116l331 599h-328v101h464v-63z" />
    <glyph glyph-name="eight.tf" horiz-adv-x="614" 
d="M425 373q59 -19 94.5 -64t35.5 -108q0 -94 -64.5 -151t-178.5 -58h-7q-114 0 -180 57t-66 152q0 63 35.5 108t94.5 64q-106 44 -106 151q0 77 57.5 129.5t156.5 53.5h14q101 0 160 -52.5t59 -130.5q0 -108 -105 -151zM186 505q0 -49 34.5 -74.5t86.5 -25.5t86.5 25.5
t34.5 74.5t-34.5 74.5t-86.5 25.5t-86.5 -25.5t-34.5 -74.5zM307 95q64 0 104.5 33t40.5 90q0 58 -39.5 90.5t-105.5 33.5q-54 0 -99.5 -29.5t-45.5 -94.5q0 -57 40.5 -90t104.5 -33z" />
    <glyph glyph-name="nine.tf" horiz-adv-x="631" 
d="M292 235q-99 0 -166 63.5t-67 167.5q0 98 68 169.5t182 71.5q116 0 189.5 -80t73.5 -203v-56q0 -161 -71 -267.5t-204 -107.5h-7q-134 0 -213 95l70 64q66 -57 140 -57h6q83 0 127 67t49 169q-23 -44 -69.5 -70t-107.5 -26zM315 605q-64 0 -106 -39.5t-42 -99.5t42 -99.5
t106 -39.5t106 38.5t42 93.5q0 62 -40 104t-108 42z" />
    <glyph glyph-name="zero.tosf" horiz-adv-x="674" 
d="M336 546q115 0 197 -81t82 -195t-82 -194.5t-197 -80.5q-114 0 -195.5 80.5t-81.5 194.5t81.5 195t195.5 81zM337 444q-71 0 -120 -50.5t-49 -123.5t49 -123t120 -50t120.5 50t49.5 123t-49.5 123.5t-120.5 50.5z" />
    <glyph glyph-name="one.tosf" horiz-adv-x="376" 
d="M317 0h-108v346l-80 -96l-70 54l196 235h62v-539z" />
    <glyph glyph-name="two.tosf" horiz-adv-x="643" 
d="M584 0h-525v63l326 193q45 27 61.5 48.5t16.5 52.5q0 36 -32 60.5t-86 25.5h-9q-108 0 -193 -86l-70 65q54 59 123.5 90.5t140.5 31.5h9q109 -1 166.5 -53t57.5 -121q0 -61 -36 -103t-121 -83l-137 -83h308v-101z" />
    <glyph glyph-name="three.tosf" horiz-adv-x="655" 
d="M569 475l-230 -217q33 5 71 2q90 -10 138 -63.5t48 -131.5q0 -93 -66 -156t-186 -64h-8q-178 1 -277 137l70 65q89 -100 207 -100h6q67 1 109.5 39t42.5 95t-38 90t-113 33q-56 0 -112 -27l-53 40l231 219h-288v101h448v-62z" />
    <glyph glyph-name="four.tosf" horiz-adv-x="658" 
d="M525 -24v-124h-108v124h-358v62l404 499h62v-460h74v-101h-74zM417 358l-230 -281h230v281z" />
    <glyph glyph-name="five.tosf" horiz-adv-x="652" 
d="M529 436h-322v-179q57 43 159 43q108 0 167.5 -61.5t59.5 -162.5q0 -95 -67 -162.5t-189 -68.5h-7q-172 1 -271 137l70 65q47 -53 94.5 -76.5t108.5 -23.5h6q65 1 109 38t44 99q0 65 -41 100.5t-113 35.5q-101 0 -174 -58l-52 40v335h418v-101z" />
    <glyph glyph-name="six.tosf" horiz-adv-x="631" 
d="M339 465q99 0 166 -63.5t67 -167.5q0 -98 -68 -169.5t-182 -71.5q-116 0 -189.5 80t-73.5 203v49q0 102 29.5 183.5t94 133t155.5 51.5h6q131 -1 210 -95l-70 -65q-64 58 -141 58h-5q-81 0 -124 -63t-50 -157q23 43 69 68.5t106 25.5zM316 95q64 0 106 39.5t42 99.5
t-42 99.5t-106 39.5t-106 -38.5t-42 -93.5q0 -62 40 -104t108 -42z" />
    <glyph glyph-name="seven.tosf" horiz-adv-x="582" 
d="M523 475l-347 -623h-116l326 584h-327v101h464v-62z" />
    <glyph glyph-name="eight.tosf" horiz-adv-x="614" 
d="M425 365q59 -18 94.5 -62.5t35.5 -106.5q0 -91 -66.5 -147t-180.5 -56h-5q-113 1 -178.5 56.5t-65.5 146.5q0 62 35 106.5t94 62.5q-105 44 -105 152q0 73 59.5 124.5t158.5 51.5h10q100 0 159.5 -51t59.5 -125q0 -109 -105 -152zM186 498q0 -49 34.5 -74.5t86.5 -25.5
t86.5 25.5t34.5 74.5t-34.5 74.5t-86.5 25.5t-86.5 -25.5t-34.5 -74.5zM307 93q64 0 104.5 32.5t40.5 88.5q0 55 -39.5 87t-105.5 33q-24 0 -47.5 -6t-46 -19t-37 -37.5t-14.5 -57.5q0 -56 40.5 -88.5t104.5 -32.5z" />
    <glyph glyph-name="nine.tosf" horiz-adv-x="631" 
d="M292 72q-99 0 -166 63.5t-67 167.5q0 98 68 169.5t182 71.5q116 0 189.5 -79.5t73.5 -203.5v-48q0 -102 -29.5 -184t-94 -133.5t-155.5 -51.5h-5q-132 1 -211 95l70 65q67 -58 141 -58h5q81 0 124 63t51 157q-24 -43 -70 -68.5t-106 -25.5zM315 442q-64 0 -106 -39.5
t-42 -99.5t42 -99.5t106 -39.5t106 38.5t42 94.5q0 62 -40 103.5t-108 41.5z" />
    <glyph glyph-name="zero.dnom" horiz-adv-x="410" 
d="M205 325q72 0 121.5 -48.5t49.5 -117.5t-49.5 -117.5t-121.5 -48.5t-122 48.5t-50 117.5t50 117.5t122 48.5zM205 259q-43 0 -71 -28t-28 -72q0 -45 28 -72.5t71 -27.5t71 27.5t28 72.5q0 44 -28 72t-71 28z" />
    <glyph glyph-name="one.dnom" horiz-adv-x="247" 
d="M202 0h-73v217l-46 -56l-39 30l106 127h52v-318z" />
    <glyph glyph-name="two.dnom" horiz-adv-x="377" 
d="M332 0h-288v36l161 113q50 34 50 62q0 20 -17 34.5t-44 14.5h-5q-51 0 -92 -41l-45 42q70 65 150 65h5q53 -1 85.5 -30t32.5 -70q0 -36 -22 -62.5t-68 -53.5l-69 -44h166v-66z" />
    <glyph glyph-name="three.dnom" horiz-adv-x="373" 
d="M309 273l-110 -85q15 0 40 -3q44 -7 66.5 -30.5t22.5 -56.5q0 -43 -35 -73.5t-96 -31.5h-5q-88 0 -148 64l41 38q45 -39 94 -38q34 0 56.5 14.5t22.5 37.5q0 20 -18.5 32.5t-50.5 12.5q-32 -1 -48 -10l-25 20l113 92h-152v62h232v-45z" />
    <glyph glyph-name="four.dnom" horiz-adv-x="372" 
d="M290 59v-59h-72v59h-174v36l198 223h48v-201h37v-58h-37zM218 226l-99 -109h99v109z" />
    <glyph glyph-name="five.dnom" horiz-adv-x="373" 
d="M301 256h-166v-71q31 14 74 14q55 0 87 -28t32 -73q0 -43 -35 -73.5t-96 -31.5h-5q-88 0 -148 64l41 38q45 -39 94 -38q34 0 56.5 14.5t22.5 37.5t-18 36.5t-51 13.5q-48 2 -80 -18l-29 18v159h221v-62z" />
    <glyph glyph-name="six.dnom" horiz-adv-x="363" 
d="M197 217q52 0 86.5 -30t34.5 -80q0 -46 -36.5 -80t-97.5 -34q-65 0 -102.5 37.5t-37.5 96.5v23q0 76 38 125.5t112 49.5h4q68 0 107 -45l-36 -34q-35 26 -71 26h-4q-37 0 -59.5 -26.5t-27.5 -65.5q29 37 90 37zM182 48q30 0 50 17t20 42q0 26 -19.5 43t-50.5 17
q-30 0 -50 -16.5t-20 -40.5q0 -26 19 -44t51 -18z" />
    <glyph glyph-name="seven.dnom" horiz-adv-x="333" 
d="M288 277l-172 -277h-72l159 257h-154v61h239v-41z" />
    <glyph glyph-name="eight.dnom" horiz-adv-x="356" 
d="M253 170q58 -22 58 -79q0 -44 -34 -71t-97 -27h-3q-64 0 -98.5 27t-34.5 71q0 57 58 79q-46 22 -46 70q0 35 31 59.5t87 25.5h5q57 0 89 -24.5t32 -60.5q0 -47 -47 -70zM178 188q23 0 41.5 10t18.5 33q0 21 -17 32.5t-43 11.5t-42.5 -11t-16.5 -33q0 -20 16.5 -31.5
t42.5 -11.5zM179 45q31 0 50.5 14.5t19.5 39.5t-19.5 39.5t-50.5 14.5q-32 0 -51.5 -14.5t-19.5 -39.5t19.5 -39.5t51.5 -14.5z" />
    <glyph glyph-name="nine.dnom" horiz-adv-x="363" 
d="M166 101q-52 0 -87 30t-35 80q0 46 36.5 80t97.5 34q66 0 103 -37.5t37 -96.5v-23q0 -76 -38 -125.5t-112 -49.5h-3q-70 1 -108 45l37 34q33 -26 71 -26h3q37 0 59.5 26.5t27.5 65.5q-29 -37 -89 -37zM182 270q-30 0 -50 -17t-20 -42q0 -26 19.5 -43t50.5 -17
q30 0 50 16.5t20 40.5q0 26 -19 44t-51 18z" />
    <glyph glyph-name="zero.numr" horiz-adv-x="410" 
d="M205 707q72 0 121.5 -48.5t49.5 -117.5t-49.5 -117.5t-121.5 -48.5t-122 48.5t-50 117.5t50 117.5t122 48.5zM205 641q-43 0 -71 -27.5t-28 -72.5q0 -44 28 -72t71 -28t71 28t28 72q0 45 -28 72.5t-71 27.5z" />
    <glyph glyph-name="one.numr" horiz-adv-x="247" 
d="M202 382h-73v217l-46 -56l-39 30l106 127h52v-318z" />
    <glyph glyph-name="two.numr" horiz-adv-x="377" 
d="M332 382l-288 -1v37l161 113q50 33 50 61q0 20 -17 34.5t-44 15.5h-5q-49 0 -92 -41l-45 41q68 65 150 65h5q53 -1 85.5 -30t32.5 -70q0 -36 -22 -61.5t-68 -54.5l-69 -43h166v-66z" />
    <glyph glyph-name="three.numr" horiz-adv-x="373" 
d="M309 654l-110 -85q23 0 40 -3q44 -7 66.5 -30t22.5 -57q0 -43 -35 -73.5t-96 -30.5h-5q-88 0 -148 64l41 38q45 -39 94 -39q34 0 56.5 15t22.5 38q0 20 -18.5 32.5t-50.5 11.5q-28 0 -48 -9l-25 20l113 92h-152v62h232v-46z" />
    <glyph glyph-name="four.numr" horiz-adv-x="372" 
d="M290 440v-58h-72v58h-174v36l198 224h48v-201h37v-59h-37zM218 607l-99 -108h99v108z" />
    <glyph glyph-name="five.numr" horiz-adv-x="373" 
d="M301 638h-166v-71q31 14 74 14q55 0 87 -28t32 -73q0 -43 -35 -73.5t-96 -31.5h-5q-88 0 -148 64l41 38q45 -39 94 -39q34 0 56.5 15t22.5 38t-18 36.5t-51 13.5q-46 2 -80 -18l-29 18v159h221v-62z" />
    <glyph glyph-name="six.numr" horiz-adv-x="363" 
d="M197 599q52 0 86.5 -30t34.5 -80q0 -46 -36.5 -80t-97.5 -34q-65 0 -102.5 37.5t-37.5 97.5v23q0 75 38 124.5t112 49.5h4q68 0 107 -45l-36 -34q-35 26 -71 26h-4q-37 0 -59.5 -26.5t-27.5 -65.5q29 37 90 37zM182 431q31 0 50.5 16.5t19.5 41.5q0 26 -19.5 43t-50.5 17
q-30 0 -50 -16.5t-20 -40.5q0 -26 19 -43.5t51 -17.5z" />
    <glyph glyph-name="seven.numr" horiz-adv-x="333" 
d="M288 659l-172 -277h-72l159 256h-154v62h239v-41z" />
    <glyph glyph-name="eight.numr" horiz-adv-x="356" 
d="M253 552q58 -22 58 -79q0 -44 -34 -71t-97 -27h-3q-64 0 -98.5 27t-34.5 71q0 57 58 79q-46 22 -46 70q0 35 31 59.5t87 25.5h5q57 0 89 -24.5t32 -60.5q0 -47 -47 -70zM178 570q23 0 41.5 10t18.5 33q0 21 -17 32.5t-43 11.5t-42.5 -11.5t-16.5 -32.5q0 -20 16.5 -31.5
t42.5 -11.5zM179 427q31 0 50.5 14.5t19.5 39.5t-19.5 39.5t-50.5 14.5q-32 0 -51.5 -14.5t-19.5 -39.5t19.5 -39.5t51.5 -14.5z" />
    <glyph glyph-name="nine.numr" horiz-adv-x="363" 
d="M166 483q-52 0 -87 30t-35 80q0 46 36.5 80t97.5 34q66 0 103 -37.5t37 -96.5v-23q0 -76 -38 -125.5t-112 -49.5h-3q-70 1 -108 45l37 34q33 -26 71 -26h3q37 0 59.5 26.5t27.5 65.5q-29 -37 -89 -37zM182 652q-30 0 -50 -17t-20 -42q0 -26 19.5 -43t50.5 -17
q30 0 50 16.5t20 40.5q0 26 -19 44t-51 18z" />
    </font>
</defs>
</svg>
